<mxfile host="app.diagrams.net" agent="Mozilla/5.0 (Windows NT 10.0; Win64; x64) AppleWebKit/537.36 (KHTML, like Gecko) Chrome/127.0.0.0 Safari/537.36" version="24.7.6" pages="2">
  <diagram name="Page-1" id="9hyUHF0IdSN2p2rDdYVM">
    <mxGraphModel dx="880" dy="460" grid="0" gridSize="10" guides="1" tooltips="1" connect="1" arrows="1" fold="1" page="1" pageScale="1" pageWidth="850" pageHeight="1100" math="0" shadow="0">
      <root>
        <mxCell id="0" />
        <mxCell id="1" parent="0" />
        <mxCell id="o_zERjoDpLPqBPkh4Qum-3" value="&lt;h1 style=&quot;margin-top: 0px;&quot;&gt;Welcome to Pages&lt;/h1&gt;&lt;p style=&quot;text-align: justify;&quot;&gt;Lorem ipsum dolor sit amet, consectetur adipisicing elit, sed do eiusmod tempor incididunt ut labore et dolore magna aliqua.&lt;span style=&quot;background-color: initial;&quot;&gt;Lorem ipsum dolor sit amet, consectetur adipisicing elit, sed do eiusmod tempor incididunt ut labore et dolore magna aliqua.&lt;/span&gt;&lt;span style=&quot;background-color: initial;&quot;&gt;Lorem ipsum dolor sit amet, consectetur adipisicing elit, sed do eiusmod tempor incididunt ut labore et dolore magna aliqua.&lt;/span&gt;&lt;/p&gt;" style="text;html=1;whiteSpace=wrap;overflow=hidden;rounded=0;" parent="1" vertex="1">
          <mxGeometry x="80" y="120" width="430" height="140" as="geometry" />
        </mxCell>
        <mxCell id="o_zERjoDpLPqBPkh4Qum-4" value="Start" style="rounded=1;fillColor=#0057D8;strokeColor=none;html=1;whiteSpace=wrap;fontColor=#ffffff;align=center;verticalAlign=middle;fontStyle=0;fontSize=12;sketch=0;" parent="1" vertex="1">
          <mxGeometry x="80" y="307" width="86" height="33" as="geometry" />
        </mxCell>
        <mxCell id="o_zERjoDpLPqBPkh4Qum-6" value="" style="shape=image;verticalLabelPosition=bottom;labelBackgroundColor=default;verticalAlign=top;aspect=fixed;imageAspect=0;image=data:image/jpeg,/9j/4AAQSkZJRgABAQEBLAEsAAD/4QCQRXhpZgAASUkqAAgAAAADAA4BAgBGAAAAMgAAABoBBQABAAAAeAAAABsBBQABAAAAgAAAAAAAAABUZWVuYWdlIGZlbWFsZSBzdHVkZW50IHRha2luZyBub3RlcyB3aGlsZSB1c2luZyBhIGNvbXB1dGVyIGluIGxpYnJhcnkuLAEAAAEAAAAsAQAAAQAAAP/hBbdodHRwOi8vbnMuYWRvYmUuY29tL3hhcC8xLjAvADw/eHBhY2tldCBiZWdpbj0i77u/IiBpZD0iVzVNME1wQ2VoaUh6cmVTek5UY3prYzlkIj8+Cjx4OnhtcG1ldGEgeG1sbnM6eD0iYWRvYmU6bnM6bWV0YS8iPgoJPHJkZjpSREYgeG1sbnM6cmRmPSJodHRwOi8vd3d3LnczLm9yZy8xOTk5LzAyLzIyLXJkZi1zeW50YXgtbnMjIj4KCQk8cmRmOkRlc2NyaXB0aW9uIHJkZjphYm91dD0iIiB4bWxuczpwaG90b3Nob3A9Imh0dHA6Ly9ucy5hZG9iZS5jb20vcGhvdG9zaG9wLzEuMC8iIHhtbG5zOklwdGM0eG1wQ29yZT0iaHR0cDovL2lwdGMub3JnL3N0ZC9JcHRjNHhtcENvcmUvMS4wL3htbG5zLyIgICB4bWxuczpHZXR0eUltYWdlc0dJRlQ9Imh0dHA6Ly94bXAuZ2V0dHlpbWFnZXMuY29tL2dpZnQvMS4wLyIgeG1sbnM6ZGM9Imh0dHA6Ly9wdXJsLm9yZy9kYy9lbGVtZW50cy8xLjEvIiB4bWxuczpwbHVzPSJodHRwOi8vbnMudXNlcGx1cy5vcmcvbGRmL3htcC8xLjAvIiAgeG1sbnM6aXB0Y0V4dD0iaHR0cDovL2lwdGMub3JnL3N0ZC9JcHRjNHhtcEV4dC8yMDA4LTAyLTI5LyIgeG1sbnM6eG1wUmlnaHRzPSJodHRwOi8vbnMuYWRvYmUuY29tL3hhcC8xLjAvcmlnaHRzLyIgcGhvdG9zaG9wOkNyZWRpdD0iR2V0dHkgSW1hZ2VzIiBHZXR0eUltYWdlc0dJRlQ6QXNzZXRJRD0iMTQ4NzczNzg4NiIgeG1wUmlnaHRzOldlYlN0YXRlbWVudD0iaHR0cHM6Ly93d3cuaXN0b2NrcGhvdG8uY29tL2xlZ2FsL2xpY2Vuc2UtYWdyZWVtZW50P3V0bV9tZWRpdW09b3JnYW5pYyZhbXA7dXRtX3NvdXJjZT1nb29nbGUmYW1wO3V0bV9jYW1wYWlnbj1pcHRjdXJsIiBwbHVzOkRhdGFNaW5pbmc9Imh0dHA6Ly9ucy51c2VwbHVzLm9yZy9sZGYvdm9jYWIvRE1JLVBST0hJQklURUQtRVhDRVBUU0VBUkNIRU5HSU5FSU5ERVhJTkciID4KPGRjOmNyZWF0b3I+PHJkZjpTZXE+PHJkZjpsaT5za3luZXNoZXI8L3JkZjpsaT48L3JkZjpTZXE+PC9kYzpjcmVhdG9yPjxkYzpkZXNjcmlwdGlvbj48cmRmOkFsdD48cmRmOmxpIHhtbDpsYW5nPSJ4LWRlZmF1bHQiPlRlZW5hZ2UgZmVtYWxlIHN0dWRlbnQgdGFraW5nIG5vdGVzIHdoaWxlIHVzaW5nIGEgY29tcHV0ZXIgaW4gbGlicmFyeS48L3JkZjpsaT48L3JkZjpBbHQ+PC9kYzpkZXNjcmlwdGlvbj4KPHBsdXM6TGljZW5zb3I+PHJkZjpTZXE+PHJkZjpsaSByZGY6cGFyc2VUeXBlPSdSZXNvdXJjZSc+PHBsdXM6TGljZW5zb3JVUkw+aHR0cHM6Ly93d3cuaXN0b2NrcGhvdG8uY29tL3Bob3RvL2xpY2Vuc2UtZ20xNDg3NzM3ODg2LT91dG1fbWVkaXVtPW9yZ2FuaWMmYW1wO3V0bV9zb3VyY2U9Z29vZ2xlJmFtcDt1dG1fY2FtcGFpZ249aXB0Y3VybDwvcGx1czpMaWNlbnNvclVSTD48L3JkZjpsaT48L3JkZjpTZXE+PC9wbHVzOkxpY2Vuc29yPgoJCTwvcmRmOkRlc2NyaXB0aW9uPgoJPC9yZGY6UkRGPgo8L3g6eG1wbWV0YT4KPD94cGFja2V0IGVuZD0idyI/Pgr/7QCGUGhvdG9zaG9wIDMuMAA4QklNBAQAAAAAAGocAlAACXNreW5lc2hlchwCeABGVGVlbmFnZSBmZW1hbGUgc3R1ZGVudCB0YWtpbmcgbm90ZXMgd2hpbGUgdXNpbmcgYSBjb21wdXRlciBpbiBsaWJyYXJ5LhwCbgAMR2V0dHkgSW1hZ2Vz/9sAQwAFAwQEBAMFBAQEBQUFBgcMCAcHBwcPCwsJDBEPEhIRDxERExYcFxMUGhURERghGBodHR8fHxMXIiQiHiQcHh8e/9sAQwEFBQUHBgcOCAgOHhQRFB4eHh4eHh4eHh4eHh4eHh4eHh4eHh4eHh4eHh4eHh4eHh4eHh4eHh4eHh4eHh4eHh4e/8AAEQgDAAQAAwEiAAIRAQMRAf/EAB0AAAEFAQEBAQAAAAAAAAAAAAQBAgMFBgAHCAn/xABPEAABAwIEAwQIAgcFBgUDBAMBAAIDBBEFEiExBhNBIjJRYQcUIzNCUnGBFZEkNGKhscHRQ1NykvAIFmOCk+FEVKLS8SU1gxdFVXNksuL/xAAZAQADAQEBAAAAAAAAAAAAAAABAgMABAX/xAAtEQACAgICAgMBAAICAwACAwAAAQIRAyESMRNBBDJRIhRhM0IFI1JxgaHh8P/aAAwDAQACEQMRAD8A+OymlWU9M2TtDslV88bozlKdSTHcHEauXBcsA5T0PvAoFPQ+8CDGj2WtkxqlIUbe8oHVRW4hpOkp5iwhE19NI72ob2UGMqtFaOaX2ZoMOrczmiTYIuekZMx0zdAs1FNy1bUmIeyyHYpJRa6GVMa+FgueqEeLxH6q8ooYqmNw2KrsQpuRKWjZZMxTvFpQr6kH6OT5KjnLeYFeUn6p9k0weyhqPfPUTlNU++coXKl6Jk1L7xW7NmqqpPeBWoHYChkOjF9QPEx7MKtHeVtXtzR6KqIsU0OhMn2FK4J3RNCcVjeqemqcRjl3WQKI2GxUlP7xQkKam94swx7D3i8eyrpBaQq0YB1UFfThjLhJB+imRAiauBXKgidkokvukI1TU4FAYJh7iX4kkPcSqBVDk2TupQuk2CxhGdxBVA9oj29xQ8vNOPqnh2LkWiemHLhzIYnM9FVp5cGUIGM6qiJX6DIm9hMf3lJGbMTPiSthRBUbLoxaPMmym7w1TS6RAJwMiiF7uXEXelj0YkGpU5lMa0SxMzSBoWlw+Plwaqiw+O8oV/nywZQkZn2VONybhUbBftKxxQTSSHQoMRuHZLVWPRP2T0o2U0h0KbTjRdJdBvZnZH8aLi1YhDfOjIh2Ap5C2MQd5TxZSe0ofiUrDZTKt6D4I4vAKXls+QIKOqDFz61t0dkqLDlMtazULUR6Hsi6i9fbbomvrmkdFtmoAlBZIFcYebxj6KplkZIVJFViLZyo3aEUaZayGxC7FbGkNvlVVJXA9VHPX5mZCljFpjS6K6M2nRNRqxMEkQOZPNREU8rfoON8XYE8Ov3UscTtyESZ4xs1IapnQJot10JNJu7IZWPd2Q1Rch/yon1oDokNX5JuTJ8Y/oPyH/KpKWNzJRdONUT0SU8zjOLoO2gxUUy9i92F0ffSwe7C5g9ouP2dn4SOHiu5jbZcybU+7Kq2c6SUgFPjjyEyz4lgAwSZs3VESzMkjykquipKmSQDNujp8HqI6bm5inlFJ7YinyVIayWIAguT4qtjWFubTwVI8SiTIppKeRrMydx/2JyX4GOdT8wvBXGSnNrqsDHn4lNHCSdVuJuTCHyQg7BOEsPQKE0LyzRQvjfEcpW4o3JhvrEXgmuqI/lQJekLnLcDcmWklS0R5gEOa93RqF5vYylQkorGgc2Gvr3roqmWV+UKvVhhMeeVNwSBzkQ1EkokDXq7w83gCGxShIyvCKw8eyyqGauJXBfIld31IAT9Ux/eU0Z2XMzrRC/BqyY54ybJn+7uI2vmK2eBuzQZVaxi4LbbhWU9HFJbPLa3B6ynizm6pbT3LdV6ljkTn057Kx7IY7uaWKiyGqysp/WW0+ZshCV7qgx5zKVbUcTH3jI0KHrKblxkDVNyT0LTWyp5snV5/NNL3kbn80hDvlSWKJhMzvmKYT+0nWcmEOTAZ10hemkOTQxxKagD2G6cSua2yQhMC2I5NTrJCFgdB+A+/WikHsz9FncF/WFpXi8Z+i4c/wBjtwfQHo9ikxEewKdRC5KlqmNMZU7qRXuJmz9F1r/CrF8LEjImfKujkcvEr8h8E0sd4K0EbUhjYOiHIPEqi13ypMjj8KsXtbbZRgN+VNyBxATG5IY3I54URTcgOILyymmNyK6JCjyFoEdE6ygeEfJ3UFJumi7Fl0WoySDM3VMkia8We24UD4Zac54TceBU9PUsl7Luw5T62ilp6YHPSZAXR6oN411V6Y0LPTMl8imU/wBElj/CrU9D7wfVNngfEdRonUfvG/4lS7ROKalst022qkUa50dRbYZE2WkLHNvdZ7FaYRVDmt8VocKdkiDfNVfELAKku8VSBCfZSWT4zkOiauVREWmH17onixRtbOyqiuO8s8DY3CnjqXttqkcPwfkF1NLZgNrI6gH6MfonQVNPUUhEje1ZOoBaNzRslvRq3Zn6ke1d9VA5FVfv3/4kM8KvokyWk94FcM7qp6bSQK4Z3Ao5DoxdEVQbM1QE8bX6hHVg9mgBe/kmx9An2QkWTeqMEPNOm6jnpnxd5qcQGRe0SgY3VHPiHK3WMgCRSUx7ae+MWTIA0SLMyWyzHcQlTI+Tsor4EA+TJLrsp4+ykxnLcN1xCMfG2WLsn7oN4LX2eqdkzrJLapy5YYKg7iekh7icVAshLLpO6nJJO6sYRndXMLWvzFczQIWre6+iMVbFn0TVbuaQogAEJmeF3MPirUQ5IsA7TdcS35lX8x6cJHeKHEyki5w+khkIL3I6Wipbd8LNtqZYxYFP59Q74yjTNaLzkUgFrhIIaMG+YKhMs3VxTc8h+IocLMptGngko4yLOCK9eogNSFkhFKRfMU4Ru6uW4B5NGmkr8Ot3RdUtfUwuk9m1BvjdlTqSldMVuCRlJi+s+CQ1KbVwPgfqoCVuKM5P2TiZxkCtIvdBUsXvQrmn92FPKuimJ2L1XSaRld1T5Bdiiuy76K2SR4eVHzneKsqeASkt6pX4VknF9iulUcjbsqjM9JzX+K0ZwaOSC4VNX0LqdyZNMDbQIHPOmZP5UxZfKbJjNHhaPD2RyUZaWi6E3xND+mZkl17JLOVpV0LeYSGoKQZDlKMZKQXFrsjjic9Fso7s03UMD7PVnRm9kmRtLQ0ErAmUDzdCyQOjkylaiBo1aqnGIsslx1QhO3s0opFZyrpX09hop6WPmPylHmmyhO5ULxTKKzg6xU1OPahE1sQBzBDQe+CN2jVTNDS+7CUDtp1GPZBcR7T7ri9nb6Qs4vGVX0elbl81ZS9wqqvkrA7zVsHsj8hdGlEWSz/NWtQGyYe76IKL2tMD5I6j9pBl8kmR+xMX4YmpjtUO7OqsIKf1imd9EzFYCyrKLwQbgp02UmtFBKx0UmQ9ETBrZOxyLJU6KOkOgVG7RBFtSBroxdA4xDa5Yi6XupmIi7EkXTCyhsmkOUx7yRW5CkNkhCnUZRMyO1yrnh+LNIPqqjqtBw3H22oSehV2H4zG5sVv2ULQe7RXEElo8qEw/uLmyfU6cL/omd3k+IXsmyBPi6eK5jrNPgYcIxZX9MxxNiqjAA19OrmC7JPJOujjkv6AsUp7sIssJWxcqrc3ZeoTxtcLlqwHFkPKrMwTQd6N0VNJ7Oot0upqyPdCgO54OZH1BzRD6Kj0BIoZY2h57KjyN8FNV+8KhumQxE8AHuqOUaaNUj9XqKZFE2QlOjCQC5UgbZVsUa9NTnhNcigDCmuTikKYAZg360tTb2ayuEaVYWsYLxri+R9js+P9QaiHbcppx7MqKkFpSp5x7MqHsv6KeQ6lIwp025TWLoOYe1IUl06k5UtW2Jx0K1WCyF6YrLG6E0cgb0OqqiijCPURUjvNROTCvoS+iQpW91Nd3kRTn91ByjVFnuoWTvKkBWWhCgnpmS9ruu8QiiE0BRTaLNWBxzTUz8kvbb4ouMsmZdhC57AXi+ygkpXMOendlPgjaYtNEskYIylt0KaVrJA5nip4KrXJM3I9TPjaRcLW0akxOib1Ttk0d4rBD6K/I+6DxsXlbfqrHCheOx2uhuI4sga4KkGRk9lRLQOZHn8UHJG+MC60LRzaRtzsqyviPL+idMVorguKRqU91EUmglLPorWiq2sYR4qmbsnse5iVxTHTJKnMZSfFDPRYkbILFQTx2TXoWS9nUmsgVyzuBU1L7wK6YOwFHIWxdEdSLxqolLmvVtWOyRXVTI7mFNj6EydktBUcuoaSdFd1AhqouzbNbZZs95TwTyN+JUJ2zqiMxSWGymke7kIimyTn2hsUtdC0dmPZBjorS51k6n94myaaJ1MPaLMHstbezKqKr3hVuPdqqqB7VTgVy9ElFM6N+U7ImsayRlxuggFIHO0BcqMmujmB3VIe8iIw22qbK1qWxiWHuJ6jpx2FIVJ9lo9HLpNly53dQ9mEZ3VHJG0v1UjO6klNrORT2aW0Rz04LA5iCEJEmuys433Ymzt8FSMn0QlFA8tNePRDhmQ5SrOn1Zb7IOtiySFMpboFKrQww5xolpw0PyFS07rsyqOUZZM4Tf6M17DPVg8XQU8fLk0RtPNcd5R1YDhdKvwzRJTkOjUUjcj8qipJMr7FFz6szbrdM3YOQnUc3KnHgku2yieRfRNVgLevhbUwZxuqCRuUlpV7hdQ18eR6ExWmyPzhuiSLp0xpK9lbHpIFc0/uwqdnfarml92EubobAL1Uj+4U0jVOf3CoI6PQmHm06uavWJr/AAVDTG1QFoIw2SmLfJXONktAc7CxVmOxdguVhh728zLm8l2MxtdCeytH7GfVmJPeV3gUlwAVVTtySlE4TLy6gNVJq0CLpltVxWfsqPEYshLgtPWMzxh4VLiEV47rmg6Z0yVopmaFWdA/UIDIflRNHm08l0SVoinTL6M7ILHI7x38EVT9zVPrY2y0x+i54umVkrM5TOtIFbu1jDlTEOjlVxTHNEFeZKwSvbdmZV8Y9qFZ1o9mqxmko+q0Ogy7NDRn2QSnV/3SUQ9gFIR21ye2di6Q6UezVJUaVCvpGeyKo6mNxmLg1VwdkfkejVYM8Pow0nXZW2Fiz8h8VmMDlLBYq/ppcsqOVaZHG9gfEtPy5M6r8OdlnDVfcQWlguPBZyBr2Sh1kmN3EvIXiSK9iGqpprhaTEGtmp+7qqbkuDzYKqeqI0GUZupK2O8Gm6hprxsF2qd55kZaltWGjPyDtlJZGy0jzIbLhQvI1VOSF4sATHKy9QcmuoPFyPNG4srWDMVr+GKe3a8lSR0DGHvK3w6rbRA9pLOdqkBQdi8RntobDNQlxWpinOYFJhZuNNVKbuBbEqmFSDQLohoE+QaBIwWC5jrNVw9I0RakBXzJYbAl4Xmz8TfS3AKHfxJMNM5VFBtHLNpM9Rkq4uX3wsfxeRIczHBZl/Ec5+NQT4y+bsvN06xyQtr9DDqwEN1UnNcYgOqqRiFk04jbZNxkblEIqI3vfmUJieoziDz0THVz+rUyjIHKJJyHlyR9K8qF9bKPhTo6qZ2ybjIHKJNHQPUnqDurlDHVzOOQbqeUVkcQke3RapLRrVWN9Q7XeXeoM+ZMgfUTbFDzVEsTy0k3RSka4hXqEfVya+kpwD2ggDUvPxldKJeXfMU3GXtiuUfSC6FrGVostVGOwFi8LJ9cbqtrD7oLl+SqaOn4rtA1MP0goicezcoYBapKIqG2p5HeSg+0dC6KCU9sqO6iY8uqHDzTKkua8BdnFnDyTHy1DQ3KFBHM5sokvsbqCpDh2ioZHks0VIwQkpX2bPFauKvwqJ7e8waqguncPy82KSFztUx8biZBtZSSptFLXFMS99lG9RxPyThrkRilO+NglZsVTgT52QBI9LhOR9W1kuxPVaTHMCbFSNqYNWnXRLJ8XTCtmZPdUBZdytaehdMBbRJjGGvpYGyjupovYr0VVNXvZZknaCsopIpRmjKoUscj4zmY6yLgmCORrsvHd9qlBsq2OvDizmbjqj43Mk7QddSlFrsvGSfR0kTJh2wEORPSns9uNGJd9CgmFxIY5Y5hpofBdlc26SelBOePsOUbKh8ZyTt+6Zb6Btdlhh9SISARpdTY5klp87TdBWa8XYbhMfnyFl9EU6FlCwjDPaU5YOiHnjz5mZdVLhZ5chYeqlqBaUu6FPZLrRm5YnRvNwo9wravjuC5VYGpanjKwONHN2XJxjcLLgzREOxp0KfHL8L9UwjVNIWFugiLLz9FcR+6VJTDthXUfuwo5S+LaIMQ9wqbZXdYLwKreOwnxbQmVbIbXTxoEsZadFK+PTME5MhjcQ/QmyuKCSKSMtk1KpuqcJDHqwrMyJq+NonOTZR03vAuY/Me2nxhol0QfQ8SzYPZqrqB7RWsY7CElpnPfmyqWN0yk+gLonKd9K8KF4cFWyY6N1ipj2whk4OcEGrCGwDRKm05uxO+JQfZaPQgSvGi5KR2FhhjO6oqjYqdgUVQEY9iy6OpiibXYhaYIths/KdimfZPtENOctRlPVS4hDePOFDU9l4cNwiBJzIspTP9Fj+FQDy3qSU5m5lJJSvkk7IUgoKi2rE6YrIKZyJLS9iYKCZr+6rCnpZLC4QbMnqinlFnounfmjyoqfDJZDon0eEVDXi50WbTRlZXSxuD/IqIxO/Jac4VcauCArKZkJ3CCmBxdlZAHwyBytnhtTT+Jsg3hrx0T6aRsQILkJO9jpNaKuSMxz5VaUnukNVZJJMwRVNYMS5HaGxKmPfunOHYKR6XooHQBxG04V9SSN5VsypJJIo5E9lc1mzl0HK4otIJMlR91YVbmSQHtLN+vC+bqpBiRcQ26G7sySqgTEIjzzZQ07XslDsqsp3WGchCess+VPyYOC/S/gkz0gB3CBqGXBCB9feBoo31rrKXjdlVJUOMNybDdEUkeU6oMVZXCrfdNxkLaLW9rWKkEzeXlLlRuqXn4lHzpDsh4mF5EFT04fKXZtEVAGRs1eqoSy3Uhc+3eVKYnJFhOYnjUoExRCQOBUBz/MlY05xdZQozlZoKMWiCe8e0TKDWLKpHj2i432di+qCHj2aAlMIfqrA5iz7KmrGuMuifF2TzOlYZFNDEdESMRY3VUvKeuMbrro8aZz8mXUmKZxlKbFVNkNmsuVUiN1lb8MMaa0NkFwg8aStA8kh0ks9svJKg/SL/AKuV6OcPpDG1/LGyiloKYa8pqjzX4U2eevirHjSErmUtfl906wXo0NJT5PdBOjpoyD7MWW8n+jK2eV1FRJC+0mhTPXX5MwV9xhh4FSXNbZUkVLePKVaKi1ZNyd0QCqlkOjk180g3JR9JR5SeyoJ4by5bZUbQUmwLnyk6OSPdN5o4YZL3wlfT5CGvCbXoXfsrCXkakq5wI3j81FUUgERcFLgY1UsruBXEqmi0k7qSPZSzdxMiFwuP0doM+nZLVhjuqAx/DOTK3l9Qj6hxjq4n/tI/GGZ4YZbbHVdMJNJM45pWzHiieO+CCUczAql8XNiaSALlaSppYjSCYMG11f8ACAhlgMLwHjZVeRuPJHP1PiYN+DufSZmN7Q3QcGEySRl2t16DiNMylxEsy9k6KpLBDUljG6FBT0NVGNih5cobI1WFXSRPpw9jdVNjMPLnJH1TqT2lMWppPpmivQFHTMki7oupoKZjWFuVNpzkkLPBFx7m61uwNfzZXsitUB4aj6yqdyMmS+m64Bg3CMosL9fJDNx0QyfzUmPhfKLiVuCG1QQeqEx2ld6zorB9K+gxPlO0TsfabB4RvdoCXLsoY6F/Lzp7w3kFF08p5BYUMMuRwKZSbNKKT0D4fpWNW2pxeBv0WJpNKxv1W4pPcM/wrl+V2jp+KtMgjH6Z90XKzNFI3rZDAfpn3VjAy8gaepXK30dK6MO/NDiDgeq6v1s4I/jGkdSVrZA3QqsEvNisvRTtJnm9Soie4SAA7dUdW4U6OjbUxDslACPsl3gtVw5I2twiSmfYkBFy4qzVboyuFS8ivHgdFd1Ebef5PCpMUidBWHpqruN/PoI5huxTy+pIrhp3FlRVwvinzHZXEQbVYUW95zEeMNbX0BlY3tAXVfg55NQ6nk+iMcnNEpwcHsz055U4I0IK9I4SrYsQww0stibLB47TcurPgdVLwpib6DE47u7N00484gTp2XdfC7DcQdCRZpOikmy1VI6J2queK6cV1JHWRN1tdZ2il1DVGEv0tJWrRi1xXLl1nKcpYZ3xOzNKiXLNWbouKSuZJpJoUaLEXDlmkXTVcsR3zBReP8Lxy/pdg+KR7GSMsW3UNPVRzDvWciApU0XTsEfDLCc8LrjwT46hknZf2HInoopadkna7rvFFO+xaro6xYcwTnyOO6HD5YDaTVqmYWSDMw/ZFWgNJkdQ27CqeQWkKu3t6KrrIXB5dl0VMbJ5FpDTrEHJiki1jso06F7Iz3kgGqc/dddMAkg0kDVcw+7CpIDeUK7i9yFHKVxdEdWLxGyqHh17FqvCWga7KKSOGQXFkMcqBkVlKYyDoiWF3L1bqpJY8hJDdFB6w0Huro7IdDDG66a6Mk91SMlBepeYEBlsHbE4JYQeaFI+WyjideULMPsuo+4EwyWflSxn2YVfVy2kXPDsrkWiwzseNXIWsiaO0oY+aTcKSd5eyyq1RNfgOEjkqRywQum7ieoqXuqdRl2Wj0NT3dxNAT3d1AYYwKOoIAUzEJX91GHYs3SEbUAJ3rIQUEb5HZQppKWVm6vxRBTZM+pDknrNtkMY3BII3nZHijcmWlHiDItxcoiTGR0YqmnpXvflLSin4e64ahxQG2yb8Xv8Kb+MPGwXfhXss6r5IckuVFUzO0WbMWm6NSPxioUNNCz80SMLMva6IfybZA/F6s9ULPWzSHtlTVFNyiWoZ8TidEaRnaFY57+q4mXrdS07Mh12RJjHyoXToNasr7PuL3VrRe7UMsbbKejGinkdopi7JHd5OtdiR/eUg7qgy5XGnMs+VMqKXloqQuikDhskqDm7S6Yt0csuwMQuOgSCJ8cgKJgNpAiaht48ybkKEiJs1J52VMadwlyeauMLl15RUGJx5J842KEXujPor56V7BonRUrpArani50VykMfKktl0SynWh4xXZWmhIKSOnaX5SrwxZ49GquqIyH3CHNsfikRmhaGZk2nhY2oynYqxgN2C+yiqYrC4+qaMvTJyjWxlZRMAD2NQUsVhormnLZoEDPHleWopiFaQ5KwOMgU5j1TmBrCPFNYS2oB7NSO94loA4xhyllj9ouF9nfH6IW12ICeGUvzBhKtALMCmiDztHdNieyebop46Wof/ZJX0NSbezWkiZPpaFTZKk7U6unRyt2ZP1GpB7iLwaGWLEGufor+WlqiPdKKCinbUNe9nVNytC0bKnjbJTRu8lK+naY75UuFxuNG26KERI1XC3TOiwCKHduqlp4hnyolkKdHC3mLWYx3GtI0OzBZFkXbXovGlM71bP4Lz29pF043cSMvsOAtIGoevjs8PARN7kFPxCFwgzhuiG7LL9EovaRWzITEY3MN1LhZcTZTV8Ze09lPFi5VsEh9rTEFMwuPLL906jPLeWFFUzW8zT5kmR0mNi20TSjsd1Pp2djMnSNuEsTfBcvo7PYBirbWcOis8ranB81tQhcVi9hmyqx4YDZ8Pkj62Vk//Wmc0tZWhtNabDHMO4CThCr9WxT1cu3Kbhw5dXNTlyrXl1Fjsb9hmV8W7icmZbUjc8X0/u6hrd9VjqwvFZG8nQrfVsjK3A2uOpAWFxQWGm7Ckx/g8v0hxylvG2Xoq/C2tBLLrQyRtqsIzdbLN0+aKr8lRbi0KnUkyKoi5VafNSyC0gI6onFGgubME2QNMTSsnaTGa20DSmyveDKi1a1viqSoHs7qfhyblV7PJybKuWNoTA+OQuONaTlV8dQG6FVWKRtloGvC1PG72SYbG/S9rrJxytkosqljdwRXqZVUzdSEK8Wkc1Hxi0+iFla71k9kqiNk7AoNKtv1W6of1Zn+FYYhwq29nqtxhxvSRuUPldIt8T2NeLVQVjELEO6XQEjP0kKxePZ6b2XHL0daXYB6Q6RsuFxVLeiwdG/XKtni8s9TRupzc+CyTKGoZLt1Xo4mlCmzzZxfO0KNHkHqjuFqp1NinKLtHqGWmkyZlPgeE1NbiEbonZSw3RUk1TNKL7RJxrScufmBuh1QOATPkY6AbL0DGeGKmroGh/etZUuDcJ1FDWiRztL9UiknCma6naCuEpeVOaaXr0VbxLS+pYznY2weVp34Dy69lTHJr1S45hMVcGOfKMw81PH/ADKymRqSMPjsTZqQTDcLNvOV4eNwvUhw3CaflunZb6qu/wBzqAE5pxZdEciRGm0O4PxOOtww0szxmAtqgZ6X1bEy0d150V1TYNhGHxF8c7A4earfWqeeoyF2cg2uoyq7RSDpUzzxcUtlzl2tHKIUgSlcgE5ddcusgYUPcDcHVWFJiBZ2ZdQq6yWyEoqWmNGbi9GjilZKMzXJwKzsUz4jdhVnSV4ksJG6qDxtdHRDKnosbB/Zy3Q8tM5hzxOt5Ipg2KU95TspVgcdR0lbYqWSNrmeITpIWS77+KGIlpj4tTafQr/2QGmsTZCyNLH6q3YWSbb+CinhD/h18U6m09iuH4U791GUXUUz2lDlmqsnZCSYtP7wK9i9yFRwe8CvYfdBSzFcHRFVm0BsqyKZ4eraoF4iqiRoF0cS0bJ2HMe2QaoeopL9pqhilLN9kXFLnt1T00ydJlfy3RvylSMF0TVtF0yAao3oCVEUkVgkgb7RTy+CSMaha9BrZZRe7VVWj2qtoBeNVdePaqMPsWn0PppAxmV6nkY2QaboP4EsErmO8QqskOfGRvooyjZSHRoN4sgmEJpNlM7dQ0h0U3VRl2Wj0cld3Elk49xKMNjG6GrdkVHrdDV+yaH3FydDsLAEiOr26fZV2He8CscRNohZVl9iMeiskF1LRgczKRuogLjMU6I2kBRv0Z9FtFG0W02Rc8YLA8KKLttHmi4xnislsUGjk7BYqTEWFkv3VxbLIhMUiuLorQXtAUEi0mDv5kYWTFw9aDA5shDSjNaBHsbjkGR+YBVYFj3VqcYiEkQePBUL4eweypqWiiVghFipt2BNkCewdiyawLoR4vGpKYWTOilgFjqkn0Ni7HO76kZ3VG/vKWMaKTOgHrRpcKNjc0f2RNSLxplPG7lfRWg9HNkWwSPRHsGeP6hBgdsoum7mvRMxURMBjlDgjquNs1Pm6qB41KJo5LjIULoDRHhkoZ2D9FNVx3Fwq+uaYZ84R9NJzYu2lyL/ALD436G001gAU2paHgkJC2z06nOe7CtoG1KiGnfbsFFGPNHp0QdRHypMwci6eTsBB32h2rIac8mexd2Ciq2m5kYkahquNx1CscLfzqcseqXeyNU6KR8droe1n5lcVtLZx0Ve+IgpkwUW2GkcpPl76bhkfs0RI0B4uuOX2O+H0Q6NriweCnirmU1gQubbliyrMSikJ7K2NJsXK6iXQx+JgygBceIvBizPq0ykjpZtF0cYnJs0R4gJ6KM46S9rcvVV9HhdRUnKxGf7uVVw4my1QN/Rv+Hp2T0WbqrDmNBNyqHhuI01PynOVk9oJJuLLlktlIvQSJWeKeJmCRV/LHezhSRtYDrMEEkETijJLh7reC8pqOzUEdLr1yWOmliLJJmWKyuP4HQRgyxvF91bFJR0xJRbMqLZFaxtZLQFpQTBANLqcTxxCw2RlsePVMraaPlVBGXqrCYDlqN8sJeXCyY+uiAyrKxptNbZWVMZZJmARWHnO8JlXVREd1NwqTPJlCM7cWLjpSSRbvbon04sleNF0Wm64/R3eyLEY89ObNTeFpTTSOZJoCmYvOYYtNQqQYk++ZmhXTji3CjkzNKdl9U3jxfmt2KGxiF008crDqqh+JyE5junjEJnKsYyi9EZOMlTNtg9dbDjBK7W3iqerDTK5pc0gqjNdNbRxTfWak73W4O7NcaNBQScqMxF2iBqaRhlzscN1Wc6pHaCmovWquTIw6o8ZLYLj+BssLJIsheuZDCI8peqzEBVU0uRxS0EU9XKIw/dbi67DyV9Fi+OHJlLlDAIYZQ8OCCxGnqKWTI9xKGjEhJveyKTrs3KKfRpK/E4aqmEMjvzVdHJTxx5VWct5OXVNkDhulWKujPJu6D3y04fpYFJJPBo4tCq5BqFwDshTrGZ5WPqzDJO0t8VsMLj/Q23WHZ74f4lvMKH6E3Vc/yVUUdHxn/TGVAtO0o+3Y+yEqw7mNVlHHeMO8lxSekdS9mPxWtfDUkM0VdJXO+UIzieB/rhcNlTvhleF6EIxcUzinJ8mSyVzyi8HxibD6jnRu/JVL6d7DrdLkPgUzjEFv2a6p44rJBlyn81XS8V1rzp/FUBDr91Nyu8FlFCMu5OJMQeMudTR1WNT0bqlrzywqDK8juqzw7F5qOkdTZM4O10Wvw2iJ+M4laxqCEZhDMRxMSEVjxkHiqR4L5CT1U9BV1NC8mE2v0TNa0KhKuWqbK6KSZ9x5q34ILHYoBIzOT4qjlMk0plkN3HVb30H4fDXcUiKZt7LSpR2BnmK491OSFdBAQ91Il+FIgzCN3Uij6qVBjI4BKRolYFx1QGobZPph7QJikpveIMKVM0UXdaleli921OkF1xnYuiMfMlOo12QVRV+rzgFuiKgmZKzRyZxaVgUk9EUlN8cTrFMZMR2JQix4JskTJBYt+6yf6bj+ET2MkZmGoQdRSN6KZ0ckBzDVqeyVjt9CmtraFdPTKkRvjk1VzBrEE2SFp7WVSRjKzKtOXJGhDixsnuyqio3KuH+7cqac9sqmEnkRA9PgLgUx/eUsAVSPsJLs+hT2R2GYIR57aLilsyxSNfg6Ind9KBYhS5Wu1CjfoQsnoxYQ9xqrsQHtVZU/uwgcQHbU4fYrNfyDW9motip/gUdlYiOjkNtdk99iFFZLslYy0FUg0RB7yHoyiHKE+y0ehqd8C5qdbsIDDGd5Q1o7CnaoqtjixNF1IE/qQUGkgVnWi8QVVAHMkCsp5GviDcyrN7IRWgKwyFQX9plU+VR8vth2ZZOmF9FrQS+wHiFY0bhfvboLCKdjhlLt0cIY43e9SsWmQ1gtJcKOePmU/0RjxC7d6denYy2cLBRl3xuElsqsMPztLSGuVuyGhJuSFNH+HReCZyAkPuZaYgtVXJHYkFXDMSoIxl0VNiOIQOkLm21U9j6ApW6lNGa641LCm+ssCYFL9Fb3lPGhJKodERSP5gzJZp0Pj7JJNwpY+6mSDVSx91SZdDKgXZooYM4BBTauV7Do1C+tvurQTrRCbV7CxEeZdSxtcHlACpeVa4YznWu4LTbirYsEpaQzl6h110YyyDVOxSGSC9lV86XvaoRuStDSSi6Zb1YZKzdNpmNjvqqqOV7zlzIsslEea6NPoW1dlj7J57yaGMjNw5V0RJI1KMfC4MvnQ40ZysfJy5LXcE+MRN+JV2t+8phtujxDzLDmQ2T4JoonabKtS200RUaF5FpLVRvJ0QkskbzoFAwa6pX5QdUVGheTLjDgCzZSyxXIUOF3LEe8bLknqR2w+pFFH7NBV8mQq2ZqzbRM/C3Vd7IY2uWxct8dFIKnyTvWnW7qvpMBayA6ahZ+pgfFIWEbLpqLOZSYRR4nNTnMxGycQVJCpQ1ycWGy1IOyy/HaoHRyccfrCLXKqHMckActS/BaLs4niBizhxt9UD+PV+cjPlUDKuVkeTLogH3L8xRSCzRR1tfLAZBN+9VlTiVU55ZJIVFFUSxx2GoQ0wcSSdyslQGyXOfFdzHWTI2X3T+W0JtCjRLofFROddSGLwTHx6IoG/ZC8uyo3ANZ9UFP2GIzAHtNQhkX8MfH9kah7NLpkYudFMR2E2IarzL0emBYrA18Jb5Khho7ktstPiYyxgqmzZHhwXZ8eX8nD8hLkDigaTspvUGCPMN0Yw3BSlze6rciSSBKeCIjMbaKcxxDYKAPaJS3xRMYu3VawJEeRhBbZRU2enqM8alNmS28U5gbnKBqIcXD6o5yy1lDRRyx2fH3grhgbJFYgX2UETGxT67FZS1Rmt2Q18b6yMFzbZAhoKNxYfEK5ADSW9EjG8qW/Qpeb6DxT7KWekeyzztdQ4jTeyDwr2pGYFgCrZO3E6I7hMpGcUjPkOKlZH7PVKRkkN03NfZVEI2AZxfxW4wcXom2WJd3gt5w8Gmgb2Vy/L+qOn432OrG3e0+CsY78gfRQVsdspDUXEy8Q+i4H0dpk8fjvKqxjG27qvuIImiTRUoNiWrqx/UlJqwasjaRmUMELXkoqY3GVdRN7ZVEJKmBvhA+FRmFt9lbVELQ7RDmPVOmTaAuU22yaY/wBlH5G+Cje1qNigPL7S50aJIbdNIaUwjIBGt16D5eTxrE0ndqxmi0nowm5PGlI7xK0lcWIzz17HNOV7SCo3LXvpqLEGB0ZYSfzVTieCSw3fE7OPBVjmT09E3Bropj3UillifFbmAtuolRioRu6mAUQUzUGMhToEick2Cww0p1IfaJj0+k76VmT2aWD3bfonyplPrG36KSbzXH7OzsosZ98EFFK+M5mlG4z74IALrgrijkn9mWtHXtfpIrFj2u7QddZrZT09XLEe9opyxfhWOSuzRbhCVFMO8zQpKatZIB2tUS8tLFLaZXUgKOSWM2k1U4IcOx+SeY2kahDvifGbsctaZqolLTyyFVywkPLlZRy/C/dLJG14TRlxYko8kUxiT42tAU1XTvYdEMM+xXQmmiFNDiBnTyG/ModbpTcNRMERSZd9k+SRjyLIE5ksZPMCDjYbLul9yELWgXuiqX3IQte9t8pXPHsvL6gxLbJvRIRdOs4NViIgTHp4TXpRgmhRB7yGot0WVKfZSPQ2yk6KP4lI3upWMMb3lFWOcI1M3dQV49mmj9kafRXCZ91Lzn2UEepRAj0XS6OVNic16QyOTSxwK6yNINsIgqpY9nJz62oPxocNKcI3FDRthIkmIzZ1C+omzd8pbvy5VGY3IIAUOaY83MKFkllv3yn9u1kwxoozI+Y87lyUZy7qnxQuc8NCvqPD4hAXuCEppBUWyhAeU4NcVY1ETWPLQFAdCinYGqBeWVYYeHAJkUeYlyLgDRZTyvQ+L7WPeNU9g0THqWMaZlzHV7CIqSKoABamz4TGBcWVphcOaMFOqWuY4grKbROUUzJVNPyn6KTD5jDIrGvgvdyq3syvXSnyVHPuLs0ZayrgDjuEJU4fEIzZuqZhFTY5CVZytuPIrktwlR10skbMsYXNkUoMtrFWFfT2GYboMd1dSdo5WqGMYdERd9rZkxneUwWbMkNZEpBDc7p0amCFhIjC0bphjb0U5NwmORsQiIsonlTPTCAUyMWuDHRWjxoFV4ULWsrF52XHk+x24/oTxg5FZYRJy35fFVsBuxGUkjQ9pGlkkewZXUS6lOcZll8bpmCUuC1TAJINAqPGG3GqvBnK3uzM5NVKIxbVLI3I8tXXsEzbKIhkjaNlE9lvhU5KjkW2EGda2qgl0fop5Ah3d9MIx7PNOIBTbaJLrGEJskzJH5im/CnQrJC/qEhOijBsUsjwB4IoUgnNzlROBaVVvNV8klno3A5W+thGf1Ycb/pG0t2PLKmR2D1Lf2Qt4KBnfXkro9VkOLm9OVQc7OPMK9xTMYNN1lnh4kLV2fG+pxfJ+wd604DQqL15xJQrA4khOELr6Loo5xZapwfmUsdY/q7RCy070+niJAWowW+Z72eakpKgmQZ/omsh072q6Bm4OhW7QPZcQH2gHQp1XHp5qCnfdjXdQj5w2SNrxuQovTKLYKzM6MP6jdSveOV5hQMe6OQsOxTrEg9nMs0ZCtcHx3HRAVEdpxL4qeMPEuXKbFPMN2uaWm6KdMzVlBisLhKCNihGDIFeV8MktPlDNQqiOiqCdQqxkq2I4tER0Oi3fDRBoAsTPSzNGYrY8Jh3qYuo/KpwLfGvkW1SPZtKniF4goq/SMNRNJ7kXXnvo7V2ZviC4qFSSx2OZafHYRJJvZBx4fG9ur10QklElJXIzso1XU5yvVviFFDGAc6BfDCLHOqJ2JRJLZ40QbxqUWHQAWL0ySSm+YJk6FasFd3VHIi+dSDctSGek8RZFN/gGivI1SFrs2xRvrVGD0XGvox4Jrf4Jx/2BZXfK5WfBxfFxXQvAPvAhjidIPhaj+F8TpjxDRWA98Ed/grSrsxEUssTw6N5YfJW9NjcuQMqW5x4qlTvhXQ4p9k7aNFJ6nXzxNbqOXqhKzh6bI6Sm7YHRVxLmxxOa4g23Vjh2PVNIbHtt81NxlH6g17KSWKSJ+WRjgQng7K7q6qkxCra4sAvumYjhcTWGSF2l7JlP9Dx/CnumvzWUkkT2bhMTgGHMp6XvKMi6fSd9YVdmnpheJv0Tp02k0ib9E+e6432dy6KLGR7RqAYFZ4wO21V50C6cf1RzTX9DHpqUrk5MfFmBuHI2Ctc2zXoNmi4oNJ9jxdF7BMyQaO1U6z0cj49QUdSV/R6hLE10WjkT7D5IQfIqKz41PFKxw0KlytIKnbKUvQN2ZBqh6ilFtGoySH4mpoNuyWop/grV9lLJG+N+rU06q4lhZJsg56Yi9leORMlKDXQCU2P3gUkrLHVqjj94FQn7Lym90AgcU7yOpPdBB4nvmXND7F5fUFppPaAOVjLCx0WZm6qCiqeoLBlOyu0ROe1zDqmFWcQZMwoOph5Z8ki7HEot0Y/vIWh76LIUp9lYdDApGbJqezupWMhg76irReJTdVDWe7Rj2CXRUsGqKiKGb3iiYV1Po5UPITCNVI5Md3kEYUDxUg0Ubdk5qVjDk06LiU16xhSUlipYIs3a6ImKDmSBoWbMSYRSuL7lWlZKI48gSMApoB4lCPzVEoaFLt2x/qgfWQlxXRUpkPdVo+mEcQbl1RlFTDl3LU3kpaNxT7KZ8PJiJKgpjmerHHcrRkCrqAIN3GwxpTpBT0+PupHp0Y0US/s0OAagNUuLxlnayquwapET7OcrTFJmSxab2QoR9lDOM4zKrqY91ajUkFC1EbVaJGeyup3ObICtHRyc6LvahZ6SOz9FY4XKYyGlbNC1Y2GdOiyli5gIsqarpnwyHwWhzNHbFrIPEAJY77FSwz9FcsPZSjopwEyNjg8tUlneCuznQ+PvKYd1RsY75V1n3WRmOTH6BSGN9tkjonn4VrQKBrpt7Kc071Gad4+JMmCmWeEG9lZSDRVeECxVrIbBcmT7HZi+g+nGhShzhIuptQV0rmRm5dZLD7Gy7iaDDKlpiDSgcYbo62yrWYkyNmhSz4pHLHlc7VXqpWclNorKjxHRQkol8sBv2hqoWSQ5+07RFuykUNOoULw5aGkmwwRjmZPumVNXhgJsGIK/wANaM2WP+UqExvJ7hWgfXYcBoGIb8Sog/RoTb/BWyu5MuTuOUZpqnP7l7vsrlmLUbfhapxxFQRsylgW3+AtFA+kqQzOYXgKHlvOwKvaviSkkjIYwKlkxBheXAaJv6/Dfz+jGU0pPdTJ6Sa2yIZiWVuZDz4rb4UVyA1F+wF9FNcuyonB43RVYuon4iSD2UuF1Ln1gujJy4uwR42qN2w+yHhZRs76bE+8Tfolj96vMPTGV7LwLPyU7TIXXWjxQu9Tc7qsJPVSCdwzdV0/GUmjm+Q4pluYYwbhyceWBvqqE1sp3JTDVSX0cV1cJfpz84mgHJ6uCkj9XBPaFlmRUTE94qVk0nzIeN/pvIvw1DJYA3VwXc2mBzghZYyvJ3KcHSk6OJW8V+zKa/DUxVUDX7gqd+JwsAFwskxzw8XurXBsLmxWrEDXFt0HjXsHMtZMTgOumiYzFYc+tlX4zgVXQVHKLTbzVdLDNFbO1ZY4s3NmgkxSO+ignxlgOm6qCHhl01lNLIRZu6Piibyss/xUcsnKoPxdwOjFE+gmhHtW6IWSKz0yxxA8kiapxN0vZyLY8GyA0Wu9lghFd5utxwWL0x8lH5MUseivx23PZdVpcYx9VPTH2DVFVxu5WnipqNvsBcLzn0d3spOJZHR9xUXrU/wErWV9KyoqAx+yK4f4airfWLHueS7MMoqGzizJ8tHnOJ1s5j1eVVMqKiQZQ8rT8R4YY6ySmG4NlU0FAY5HCRuy64qNHPbKqV1Qw6l5UJlmedM7l6HwJgsOK4jJDMG2A6hEVPDVNRY3LCQC36JJZVHVDxi37PNAKh+zXlPZHU21Y9ehvwujhrMmTQogYZQklmTUpX8hL0OsT/TzSSKojZndGQ0qMlxXqGP4PSR4QHiLVZmPAopaTmjxVIZFJWSkmjIkuVjw04sx6iP/ABgj8bwdtGI+z30uE0TYqykm8JGfxReWKRljk1Zmk5qamkqgLCZD7CL7qBPef0aP6qAlEVslYSO0HImOumDMj33CCuuulaTNyZbRzxSDK9MkpWSNzR7qtD1LHUvYdHIcWuh1P9Hy08sfwplL7xFxVrHDLI1QsymoLmLK62GlejRU2sDVJMo6T3DFPILrk9nUuikxgatVZIrfGNLKoJuV04/qc+TsbZOY1cFIwKgiEAulIsns7y6RCzEdkwiynYOwmkarWY6CpfERrorSjrw/R6pyxI8W2QlBSHU3E1THhwu1Mkja76quweR7hlLlaDvLlkuLo6ItSQIWujTwWu7JCJs2ygkh6tWs1UDVNKHsuFVyU745FdXLDlK58bJdeqoptCSin0RUnughcTVgxmVBYkLhCLuQZajRVp7NkmUp8bdF0t0c6JIJXxPuFM+XmbqABdZTdWMgiky59EW5B0Z9ojXqM+y0OhoCewaJvxJ7AkHI+qirPcqY95R1AvHrsiuxX0UrfelGRDQJgjYH9FMCwLqbOZROcmEEqbMxTUhhMva2S3RqBWNf4FP5b/ArSM9QEQvZRGWhB6IWFlBy5D8BToqaVz+6Vees0PyhLHXULD3QjbNS/Su5UjGZQxWGHUr7ZyER+J0IHdYpGY7RxiwyJGnQU0CV7JtdNFDhzhG/O9TYljlPLFljAVC+sdnNtkVF0ZyRoZKgSSjtaBHMq2MZYOCyDKt9041bz8SzxthU0iyxWTnSHtKGjFlXOqXn4kZhkjiVpRqJoSuRYvGifGufqE6MaLnOn2RmQRPzEoj8SYWZbqtxUHoqtherQxqSshOfF0aD1tmdNNTE/qqW7/NKwv8ANOsdCObLe8RUkUsLDmVQC/5lzi4eKLjYqnRfGvAZYOUfrjX7qlD3EJ8ZJPVKsSHeWTLPnxfdOFSzwVcA4qaON5HdTeNCc2G+ttA0URrm3Q/Keo+S+6ygjObD/XtEw1rkFynri12wRUUDkws1r7KF9U8pmVw3CjePBHigcmy6waTOQrt+yz2B5g9aI9z6LizakduF/wADqYKuxtz2sNlZQnxQOMtc9hslxfcOT6GafUzX3Sc55+Ip8kVtwpaaNjtwvQpI4LZBzJCNLruZKDrdaTBqGCUlr0zEaGGOcNHVJzV0HdGeL5D8RUUgl81fS0kTY8wSR08Tibt6I8kYzxzluU3TAJL90q+khhDx2Uj46cDoh5B+DKJ4ktmylRiOV+60VQyn5GgVfExhYbIxnYklRXZHdE/tItmTPlO6hnDQdE1gsh7R7N1FLGSpY/eJ7xqiAgjpswUuGNy1oCnp+4bbpaQN9cZdJKWmOu0bOlDuU0+S6P3ydTFppm/ROjHtAvJvbPV9I6vYZKUtCxlThrnTOs3qt5KxvKcqCAA1cjDtddHxptJnN8iNyRnavD+XHeyTDKIOmLXhX+NRtaDZuiCoBknC6VkbiSlhSYTR4NDIHDqAgp8JMb3NZqrVkz45DZyNY5r4i4t1JQ5SWxFGL0jFy0j4TqEXQU7iQ4t0VjjjWhgdbqpaAM9TDg3VU5XAWMamV1fCyORtmrVejssjxiLsjVZvERcNd4K34Sl5OJwv81Jv+SjirZs+NKVsmIREtBBCynEOHsZY5AAtlxY73Mu6oOIRzKZr/JQWRqh4QXLZksQiYKTsb2UmChjhFddUx56YkKDBC4s+hXW9wOeuM6NXxRSw/hcT42C+TdYeUABbrFyX4E3tbLAyPve6XDtGn2RkarV8EPcGEdFlSRZaTgp93lqHyF/DKYfujWz5TGVNSawC6Gn9y5TUD/ZW815no762MqYyatuULTcBwTMlqrjoqJhvWRjx6rb8J07YHzk63CvB/wAnLl+x5VxRGWcQyOPjqqTEMgqTZoC0HHsn/wBdltvdZare59RmXdHpHIzWeih9sfkt8queKI3fjcpIWd9F0mXiUN8VreLw78Tkt4KGb7FcfRj8Xbarit4qSLMKxtzohMVkcKhv1RDJL1Ebi0bJK0iha8QPjkwjKHDZZ6j0osod1VjipBpnDNoqqCTJAfqrY+iMwPi3MYoLoOme3lQ+TwiuLH5qeBVNJI4WBB3CDV0Wi6iZkhPZE+TYLii8P1zLsOWiI0z/AFeMeJKiFLIdgrOp0p48m+qrQ+a/VEB3qkyUUkhTzz841ujqTMzsyuFygYAfRzMZfLohyLbtWzpoWOpxdu6qeIYIYow5jLFCw0Ulr7J9NpImAqSn94swo09F+rtU7kNQ/qrERIuP2dvoqcZje9gIVOWuG6vMUm5LRfVBXhmGmhXRjdRITScgEJ4KfLTPB7GygNxu1UTsm1RMwpSbhQ3Tx3FqAPYdF26jYVM1ZjDLJkmykITJTosgMPwXvK3fp2lUYL3lcO7pXLk+x04/qV5xAR1GR2yPhmjlGhWYxPSpK6mq5Yj3tFV4k1aI+WnTNRJG141ahZI3x69FHR4kyQBpRoex401UmnF7LKUWtAzZfn/NMqIuYzRTSQA6s0UXbjOqy3sDX6Vk8Rae6ms7qtyGSboWemtsqKd6YkoAQSlOLCCmv7qbsQlo/eI56Aoveqwd3VPJ2Wh0NZ5qSNRhSRqY5G7vKOp0iKmPeTJWudGQmj2B9FPGwySlGspvNT01A+90krXtkyLpbOQj9XaNyo5GAbORj6SXlZ1VyCUSZUImbEkklb8RTOa89SjBQyyR50NJFyyQU4CLO8/EU67z4p0bblFCMZdUspKI0IuQGQ8+KaQ5H2bbuqORmmiVZExnipAwzJ2Q2XNYQ8KxiiaY8ydyomV7I3qQxuCJIaCuk7qJgUhG4WO2hSEZhg7aTJ9R4L+i2d3U6ILrXYpIguT0diBa1jSgRF4BWdYzRQQNuCqwdI58itggiN+6lMTugR5j2dlXPAF7KnIlxIY6S8ebKhjFZ5aW6K3pjdmVQ1MQEgcNllLYZRpWit5JHTROYyysjCHRoaSOyZOxWqIOqsKQAs1QsbblWsETeVmCE3RlGyHI0FMLW3T36Jp1F0pgWca6JkbLSaqeUaIXtJ/QvQTUsHLuAgyzRFZrxd5Bk65VojSRaYOLPCvCdNVm8LkIlsTor292LkzfY7MH1Con7plQ1sm6jgOpXTu1Uo6kPPcQWrpQI9FXxtAeQrGeW8RbdVt/amzl3x2jzpKmXeB+8sEzFTaoa0+KTB88T8x2UmIRPllDx0UXJKQ6jJroGqBliLlFA5xJ+iNqIXGCyggp3A6n4UfJGuxlim/QHVxOda10MyCUvLTsrnlNFruTi1ljqFJ5UdMccivnpstJdVERtmatLKxro8ucKtFDGx513TY8qS2Snhk3opSbzrp1cvoYAb5gk9UgJsCLqnniL/jyKBgdnTpCUdU4fMJc0cZcEw4ZWSd2E/kqqSasi4tOiGkOifAbVbUVTYHiQ/8ADvXDDquGpHMFtUrkhkm2jV0GU07bqZg9pooKIZKZrTupWH2i8t9nqLpBMnu3f4Vm2Oa3EJLrSSHsZVQ1FBIakyi6pgkldkssW2qGYyWmP7KtpD2wrmooXyxZTm2Q0WFPbbdWjkilQJQbbZHvJ9EcwtZEbpY6BwN8ynfRZmEBGWWLRCGKSbKTGy0waLsMd+iFqtZcLbJEGldT4UyIZU0c8FGg+GXKylrT7BS4XM6OeN46EK3nw1hjLTlUVFQMEnRJ5Y0UeOVmkxWsdNQRdq9gELWyNkwsO8AmkXiEZclAHK5R2XMpIdQdmaOYxuaAosGiewyXBvdaSCjhF79VLHSwsJcBqulfJSVURl8duVkUl5cGdFl1CxFRS1PMNmHdb8hoBb0Kg9WpzuxLH5HH0F/Gv2YZlDU2yli0PCcMsEp5gV2KeG3cCVjGRnM0AFCfyHONUNDAoO7CpvdlT4f7s+KE5o5ZunUdQ0Md2lzVaLXssIpGR1kb36gFbPDcao4mHRgcQvPZKhpPeUfrNj3/AN6ZNoSUFIh4tpXVeMyVEWoJ6KqdhL3Ovqrw1DPEKM1LSrLNNLRNYIAnDFK/C8XbV62WkxyrFbU5w7oqYz6dVzJr/CfySSnOXYyxwiNq6Bs0oflUzKFoLXeCQSvPwP8AyUwfKdMj0LkGog2J0w9Xc4WUGH0kUlOHGyIrGVDoHMERuo8MiqWxZDF+9OnNIX+W9jqnDoKhgZJawQ/4PSsd0/JWbKWqkOgZ+aniwitlPfjH3S3L9GTieFv7yKw8aOQz0bhwvE6y9Y88mZqyP6lRF95CLJ4zBjf8ZTGhwkusKcHuEosFIe3UNUTMxnRccD3SBywbNDRR/ozbKn4r0jDVe0B5cEbT4LP8WOaXhqnH7GZQBSU/vEwKWD3id9DJGkw/9Xap5EPh36uxESd5cj7OxdFPj3umqmBLTporvHB7IKk6rpx/U5sv2CYKl47yKg5NQ8A6Kv6LmHIcwRcUBSZbVOFuHbiNx5IKSF8Y7bSp6PEpYyM+oRz6mmqmAPAafJJco9m0ylYNVK1Wb8K5jM8RBCCkp5Y7527LOal0FKgd5UMqIIUUrVSIr6D8E7yuDqFTYL31d7rmy/Y6MX1Mxig/SSg7K1xeP2t1X5CuuCfFHFN/0xsZIOYI+krCwhpKCtZc1aUU+wqTRpIKlkgHaUrw148VmGzPjOjlYUmIO2LlzyxNdHTDMnpljJEQdNk0HTVPjqGSDvKQxh40UrKa9Az4g/ZBzwOGyPIcw9VxLXjK9MnQHFMrqQWlyqxeNFEIbPupnjQISlYYppESkj7yjUkfeSjXRzk6PvJrxqlj0KKA+ixpLBhVdVj9LDgjad7bISpFpw7zVonNIMkDhSLOSH9JP1Wknc31AtWXeHesnQ7p4exWaajaH0h06KhxEWlKvcOktSWPyqnxEXk0ahF7M0wOLdFAXHdUEEZz91WkTRYNKGSmNjbQGIybJkkbgFcx0rywEMKZUUchGjFNKmVlN0UjwAQjotYkpwype8WYjYMLqeXbIVaTRBWVb+8mv7qtn4NUk90pWYBUybhZzX6Cn+FI9E4d7xWs/Dk0bMxQsFIYZMp3STmmtFYRd2HbsCliUTdlJGdVznUiKv7oUNJuQjZYmyDVJFTNYcyaMkkSlFt6GPHswoni4KO5ILLFKKZtsqbmhHjYBTSfCeinnF40VFSNa/MpDC0iy3NWFY3VFbTO6EJtQNdBdWTKZgfmDVIadp6LeVJm8LaKIZge6j6SR+QtU0lOwPREUTBZaeVNCxwtMBkie86BIIX/ACq2YG/KnFrPl1SeUp4SmfTyfKhjSSH6LQHLfurgGfKEVnf4DwL9KGKkl6hMkw9976rQkM8lGS0b2Q8zsLwRoqKSkfG+6tGdw3Ub5GhyTmNy7pJNydlYxUFSJod0sozqGORt07m26IU7tG5JrY18LiDdyHfTct4PVSSVNjoEPLVF1uyqxcyTjDsO5joorhCnEH3RTBzKPXwVfyd2qUUm3ZaVqqHvxCUpnrsvzJeQmGCyeo/gP7GPrJPEqMVs3dzKX1fVSCmHyraRqkwYVMx6pklRN8yO9Wue6kfSNJW5RNxkVvOmPxFS0DpPWRcmysI6JhdlLVNPSMiIezdFSTVCuLTRrMOnw5lMOaxl7dUTHX4Y1/cYqCmpWVFO1xdqiG4ZB1ff/mXPG6KTirNEMdwsM7gWfxippqmTPEwLhQU3+il9TprW0/zLUaNICEgA6LmStvfMjfVaYHvMSGGlB7wW4oLmwZ0zSd1IyQEd5S2ph4J3MgGxCHBG5sFMzQcq7m3b1U0hpx1/ckEkNut1uMTc2MEjfA/knCT9lycJIeidzIt7FbjEzlIYS4/AUx7n/IUYyZh+AqN8jL6MW4xNykCnmlncUFIJmyHsI/m3+BMfPy/gCZKKA+TOHN+UJbTHwSCqJZmyBPFRKdmj8kKiD+xojmPZupRTzfPp9EwTTX/7J4nn+YrXENSFNLKfjP5J3qL/ABeu5tQfiKbzKk/E9DlEHGX6SMoHfO9O/Db+P5qD9I+d/wCaUCYm1z+a3NG4P9CX4bHbX+KjjoYY+yXM+5TTHIRv+9Q1FPI3L2kVkQHi9h4pabq6P81LHBRDrCho6V3LDi7dOFK23eS+RB8YXaibfts/JR5qAfH+TEP6t+0uFMz5ih5DeIe+aj6F/wCSjknphs2RL6vF+0u5EV9WreUPiRF63GL2hkP3ThXs/uT9ypRTQ/In8mED3QW8hvEgZ+IOtpTD81DPijoWZuRGFY8mID3TEFjLWep6MAsVoztmeNUdFjVTYOjih/JTMx7Em+75bf8AkUFBl9XbsigWDqEHPYVBHiD+8jcMfkjc4oJ4s7VE02YQGy9lnmhWbmRt/wAaSeQNIauiBEQuPjTKge08VhQiINIzhqkp5nc8NTIg7lCydh8b3VI+qAWaSEXY25tosxxPc1YWtgpn3DjtZZDiMO9fISQ7MVadB7xJZPiFnqg3s0eHfq4RMneQuGfqwRJ7y432da6RU417hUoV7jYvAqQMXRi+pz5F/QqanELsqoKcFKw21TQLJQFjBlJiE1PpmuEZ69FNH2wLqnslGinLGnsaMqDXU7X3LShqiN7AuZM9p3U5qWvZZzdUEmg6YuDd9Xn8VTYX73RXW6jk+xbH9SlxmN5e2wQAY/wV/WNYbXQ9mfKF3Y5fyjzssf7ZVvhdk7pTGU77XyqynyhSRlnLWe2MuimfC/5VwjcFdDlEdEFOGl5skk6HikyGBz2PDc2ivqXWIOVHbthXtH7oLny9HTi7Ffl7qhkh6tQlZUGKXyRFNWtfa6Ti6sdSXQ0FwOqcTcKYhkmoUT43BAbYxOj7yanxj4kDHSJGpkh1TQXdEaA2glj8qRxubqElwSFxRpi6CnyXjyFC+rsvmSZnlOu9HZtEzDkGUKN7ATq1M7aXtIUzWh4jYCpISBK2+ygAcnlrvmRo1pmmp6+kjp7aXQ8uIQk90KiDP2ktvNCjF5FicItdoU/4xCBo0LOi3zJ4DfmQo2i7OMsPRN/GCNlUAM6u1Thk8UaCWUmLvkZlKBfLmfmKQZEt2W0QoydCZm+alif+ymgssniRg2atQ1snZJ+yn8zyUDJG/Kn5x4IUa2S5/JOZIflUQk8kokPyrUa2T5ilzO+VRiV3ypQ5yWkZWPbnungPKiBeuEkt1tB2PfC950cnMgf8yhfLJn0cnsfKRutYtOwkRWG64x3+NDZpPNNeJT1K1oNMKEI8U7lsHxIMB/zFc5juritZqYU8RD4lCeWNyoC1x+JI+AjqtaDxZIeT8y68ICjjiunPhujyBxYhljBTOdHdMMTQ9OETUbF4sSR7PlQkhYToEaY2hihLQm5mcWF07v0Y3QfNGZHUzQYDZBPhbnPaUo7bKybpUPErcqQyX6LmNaNFII2o0LyYxh17qc99m91TMYzySTiPl9EA7IBMkMzidGrmBupUjDF1cFml+BTGB77rqjmnKXXRHMhHUJs8sbmZQboILa9hdPzDTjK4pclQfjKWkkEdNc6JXVsI+JSVjuhGRTHcn81K2B/zKH8Rpx2l34tAtxm/RuUf0JFKT1TZ6fIA4uUlHWMmGidU91LbTphpNaIoobszZlOIWeKkpx7JV+KV/qm6C5SdIP8AKVssBTsI7yT1dip4MXdIzQqI4y9hyp/FkE8kPRoGQsT+VF3cqzAx15eRmTRj0oNrlFYJivNBGvZDFa1lxiiB6LHS8RStPVRx49PLe10f8WbB/kQNry4hfQIWvbFYbLJxY9MXlhupfxOaU2N1v8eUXs3nizTsEXKGyfmjYdxZYmoxOrjlsL2Uc+J1Nhqj/ju+wrMq0bgvjvmuE4yxgakNWNoK2pms0lWWIGpbTB+Zb/Gd1Yj+Sq6NB6xF0cl9Zi8VnMOM0jNXlFvDwd06+Kv0R/Lr0WUtbCzdyWGshkFwsxi5eIhZxU/DzDJE7MSbJv8AFjVif5T/AA1UEglGYJagdgOQWEaZmo+oPsg5cc48ZUdcJco2GU4vA26Jgw+WfVugCFo33gatdwpFzIi+17IRjbBkk4xtGbOFztJu7ZUVfVOpqrkuXp87GPDnDcLyzixjfxiNwOl10RxxZzPPJEFXiL4WEqsHEri7JmWslwqOakBtmDwvPsXw/wBUxBzRtdNihCWjTyzj0XEePveSNfyRkmJvdSGWMG4VRgtO2SrAkbYPWiosOBnlpnjQjRPwgn0I8s37M43H6p7y0NfYIbFMZq3x5Mpsi/UvVcXkp5GiyWehZLOGHqmSgn0aUp12VuHYrXPIhY0kqerrMQiu0ggqSCl/Dsbi5jOyStNxHS0z+XLGzvsTyUU9ImpyrsxtXR0FSzMGxm/UFCnDKaBmkwA8Cs8JpWjsvIUr6moltnfeyoscl7ByReyYdKaZr4u3Hn7/AESvwufOHZLqOgxgxYOaCR3Zz5wUazGKRkQa5xetJyiBUBvZy7gt1CXDCw1OjVY1lLDU4X6/A8WJta+qCoqOaKVsh7m63JUFpmriLfVC49Fg+IXNOIuW2gmikpy0ELC42L4hIjj7AA6JY/epNEsfvU7GXZoML/VwinIfCj+jol3eXHLs6l0itxgXg0VNZXmLe4KpbhXxdEsnYll1k4pQVSyYmVLZKCnIWYaBddlTm91ddAwws1TSFISmvOqKZgrCswkF1elUOGH2qvVDJ2dGP6g9SGl26jdB1CFxSR7JdHKOKrd1cq45NIhkgmySpjsuja3Ij44Y6qIa6qGehliHZ1CspWc8otEAa26hkAD1Jke09q4UEodfMhMfGNs3OFdUfulSAdsK7ovdBc+Xo6cPZVYp75CMfbZyNxUe0QNk0KrYk+wqnqy06qwiqWPCpbJzHOj2K0oJ9BU6LksBHZUTyY0NT1eovoi3vbIy6k00VtPojz5iuBKcwNT+yFrDRH2vBLZPDmeIS8xltwtbNSI7O6J2Qp3OZ0cu9Yi+ZC2akNyFLlcuNTF4pDUx/MtsNRFyuUZY66f65F8yjEzC/RbYr4jhG9PEbk19Sxm6b64wLbD/ACTCIp4iUIq2FNNcwaLVL8DcQoQ+BUgh8UH68FxxBq3GQOUUHCJt04RtVYcRsi6Oq5qDhJKwxlF6QQ+MWTomjVK/UJY0t6GrZKyMBODQg6yYxjRCR1b3HRMsbkrElkjF0XQsLbJ3ZVDJWSB/VL63Ij4WDzovhktc2Tw9nVwWfNVJbRyYyomLt0fAxfOvw0jJGeKR0kfzBUYkkHxJjzMT3kvh/wBjeb/RdSSMz5szVNHKwAaqgAl8UTT53ENLkXi/2BZX+FsZmA95camK2jkBVwvZHmzFAFz2/EssSZnmaLp9QwJhqWnQIGKQSMypIi1s4BKPjQHmfYaZgE01rNlNPCx8QePBVFW3l9roisaYHlkWUVUHnKEW8tyKgo5PbhXx92LKeWCjVD4sjktkFrlJKcjMwSnR1lHUH2SVdlH0Ay15z5boeWucB3lBI9nNLVFUWyaLsWOJxPJKzQYXUukpyUBUVL2SuCXApMkZYdkQ+nhkeXKCqM3Z0PlOCoB9afmTxVSIwUcI7WYJxp4B4JucRPHP9AvWpP2lIJZZGdUUIKdSx+rNHRL5I/gVjl+kEEb3wE9UFLzmSaXV3FNCBlDQkkfTg3LQEFkf4F4/9lMGVBj63UcUdTn1urv1iHoFG+qhb8ITeR/gFjX6SyA/h/ylURe/xWjkkE2HmyzTz2zfxQ+P7D8j0IS8/EowXA6lyku1RHvLpOdmk4e1Cupe4qThvuq8kZ7Nebm+56GH/jRJT+7VHxZHeLMrymY4MVZxKLwFLidZENPcGiu4Xpeewi2qXFKIU1T2xZGcAyM9dMRVnx5StYM7V1yls5Ma2jGljPW8o2KSeHJWNbbQrh2Z43qyxSO8MUzG7IKVSQ+XHpiYpg/KpG1AboRdVuHRA1Bb4rfMpfXuFM41IYsRRRluIAeCqpWc0VcSePCs9RmDVJDSZK0RFqtIpWwVIa/qnVkbRWxSDa6nlk0Ni2VOI0Ajk7qrqqlcANFrOIYcsDJQ3cKlI5kBd4KfP+YyOrDFNyiT8NUHOOrditZjGD//AEu4agODGMdI5mVeg19Ow4OdBsjKT5HM1SPMaCm5bCCEtRH7X7K6fTgB1gq2ob7VXg7RGZn8ZFowjeFI88RQmPi0YVxwXA402ZO3URI9hWHBonkaUXUn2X3QtOMlZIP2kRU+5XmZfuerh/40F0Xuh4rYcIVsUYkhkcGhY3Dz7AJamrkpZWujdZLBf0DL9DdU1SyWtnhzDL0XnXFMV8Qla3cG6MwbE5RjBfLIddgqjiuqki4hDn6RyLrgqkcT2jRYJNz8MYM2rNFnOKaBz6nmBu6ueD5GOlkh8dla8QUDTRPfbVijF8MhRrlAwFABGWE2DmFbAlgMFSOosVi55uTUOboL+Kv8InNXhWW5cWK01TsRbiV3HEfq2IRVbdihBM2XLMNxZXHFMPruDB+5YsthD88BYTqFnrZaK5RLbiSMPghqW7qWWr5uFxuubsU0YZVYG5m7mKhjkIgdFdUj0c8lswQKXMVHZ9tktneC6iVk17xFNGi5nu3JO0iEOpsQmhg5Id7Peys4MbvEYpG9LXWe2SgpJQUuxlKjRQVfySZUPV0/PJfnuSqcEjZyljq5Yzo5Lwa6H5xfZNJRSt8woBG9kgui48Sd8QUdRPHK8ZEbl7D/ADWi5wr3KL6oPCv1dFtXLLs6F0B4r+rlUoCusX0pyqASXV8fRHI9j7J9lDmS5k/EWybRKoozdTdEtUzdiALiNVzFxWMIQmuT1DKUVswXhx9qFfDYLO4VrKFoxsFHKtl8PVlPi59oEDdF417xV4CtjVxIzf8AQRBUviPZeVYwYrchsipDmTgnoR7NNLLTSx6WvZVc41Lgq5kjwdHIlkzgO2lkmaI17rPF1eUBvAFRyPaSFd4d7gKU+iuJ7K7GDaRVoerPGI7vVcGKmOqEm3YmYpQblPyrgNU+hRbbKxp/chV5R9N7lRn0Ug9kzUJXyOY3REsQ1eOypw7Ky+pXiaQqUSPPVQsGqLijuNF1UjltogLn/MmCR9+8inxttoohHqsgERL/AJlIIZXR5u0nZVZ0cf6Is3RkUUYeJbFxVrRw3QkrLVP3Vxh41CSb0NFFbiUDozfMq+5+ZaLGIvZ3VC9upTQdoMlTJqMZnFt1LV0+XVJh49qFZV8PsgUJOmCipjbopqeLOdUkQ3RVGPaLPoy7IZochRWFiyStFrKTDj2lOT/kpBVIs39zvLo0r+4kjK5zp9kNey7NUJSRalHVfcQ9Ge2VeH1OXL9yKeJuYJhjajKrdRJ0xJKiFjb7qVjACmhOvqnQETFosLJ+QFidGLxpgLsyjIrEYNCpKc2eE095NJyP0WKNF9JHzKTMs/OzUtV9hkvMgLSqbEfZVZB6pY9iS6AadzmylpRcwvZ43QlQHB4eFNG4vjVf9kf9B9FVOIyEp1fDnjzKqildHL3lcxSiWLKs1WwJ+iliGWoyq/jfeAKnnbkqsytofdBSzbo6cHsZa5TKlvsip+qZV6xlRXaLy6MvUX55slePZ3KdUaSlOZrGu+9HnFhgTWvjKZWTGOYgXU3Dm5aocUH6Weyuek8jR0NtYk0RCpefiThUPQ5FipPhVuKI8n+kvNPimxyuz7qK6aA4HRagWy4oiBKC7ZHYrGwx3Z4Ksgc4sCsowZqXu7aKLWyjbaKynN91FONVIBy5yPNOqI84uFR9CRLLDvaYe4eSz84tK4ea0eBN/R3M8lSV8OWrk06qWLUmjoybimBgpAe3qpSx1+6kfCflK6LOdmk4aa0uFlfSs7Cz3DF2ustJIbxmy87P9zvwO4CU4bkVbxJHmg+ysqTNlKEx+N7oNGqcPuh5fUoeFhycUjs7cracY0xmwwPHgsRh7Joa2N+XYrf1tVHU4Jk+LKuvJ2jlh2eaSREx3DdlYQ5ajDC3qFJyexIwtCbhELxKYXbEpJO0dM37NHwRWmXC5qF2tgVmKhvquLuzNsM633CXDfq0xnz9l6j4l4ViqK3msdqVRSVnDDTdmQxdzXcuZvyok5pKSOXwWgj4XiMAY8jTzRtNgMDYOSXsshldrRsdxeyjxWEzYO1/gFmKc+zewr1aPBqY4eYDKyyphwlRtkLjIwBRinw4nTiyqGTkUXBcjWVlr7r0fE5HHBiWeCrsC4cw2mkziRl0ZxJVUdLSGHmi1rIvslJ22ZenkE1O519eqqqrSSyJjmgiY6zwG7qATU0kpcXCy6IyohONlBxB7kLWcERQjCg57wDbZUuNTUXLGrVeYFhWKzcPOr6WJggA0J6rSlaBwaAA5pxCXI7S6mqPdGypcEmfJXytk3BV3OPYOXFmVTPQw/QfhjvZKHHHWY1w2S4YewWqDiGZtPSF5SQ+6DNXBivL88FTE0Aj96k4widV0kNSCDIPBZam4lDRkLuyi5eJw6LILkeC7eErTOH+VosuG6uWlxGJ725Qd1usRrqeWjc3MNQvIqvGctn5CPBQHiapd2ea9JPBKbtFI5IpUaKswqomlzxtFrq2wOgqaUubrZ4WZwfi4wMLZW38yrD/AH3v3R+5Vljk0TUktI0ceF1NRFNTl2hVDFwnWQSud27EqIccVEL81n6qGs46q5gWtY9DxyY0cvHo0WDYBUx8xkhOV6El4Nk9Zc8SmxWXfxriY92x4+6gk4zxgHL/ADTLHMm5qzI39mfqp4spjN2qD+yCnj92V6FHnuTXR0gZyzolZEzqukHYKd8CFbDHI+BA+JhF0gjHipX6MUbd1uCDHNIUx2CjLFNIXKEapHGi0MykNyaLgPaBS20uov7YJDoNFg2sBR1rBBYIfYFH3uVxy7OuPSBK2xiOfZVBpopO45WWMZvU3dpZuOZ7NnKuNWrJZJJPYXJTPZsoi1w3apIq5431RMdRTyuGZoCe2hNMDjU/RW76OjkjBjeLoOeiyHsFJzUmGqA291cVIYXt6KN+iL7ML0Q8ynQ9QmiBhGFH24WlHcCzGFfrIWlv2ApZey2F6KjGx2wgANFY4wLkIHl9hUg/5JZF/RBbVOYN04hOYNCqWTGsZcqdzAAmMGqkkOgSN7GIH2BCvcO9wFQvPbCvML1iCXItD4uyHES2+qA5dz2ERjOhVdFOWvF9UYK0LkewgxvG4UV9cqPjnjkYGqOWFhfon6EWwZWFN7oIR8dkXTe5UZ9F4KmSBC1+gRbULiHcSR7KS6KwGxRdO7RA9UTTldZyewvskKIBOJ7GZNjfcoAHkKxox+jobI4jRpcj6KI8g3BSy6CuymqRaozeas6I91A4hC/mZg07oyja8MHZ1Sz2ho6YbirL06zUg7a1lZG/1QXG4us1NTTGTRhQx6HkJRm04+qvqluejuqOOlqQ8O5RV2XkU2Rw1RmwRKQaPKJpTaVMkheZMwCfBGc4QvQKJKzULsP7ydUNuxdQMIelb0US/qyzf3F0aUjsJsWhXP6Oj2JV9xDUZ9oUVVi8arh2D3lfG1xo58sW5BlTlshbrs4PxJBk+dMnQko2h19UpSgxeK4mMjvJ+QiiwqkN2ZU8gX1QsErI+qkNTGVN9lY6R0wddRSHRSGaI7lRmaFLQ7aYdg81pcpXcQxgkPYgRVRxnM1Nlr2yNsdkUndk210MHtGap9PmGhUYqohtZJ69EDsE+/wR1+i1Mbgbsap6CSQaFQGuYQkFZY6JttAqIdP2pcyOh90FSRVWeTUq6pjeIKGVUi+Gr0SEhQzlz2FK/vJsg7BUUXfRRVMBMpSxQvHZS1ErhKQm88hdqcjhajZZ4HEW1BUmKw/pAddQYHUE1OVLj8z45wo78pfXiIzAD1XMpm/MgxVPT2VMhVdkdBHqrb7pzKZqFfUvTRUv+ZamC1+FxGyJjMpKOoqqGJhY46LMvqZbblR82UnvFK8bfsbyJei/qzC6UvB0XU5hPZKo+ZLbvKWmfLn6o8HXYOa9I1OEBglLRshsREIqHXa0FJgTnGcNKhx9rmVeZc8Y/wDsou5f+pMRhgv3QnT8gs0yqsY7XVEg6LoUKIc2WuCWEuivj3NVn8GPtQr87aLjz/Y68L/gkpOqHxt/LpicqkpC4FdiMfNpiyykvsrKv66Me/EgD3dQnHHJcmTWwQNZCYqksPiioKNr7XK9JQizzvJIjOKP6ApG4nKx4cBYqU0TYpS07FRz07Y3o8I/gPJL9LaLjTEaWMRC9ghajjTEZX9UDJCx4HZU0GDPkh5rRotUUC2OPFuJnuB6Q8U4qH6uWw4S4Yo8Twt1mDMP4rN8S4G/DavJJFZt90FKL1QadWBycXYwBo4oV3FuNH41f0mFU1TQaNGayqjhTRU8q26KcX6M4tC4ZxPjErv1ghS4vimIVVmyyk2Qow99HikYLey9aKowe9PnuLWui+KAk2ZuOWpkYI87zdEzxzRQXLizTqjIKXkPDzYW11XcUzj1RroiDp0WT2KzL1frDwSXmy9P4W42wim4TbDXVRZLBHk5I3JHgvOopGy060bOGqCbBI6hlzM9me46ITSl2ZWugPhit9bxWaa2QPeS0LVzG8Th5LFcJRup8Tkhfuw2W1fsfovP+TrIej8bcBmGfEhOLBmw8qfDz23NTOIRnoCFOLqaZRq4s84jjHN12R1HHmqI9Li6bHF2yjMOyNm7fjdeo5pnnvDKrNHxTgMIwSKphbqQsHSU36SWPXrzsldwn3u4F5hWROhrM401SYZOmhJKiGOlaJ3RFOpoLVBB8URUuIljmC7PkqQ49VRvQF2GYnSs9Ua9rdVX08XtNRuro+1o3M62VXlfGzNl2UsUtUx8saZYUVDDNRyuLO0xVFfTWY0hvVaDAC5wlaNLhUmISuZJLCejk8H/AE0TktWZsjRgU8Y7AQ73tzjVFRasauy0cEos6Rrsh7KcBdgU723p5D4JIGOewN8VgJPiCziwCiYr6vwuWOkbKWEDLe6pGDtop2CmlRzlGApXjUhMtqhIrh7H2sxQf2wRDu4oAPaBQO6tF9gx9mUeUBgvcKsdyuOfZ2R+oBi/6o9ZdanFRekkWVKvh6OfN2jgnXTLp11QlYRFPMzZ5UzKqZrwS5yCB1Ul7hakNZaMxBh0IRPLhnbo4KhYbORLJXt2KSUPwZMMfTOF7ICrje0oqKreN10lUx/Ze0JY8kx3TRDhelQFpgPZiyzlGW+sjItG33YSZux8XRXYmLlCkHIrOsZftIS2ndTQ6EydgJY6/dSsjciHuYCl5jP2UwgMxrrpZGOPREF7LX0UZkasYDkjcSrvCtIlUPk7StsMN40uR2h8XYLjYVTZXGOKn7SfF9RciXIczTqpY5Xg7oezk4XuqNWJ7DhKCEXTH2argNAj6P3a55KkXh2TM31UNaG5NVOA6+XKVDWsLoy0N1SR7KS+pVWZdE0wYX37JtrqbKCOkLmOJJuPDb7o6ni9X+MDbUWJG6u9Ls543J9DuU1wsyzz5FMgjAly2znqFL6+G2bExgyaXsntxKUPDsgeLaaWUHOX4XjijfZfYNFDHBnmaBGN8/VG0XqlTO5tPbl23/l9VQ09U+uqImYhzH0gIJjjNrjbdb/hzAOEsSrIJqavNDBE4Z4pH3t9+pPiuTNmlHZ14fjwloofUIZJM01NMYmakxs1QYbRxvzRtu157BuNPr+S9rocYwPA45HSspK+lJ5bOWzXX7fzWN4j4YwnHDPV4MyahMthHG9mgeLdfDUfvU8fzf8A7VGyfC/+NmFnxCn1blYGjbVBHEaNj+6CtRxH6O8QocPjkMDDIRcvs8Ajx12WTxDhx0UDWhhY4AGx0JuF3Y82OXTOOeHJF7Q5+MUmQ2a1VdTiDpZOxshJqR8QcxzSCCNDorPDqFkkdyr/AMpWQXLoCfVuAUJrHXRWIwNjKrizVFJDWyc1riiMMmLpEDy+yisK96tKKrRot2jQO7ibHqnjWP7Jke9lyejsZFXkiLTdUEssoeVoqgXjVNVxtDzorYXSOfP2AmaT5ilEsh+JFcgFcIWhXbSIRi2RwOle7VSu5vRIBZ+iucOphLHctSuSSsLi06KjI8/EU0sffvFXVTTsY8t8kKI2Zggp2M4UBiN+VcIiR3kbKywzBR0/fTXol7oE9WffW6a+nIVrJbRM5WcpYztlJQpFXlUjKR79cuiNMIB0RsUTREncqJpFTHSHNsny0jmi6tmMauliaY0vIKVoqII+0Fe0nugqnJkerej92pZXovg7FeueOwU941TZB7MrnR0+jP1gtOVGwXUlfpNlTqcXXcno4VG5BOEM5dSHnZWOK0oqS1wdqhaZl5APFGV7H0zA7Muad800dUIrhT6K78M07ynpMPYw2JTGVMkkgZ4qxNNKyDOi3Mm/HYLPh8TtioWYZGDukkllEmS5T/alneRSn+gcsf4Sigp7bhL6hAB0TqeKR7MxcmlpDyM10Epv2BygvQ4UtOPBTRxUzPhCFAcX2zIqCG47y0ov9NGcfSDMPMIqA0WUfEkftA/xUdNDy6sO80TxJrHGVKK45EWcuWNlJBDzCEVJBlZmTsOa0nVEVncXTe6ORrQzB9JVo9ws1hhtUBaRmo+y5fkfY6/j/UWmHbKny6ZVBTmzyp3mwUPZZ9GZ4hpWiTOGoCnkdYK8xlmcaqljFnlq9HC9HBmj7DJGGSMS9RogakOsrGkdnYWeKCrG5CmXZLtWRUZYY3MfutFwlVRmOWlkAJG11kHudHKLKwwuZ1PWRyDY7oShpjc+jY8P1cmF4y6LXlPN7BanjfCocUwM1MTO3bMFj6w9mKrj6LWYXiHOwsxF1xZRutjJejzPCqs0tQYZD1sjKxvtRIzZA8V03q2KOlj2JvoiqOb1mkDc2oCf/aDHqmG4pEypoG1DWjMwKXDsTE1G2JzhcaFD0UmeN1MdlRkvpMRdHsCdEZK0UjSka6Ohhq4pALFyz+N0kcNJLCdwiMMrpIa2PXsnRR8VB5nBGz91sbJ5Y0zFRy5MzArrBuJK6ipjSsDC3oT0VVPBy5Sn01K98ocFdpPsiXPDAJxF0r9yb3WvebLLYE3LW5Vqnh3eXnfK3M9D4j/gFoj7Vy7GdaJybRA+sFqmxGNz6Zyj/wBi8TEkZL3UYvnzBPrTkeWdbpmdzWAr0F+nO9po2HDlY84RLBmvoszWszGS+4KuODXtmqDCLa6KHFaZtPXyxydVo6bOSaKyeJsmHBw3CCl7UDXjcK0ETuRIwKsiNs0JVE7ELfCHcwWPUKKdnvYtAosKlDHjyKLrCG1mYZQHhc6tTZ0T3BC8OSZKgMJ8kDxLDycRd4PTqCblVos+2u6m4tOYxTDqqLU0Qf1Fk4YoTJIxgUjOEIi4iOawsryMXkcfNH05bc+CbmzcUY6r4Zq6TC6mYyXAtb80NQYBiJfC5jbtNui2+Pn/AOhzedv4qbCrepwEeAR8kqF4IqOI6Cvp6AsMNxy+i835VTG/2lO8fZe3YjK+WMtOosqQ0VNIDzIWOv5IwytIEsMWeUF9ydE3mNXpsuA0BBdylQ4pgdK2KSZo1Cp5UxI4VHoyV7hMv7QKV4s8gJmTthEulou8G92VYfRV+D7FWB0suKfZ1Q+oLif6pJ9Fkj3lrsQ1pnfRZKQalWw9Ec/oYSu1XAXUrBZWsgotjGXJU4Y4DVIzR+ZT2dIxCx+LQMw9tFtY4szWUXJtqrCOP2ISykPihYIyNQ1A1RwHYKEqQhGVsM40dhh/SAtVH7kLKYf+sBaqD3YUs3ZTB0Q1kjY91CHRFiXFRoFWPzAd5NBWhcjqQYaI1BuwqI0c0W7U2mrZIL9QppMQMg7YVUR36IHsdbupscd0SJmSBdHE12yVjJWCSRtBVnhw7CDnicCEZhuylPopBUyLF2XCrRH2Fb4mLhVxHs0YPQJ9gxCYApZNExXXRL2SDQI+g2QQ7iMoD2VCXRaHZOw9spJz4bjquOXOUPUSWCkW9DCWxMPifAoSSV7zolkLiQL2CbbUtGtlVCqKQk7wZRk6gH72U8cLy2NrNZHmyhZkac5BcrHDi+WoaI8j8mvLy6pZMaCQj5eS1rGHS1hrp5n96s8Lx2WnysjAaDuLblZ+eXnSudlEdzsNgnREh+j9kssaa2NGbT0etnGKbEuE4sKpKUiqzgMyAk5+r7K6opq/CMLo4JKTn4mXk0tOOxkOozvHidd15ZwpxPX4LViSgl5cg2kPRb7h70jQQulOKUwklIuZmH2jze9ifDVedkxuOqs7oS57s3XDfENRU82q4hoIyBHbO+TV52sPFVvFmE02JVPrEVKMOkeLkC5BZ0O+ikwPiqjx7FIKg0DGRRaRsFhYfXclb6egw8UjMSMgygDOZDex/LVcdNP+dMvpfZHkUHBrq2VtBV0wfLqAXsAJvtqFncZ4cqcDnfTy05YyO2tuh2XtNQZnObU4bd8heJIxe1h4k/mhuJ5qTiSnhw2oYyCq7DHyeNrjX6XKfB8qUJf09E8/x1kX8o+bscjaDoqYN7a9H484PqcHgqp6oPaxnbgtrnBfsfDS5WBliyyuA2BXu4skZRtHkZMbi6ZAWaKTDtKhdbRPoBadO3pk/aL0e7CjZ3k8e7H0UcfeXMjraHv1jKpq73jldHRhVRW+8Kri7I5hKcX3XSixS0x7CbLuqyExdMiPfWlwBl6YrMSvs8LV8KPa+nN0kvqZ/YExBntzfwVbY8wWKLx+ZzKwtCBp5LkXQj0GXQTLpGoaUe0Us+oSUw7af0Rf2QRy2pse5UhIyKGMa5kmPspl6Ok76JzWjyoYduUXRb2WAVJdkltDGOT5DaNQ31DVLUHsBKx0tFdKfaK3ovdBU83eCt8MPskubopg+xO8JJB7M/ROfmSP92VzJnUZbET+k5UVRjTMVDXx3q7omnbYALsvSOWC2H0dhO0I3HT+jhVsBPNH1VljIvRNUJ/dHR/1ZXYVHzJ75b2VxiszY4AweCh4ciaGZi3zUGOStMlgrLbOKbK2IukkJKNgdc2TKKK4uWo+jpW83Mdgmk6FXZJJ7KK/gEBn0v1R+IbBgbvvognsPRpQj0LPs6AXejoBZ6bRQuIzZCp44pHy6MP+VJPZSC0OlsHtslx8Xo2uUdSySOUXabK4rcPfV4OJWeCg9STOlbg0ZWilaxSVMzT1TRh88chYQo6ijqBuulJHMwjDzecWWli1Ysphge2cB/RaqA9gdnoub5HZ1fH+o6D3ikl0bmUUZ9qpZu4uf2W9FdiesZVDKHNetDV5XRd5VMtNf4l24nT2ceRNrRFTSZZAVPiEOePOGqHk2+JF3vBkJVZP2iMUyiqI7i66nN2W6hWdNRsqKjIX2CsRw7HGcwkTckK4tBWBStqcPMT9SBZH4FVNjMlM91rFB4dSw0knf0Ks46Gm/WWSi6jKrKIoOKYeaXdfBUODyuinMRW1rI6OUXLwSgqPCsOdIZS8XWTpUw3vRWgmOoDgg+JI28yOdoN1saanw3P23DRF1FJhElOWvyHRMpUFswtHIx8TXl2o1VnjL2VOGCVutkNW+pwyuZGRZRsqYeQYiQR0QSp2Gcua2ZurDnnRqtcDjbJbO1PlfSN7WidSV9NEbhwsqcm/RLil7CoITFiYtsr+V2gWdZiEU2IDL1V8TcD6Li+Tdqzs+M/5IaJ/6SWoqsPsHWVdTOtWH6qxnN4j4qL7RdGfqMAqKuMyRAnXdVtThlRFEWPbqvQMCqntonRPi2WWx2ucJJMkWxXXHkzl8iTAeGzLh+INlLRa/VT8WzPq8QbNFYfRVVXVTCLmMY5RUc89RKG5VRKV8iMnHoOoo6iM9t2hQs9BL64Xh2hUuKV01MzKYrEKujxOpkYLMNymXJi1EJZSuhlJL9Faz0EtTRCpjfsqarkqHx5nd5QRY1WU1O6mN9VnCTphUl0T8l7JM5fqr2noWYvh5bzdY2rDyV1Q8m53U9Bi9ZRB3KfumcGwKUT0qkyntHqVNF3nfVCgupXiKRwJspaaUFhb1S0C0djxH4JL9P5qbC3/AKHA39gITG5GuwqRgdrlROHECkgdf4As1oC7D5TcHtXQ0YcnuOhISxFAIycERrO41+pSLQ1LtC1Z7Hj+hS/RFGME7vn6pttQlf3ikG4VgoucH7rke9AYP3XI53eXJPs6YdEFeP0d30WUm3K1dd+ryfRZSbcq2Hpkc5HGpAo2p6Z9ggtDkZB3UG1GwDsJWU9HEXCPOlOEGO+AjpxaIIMbCuwR3u0JUDRFye7Qk/dTQFy9jaL9YC1MHuQsrSe/C1dNrAEmY2AFxTuBVkg9mrbEReNVc3cRx9C5fsQdF1tEjCpwLhUbJDQLMTqaV7CpLezTYrArPoJPJNcatRGHaoGQo3C1KXRSDbZNiDbsVZJGQFZ4oS2NVJqW2ylCHQcnZDLoExOkkD0oaDZXSpEb2PG2qMpg3XK7TpcWQ4idkzKWmNgbqMui0FsWoqREw6XP8FVGofJJmJ+yLrNYtOqAGjwRshFKhpNkj85e0BEv7GZ3lqoo9ST4Jagezj175us+6CtbE5ugaG6JZTLI9z29i5uo2Bt7v2HRTAuKPTMrfYO/PG3MevUqWnOaOR/XZMrS0gdsX8E2nNoz5lM1asVSqVBceZjO8B5p8Ezmbu+yi/mujDnvzeCi0n2XTaNzwHjpoavUR8s7l/gvc8Oq48ZwyOudMZGjSMFns2PHgLf6/h804YLDMb5R+8r0r0W8RVFPivq5zzuMeWmYTcMPSw/1vdeb8jF24no4p2kmesc2KkxSnw6orSzrUzEC+uzLePW3QKg4joK5lbLilMJjSxvsATYAfxWQrOKK+p4wE8WSf1J/IpmW0JMj7vt4nf8AJejcQVVY/g9pfFnlnmEcLBYZx4/TTZcWXE1RfHkpkeHVNTUUzZsUhFdh8gHsyOwD+3rray8N4xwttNjssRZk5jyQ9g0NyenTwXu/D9RX8PTthrYo5qSSxkZLHcC/1/1os56YOHWS0RxLDGvMDzmyAWyHrby/oq/BzKEqbIfMxNro8GqIuWbWKhpPf6K1noXtidn7pNwN/qho4WskXuKWjyHF2Gs935qOM2KlZ3FCwdtSRfomebsKpsQIDzZWsukZVVUGMvN1TERy9kUD+wEsmZcHQsTnzQlVk7ExtRBJu+tBwxKWxkKo5kJRNPWsh2QduNGbV3YRjMRkqc3ioaOK1nJJa9shF06mq4s9jshT/DNqux9Rm6JIA5LU1UfeFrqKCsYJBfZNbonSvsLNwxRMkcOzlXVNczJpuhxUuPaslgmh5tSCqYEyaoqQnRVgrcijkxByZptiKkixaHcxSVGrFUetyFI+rl2K3FjJxCZ2OICs8MFoln/WibXV/hD7xapMyajsfDXIMeLpbXCdbVPDNFynVeyirKcc3VSQMYBuFDi5eyXRyCZK8fEuuKbSOVzUWXEYYHtylXFbEJMPBPgslBUPMoaXfEtVUEvwgOG9lHKqkisJ80wOmqmRRWzWRlPFR1HbkI/NZg849mxSsNWO64hXSr2cz36NiBRRDRwRNJLQWN3alYm1WfiKUCsGzjqg4p+wJf6NmajDzIXEjwSQS4cZNXBYxlPVk94qaOmqujytr9Nxf4biOrw6MlotZdHimGxS5jkWLZTVI3eU00Mxfq8oVH9GUZfhq8bxOhmA5Vr+St8Pr4o8EAk2AWCjoHghxK1UEWfBizwC58yjao6MXKnaAqnGKd1R2G2AFkLV4nC8BoGyr/VnXKgfEbldKhFHM5SCaabmVgIWopj7MLI0bclQLrWU3u2/4VD5Hov8d2mSRn2qfUl3IdYKNnvlLP7krn9o6DJ1dbUCUgNLghzV1PyFaCioWTVLs4VkMFhPwr0E4nmyk77MS+tnvqFCayfzVzjGHiGpsAgH0u/ZT6F5MDZiFRE/Mw6qd+PV5Gr9ELPDZx7KRkIsmpB2PfitY/40RFjGI8gwteQChmQtUtNG1soadlnRhhq60m3NKVlTiTAckjgi3xtbUNJG6O5LNw0apOSQUimgnr8+s70ewV0sVufJdPETY5xduhVzRxNaR4FByDxspaLCpp7gvfdRy0z6WTlHotrRwiLt9FT8S0zXyCaNqKmxXGjH15cgCSwXBVticfYv4KnfqLKidgoJwKZ5xOO5XorfdM+i81wg5MRj+q9IiN4m/RcXzO0dfxemDwaV5VpEQHtvtdVBNq1H5+zquWSOldGtjoqYUmaPrsstjeGte93YtdG0mJTBgZmBAT8QmEoDgrxbRxNGcpqRhZJTSsChZQsppRlaND+ascTYWEVEY1G6hkDpWCZu6ZyadjQUZKmLjeDxVdKJ423Ntgqjh/DYX1YhkZY36rU4FNc8mXY+KGxnDJaOtFXC3s/EhzdUNSTpgOLYM1k7QwWCpq/A2iTMG6H9y3MRZXwNdpcLjQtk0dZyMcroSWNWeT4nhzqae+Xsoael9nnYvQMYw5vM5UgsDssxX0UlFNYsvGV1QyciMlRAzi6skI9YiY/zVjh3FFOAc9OQT4LDXU9M5VoQ3k+OUE9PNdxDiNLo+gxGlNJEBUDQLzoOd+5PZKQBqg4hR6rUy0xonSxVDM1r7oGgxJ5hbduY5Sbrzk1kzRpM9o/xKSnxirhFmv080vAPqjbHHsxIczZBYpXsmpJGDcrLMxJ98x6qQ4j4hJxY64gxp5LnsphDgRdqPGJR5dQEPV1cMjNN09y9oNL9LHCNbo891VuDG5P0Vm7Zc0+zoh0QV36u/wDwrJS98t81sakXiLfELL1FDKJDZqridEs6boEYnhP5Lxu1JZwOoTPs0Vo5veRsXcQQOqNh7jUrGfQ+P3oCPqvdqvg1qwFY1fcCLHw9MBl2DUNUbIifcIeo2RiSyPbIqTScLU03umrLU7vahaekPsAlzeg4RMQF49FXPhc8K0rDaJV3O17qGPoXL2QMpralENibkUb5dO6oea+5aE72ToJI03UOWx7yj5kl+6kL32WMTBt90bh2UPsqrM8BH4QXF+qE/qUx7kFYv7pZ4uC0OMBxg+yzvKJJWw/U2XsS7U5jrWScl3VcG27Sq3onTsMiluzKV0kmRh1UbDliOwKgeb6Zi5QasuhJ5LhQxhxt/wClSvFrZ/yClpwLZzutaSNxbYwB4Z5lI8mzb9FIXAkk7KGV99fHZBW2GVJCsbdjk4yWiAG6jjzCI+JTnuBkGmlkWgJ6Gzx2YPHdNpwSwhSSgk2vqd0VRRsDSXtuLGwPUouX8gjC5EMj3NcPLojMLAk8iP33KAnPMeLNtbwRlFL6sJDl1sALqc1cS2N/1/o0OIUslNTRvjaA0lhH31/krb0f1tPg+KjF55Gc2Jj3wxG4ubG38VU19WHwQTPfnIYyzT4gW/dqqpksro3Zn6l+43IXGotwpnY5JS0brgaqp6niWKtqtI5Kl8khI9na7zf8tF7bjOMMwvgRuJVLAKyok5VIDe4G7/3LwPgWlqJMSp3PY8U+cDJ463st16aMfE2NUVJTPPKw6PJk6Z398/y+y5MtTnxR0Qg4pSZ6bFUU/EnDYhDTzYoy+R99GG2gPjvssfg9e6WWbDKl3rUGc3YTv00Vn6F6cN4cq/W5hHPVvsHyDpv+9NwfDI4nw1mdj5ed2CBvbf8AMWXnTai9HZGKdpnn/pO4OrMGphitETUYZUyWY9jLcs/IR4heajPzy13RfXfE9NgjqSrwSpcPUsYpebGejJfEeGv8V8r4hQPpcQqKdw9pA8sePobL2/h5+cXGXaPF+Rh4yUl0yJvcUY7+qlbsom99dKJs6q9wVQVMbs97rQyi8ZQHq7ZHkFXwukc+dO0UscbnPtmcpvVnXRr6blSJeqummrOdqgGSAtUfKerPlte8XRjKVhb3VOWSmWWPkigET1KyNwcrN9OAShntaHp1LkTlGmRRwl5sVM6laNk+m94jJg2yRt2UjFONgcVMCRdWrKFnIzWUEBaDsrWPKYEmSTs0EmUMtMwSKF9Jqj6g+3S/2fdTJiSSAmQgdldJA0qe/ikkctJuxoLRXyQ2etBg2XlZVSVD1cYI68aTI24lMSqRZj6KUHRRNTh3LrlOopsYju9V1PTOkfZXGI6lQYfYVA7K7IS/k4skVyIBhsrH5hdW8HPbBky6K5bTh8QfboiqCGJ0ZBZsoZp6KYFVmWyfsKN8rWmxGq05pIc7tFncbiZFU6N0RjFMHlZAaxg7OVKK0HZqEnDWMuoo5O0m8aCsrDxW3NrJfXS3oghJZ/dT5y4sDg1FY4geRhcdUZDlTKitfHJZCRSFsidX6gPTLGibyyZKK6Q/Etdw/JzsOkz66LDsFwthwk/9DkHWyn8iCUbRTBNuVMFLWCRzfNCPjZzClrJnsq5W26qtqKl4kVY7IyDhGwSiy0NGfZCyx0NS984aVrsPPsG3UPkLSOj4/slGk6KPghCfbognVc3svWh+HMaKsq7jDVR4fJ+mWV5HlzruR5WR0UHEdM0ztfZVclI0nurS4zFdgKr3Q6ByTJLiymNckY6vp8kpbZBjKDqr3GYstR5KllHtCrxdoDVMXS4XWcHaJ0cdxmUr2WAcmMTSR8ylD+oRuGFk1PYu7QUWFt5sbmLsLzQ4kYS4AEqUh0S1MLe8OiPp7Op2u6hGy0I16oKitHUuhf1Sp2g0XNOWupM2XVU2IPvFIw3uEfTyhjzHcoTEKcvcXZdCtF7FZiK2a5LC5VMhs9WmNxGGpOlrqukFwuhMRC0H6/E4eK9Gpz+jx/RecUYcKmM+a9CpDemj+i5fl+jr+K+yOQ/piMNiFX1GlWEaT2Fyv0dKCKCF+cvdsipS0xloVNFizWkw/FsiqKpznK/W66JRdWcVq6DILTQOY9uo0Q0Foqjlv7pU87eTKH9DuocRj7AeEFT0B2tjqj9FeHs23WgwyqjxWiMLm3kAVBRvFXTmFxHMHdUWGS1GGYgHDu3U2q17L2pLQ6eaTBcUyPbaJ5Wkp5GVMYkjsb+CB4tomYlhwqIm9q19FR8H4o+mqPU6k+Quh6tDVyX+zR4nSsnFn95Uk9CyR/q1UBrsVpKvI8tkY76IXEImTsvtIE8ZEJI+fwFNTBWkVLFkF2q0wajppH5XsXos5qoz7k0bBbafCqEQSuEWoBUNJgFNNTRvG5GqHJUExkgUNlqq3h3I85X6IL8DNu+imYpWBPIVjJhcsV3XuAhXNsjYyIAy4UT2WKLA0UMo1QM0XGC7n/CrM91VODd9WzlyT+x1Q+pHUG0Rd5LOnEJBIQfFaKfWJ30WPnFpXfVUxJMlmk1VFiyvY7vMCkZJTSEXVQlBsq8ESWVmvjw/DJYmuEgv9FL+DQlmaN4P0KyEVRMzuykf8yNixGpaMue6zjZlJ2W8GDymrzNcpKyimYcpCr6PHKiCbNv90VJjzpLl43Syi2VhkcVQBUMOfuoaoa62yNFcx7y4tuknmgcNWpVafRm0ytp9JwtRR+4CzzzFzRkWgoj7AJco2E6sF4kAyNWc4vHlQhY5iEPw2RbIHxaJI423KIIdbuqG9n91ypRGzuULrjC2ycyRt9U90jQFmgpog5ARGHts9IHtyJaB15UknopDsIxQewKpYxqr3EdYFSRjUoY+jZfsJKNVAdHgdUTJ3kPKM503CdsWJ0vuz4oYScs5uu30Rm8aAlYe8gq9jStK0KXOkIA6owhrYxb6IenFipJ3a26oPboeOlZHUdkBvjqm2c7QKORznv8A3IvLywGne2qPQi/pkBbZmmw6pjJLEOKnl1bZQBt3387Ip6NJfgXHHcBx6qafNEQGt1GySDvxXP8Aq6IqGNdUh/ldc7lvZ0xj/OgeKPIDnbdxKIZC8Mz+e+4v/oo2iouZTZxfNe5PgEXJTc+MCOzIoyc5B223/NTlkLRxFbXl4o25tTnswDZGYPQSyMzysIkuMhsrnCKNtVzWRwCR0eSRjLXJ7aucYpGuo/0GnkMj33PTQdB/rouaWb/qjpjip8mWmGSU9DTU9TS2mqWEbnSP7KOnwSq4j4tLaZkhbUzmTO/wL7klM4Q4Dx6qjMz6uOkdI+7c5uQF7h6K+C48BDpamrfVVEtg+R4sB5Bcjjxb4uy7y6uRaVmEUfDnCcjaVrCYoDqd7gH+oXltNizKeN0ocWCnex9/PqvbPSrDS0nAFbM9zBoyPP453gL5xomx1mI1VAJPZSx3z3toFzZ8dSot8OfODkzXcSYlU1WBwYlRNdJ6nP3N7A/yuvJMfqubj89U9mkrwZB/EL1OPEGUIgwxlM9lHOeTNIbEEEaLyDG3f/UJr2uHkaLr/wDHQe2cnz5JVFAvUtULe+pWajxKh/tCvVR5rJJD2CgYpLSIyT3ZVezSdXxK0yObtE1WbkIX41PPuFEGaquPo5p9nMf7Rqt6TWJVnL7bFaUgswhRynVi6A52+0LUBUXEis6k5ZCQquodeRUxPRHKh9IfaI+TVgVfD3wjSewtPspD6nM7+itoD7D7KoYbvVpT6wKeQTH2VlX7xSt92o6we1XbR6J10K+yF4sRZdJ3U0EkhK/ULT7GxdAlQLq2wDuqtm2VjgZST+pSH2LlOF8iZsnt2XKdRWYhuh6c2lBRdbqTdB3aJF1Y+jjyds22HFslAHKfC8vMkaguHy2SjsUTR+zqSoZlobB2LILTnwVDxHDfK9aCbKZDr1VfjELpqc5G7dFRE32ZmeJr4A5DRRsz6qx5ExiLeWUGKacP92U6GOniaBoiKeJj4spXCkqXM90VNSUVUNOU5azMBqGsYopDzItFYVWGVkl7RqOjwisL8hjKomqItOwGjLdQVq+EyLub5KjqMDrqbtvi0VrwfnZWlj1LO04aK4E1MExgcvEJFV1LbnNlV7xJTv8AxEuy7qunheY0cclSNOLtlVTBwnH1W0w8/o7VlqeK84Wow/3AU/kO6KfHW2TPPtUQULJpICiSdFys6VsSjNq0LQRH2gWUiqWRVozlXTMUpgR7QLui9HmTgwvGLer5syrRKwxDtJMXxWmlgsyQKuirYRFlMoU8seQ+JOILxAGl7SFn6wZXhy1ccUFeQ0yg6qSrwCmLR2wq45UqNJOzI0z9SES054iLbK8ZgNJHJm5ospWYZRx5u2NU/JClBh0vLlH1RWIjlVcc4VrT4fQA5i8ImoioHMyEg2SyduzLoOoCKqjjePBVmKUzoagTBunVWWHV1FTRcrOLJ+J4lh0tM4XF7KVNPQ3IqS4F7ZQiJJonQd7UKgnxFgeQzoohiLXHLmFkygzNoB4jj5z8zNVTshebNyFXdXVREG9kmHOhkqBfZVTdC0r7B6fC3tY2V7FpaQWga3wUtfkFE3I1RUh9nqubM21bOnBSegar0qWozdiGrfetRXwBc76R0rsovVXnF82uUo7mmGpACpscrpaesyx7qt/FKgya3JXaoylFHDJxjJnotbWwy4e29r2Q0VYySkyOIuNF59LitRexuozitQPFBYJILyRNtT1LoawPDxa6OxWvilAczLfyXnf4zNbKnR4rOfiReFt2LHIl0emYXjTI6MwyP081QYpUQyVgqKd4aQeiywxKYs7yH9bnz7pVg3Y6z0eiRcRWjayR+ydUY6wjSVecS1NR864VExZq8plg/wBivLbOZXMA7yteHq1sk5bfYLJq44W/WZHeS6mQNs+Rr4Hj9gqXDp2RUcWZ1roSAezl/wACDqHO9SpAHW1U1GzFlXyM3zKtM0ThkYRdNxRxAj7SosMlea2W5NkyjSMW9SfZuVHKNVZVjje3kq6TuoMdDLaIacaoroojHzL+SMTB2Dm0itn7KpwjSXKrZ+oXLk7OmH1I5dYz9FmZIWuqZFp5Pdn6LMP0qZPqqYe2JlXRHLT2FwoS2yJlJt3lCSug52qGAKYBMGhR1HE2TdZmiCW1UltFb0mGsmJ2REmDARlwSchkZ+MapZR2FPJFypciZOOwjdsILB7wLU4frAFlo/eBabDPcD6KWbofDomrJOXFmCqmYgQ+xVpXi9OVmzpIUMKTQ2VuzQ0FfDf2jQj45KKY9LrLM2TmPcH3BKolRFmoZTUZfuENitNCGezIKo/WJg/R5U0k0xHeQdmSRMyN2TRPw8ETZULFNKL3aiMPe4z5ipu6LRa5Isa8XgVKBYq7qyBFqqsSRm90sNIOXsElzdVCTbVFzkHb7II9/tG6cWKoZJLY5QkjOcFo3JTJG6ly6ndkIPgg/wDQye9hAjdGwMDe08qKUNDy3NfxKfLOTKH+IQwNgfFCKfbDKS6HxNvKSNgpp3jOGsdqd1HTah3io5ewXJmrYE6jYskjQNNfBSsZpE1BgOcVYxAFkbidlp6Rsbc2dJpa3TZW9FFHV0Dpr+2ieA9o8D1VcI+YwadoHX6K4waNtJRVUuhc+M6LkytJf7O7FHf+i+jaylwt0zdARy9fPqFUc6OmpnQ3BDzYgHeyu6NjMSwB1A5hfMyPOy3Uix/hf8kFheA10tX+riNr9zJJp9wFyQa3yOyabpxLv0d0jocU9elMj5ajs6A2t4LdU2ATP905kJ6X2UvCGHU1DBC6QMklj0Glh+Ss+K4sSki5uEgMOlwdlztuUrZRtRSSDcG4ex7J+j4lS6dbbLS8N8V1uGYiMKxWFlU69hJCxUHB+J1lBRyRTUVVWyjSQR/2f10RfENZU0nBM1XRtFLXVknKjmm0yeP3ss7T0QtTtMpvTxxm/H6mk4awuUGlpH86tLDpnA0YT5arzd8jIeXXsuJO+w+FvBD8MZ/XK3DpH8yWQkc1mxGt/wA1e03D01WK2hykEwh8fmwssf3qOV1OpHdgSji/gqsV4idiVG2sdLyIz/ZkC8j/ABFvLVY2oIlqHPv3yX3RGNxMpsTdTVNSIRF2LEHT7KKeah5YZTXIta79CV62CChH+V2eLmm5y/pkIKiOshUgN720UZ0erE2SvHsyq4t9rdWR7irKidsciridWSzK6J5BoLKNQetgpfW2fMrRbRCSVkz81wrCnPYVR641cMQt1U5pyKwmkWE+qrZIzzO6nmvuoTVNJRjaFk4yJoGu5g0RhYSEAyrThVuWlbHhKKVBgjcHhWdM9oiy6KhNW5cysePGyDi5CKUUWNY3M/ME0N7FlXvqnlN9aemUZAtBgi804xt6lV/PlTH1Mqzi2bkkFzxtt3kbggaCqN8zyrfAiSdUuSNRGxyTmXhT2d1NUjBouQ7CtxAsBN0IOSTmzJeIMw7iq6dzz2cxXVjjcTjySqRpKLGGUUZF1a4HXipLnjosJXxvDLhzlecIVLYmFrtyEueH8WNgl/ZZYhjAhqnMuisLxymfds1vuqHFaHn1jpGP0KGZhjwe+R91ouFKwShNvo2zMSw35QmyYnhg+ELJx0Nh3z+ac/D2kblC4fofHP8ADUxY5h7DsxSHiDDmDMGsWQZhzBrm0UnqUNkeUALHNmlPE9B8oQ44ro46gWaFRDD4SeiaaGlY/M610ecDeKbNPifFdJUU2RjNbKr4cq+ZiYIbuo6ahZKA2Jlwj6Ck9TrYnSx5LlRnJcXorCLTWyDjOrdDWDzWcfiT5BbKStZxrQc7lSgbqtwLBPWZMuVWwOLgmSzqSkynw+Z7qixBC1tB7oKOrwL1Se9lLTtyC3gp52n0P8c6c+0CnJ0Q9R3wpxqPsuZnSjK47UytqbMcqw1s/wAytcVpX1OJBg6lCYphVRRgF4NivRx1xR52RvkwD12oJ76UVVR8ydPQzNi5uXRTU2GTTR549VSkJY6nxCppzeN+qkfjlef7VQihlEoY/s3UdbSy0zxmboVqRgiTF8RLM3NUQxSufvMVa4JSw1sBidbMqzFcPkoKjIW9k7FBNXRmhwr6sj3xUZqqknWZ6ZTxOecuWxRUmHSsi5nQbpnSAwY1MxdrM/8ANIZn90vP5pRC510+OmuEaMQh/wC0poW59kslLbUbo3DKYn4UJPQAWohIGrUXg7Gh4KMrWsMWUN1QdBo/KkTtDONF3VvvSJ1JrEFDIf0TXdSURvEubN0XwdjawdtrkSzuD/Ch6zopYzdgt4KDWjp9ma4hp81XmDdFVequL9lpsXsHlBR5cndXbjl/KOPJH+mUvqD5H7FNxLDXw0+ctK0tNl5g0UXEHtKYtATqeyfFmJEbrXUsTbDMpeS+ylEV4x0VRUh7Yh6vnUNOx8j9FYGny0F8xRGAU7Jfqpt0mMlbK2elk0Sx0k3LWsqMNbkFmFPioPZdw/kp+TQ/DZhDh8x2VtgGHzRPkJ6qRWmHaMKu3olRY09M/wBXkd5IJlLNNSU7mtuGFXNMb05+ijwI/omXwup8jVZTYpTyHK0M2VHh9JUR1cj3MsCtxWZbd0fkq6fLyx2UVPQaKGsDs+a3RV51Cu60+wc5UlxZFuxkMbmulIPRITZMMzmgopmaDcO9+rV3dVRhfvQVcHYrmn2dGP6kcg7Czcg/TJPqtI89hZuc/pcifF2Ll9CSjsIR3eRUruwhCdVchIerLB7PkDVVXVhhT7ThYVGnw6NrZCFZy5eV9lV02sqspWewKjLsoujJV4/S3IWcdhF1/wCtvQkuoKZBBWDthaXDP1dZwHtrQYUfYaIZlobE9hFWLwFUvLZzSryouYCs7UZxKbOSYx8gWWMy6JmQIbPJ1KUPf4qtUQCwxl8yeSxBZn/MlAe5YIW9zApcPc0y6OVbKHjdFYRfni6WS0GP2Rd136qVm53EXt4rT1LM9PYeCzdSzI8qePorkVshfK4DvKESk3SyOYezuVCyTlnZPQl8WOJcUl7LjLfZRvJKPFgc/wAJRJfsrsvgh+qIjk+LyWaro0ZX2LA/K9SVIa5mcKENJ7WUqVnuzmSurspHapiRMyMD3fkiKSGaY9kbHRJEy5GfbzV9gdM2Swaz2fiTqo5cnFWXw4uTSJcHwOurpCyKLmOOtoxe35K6koKamo4cLF5Kqea8njby+6vOGuJ8NwGN1HB72cWL2W/irnDaXDKvFW19e+qkrSRkLHsHTzXlTzyu5LR60MKS/kqeHKWFmKOh5NgJA2/W1v8A5RVGHCcsF9NNVqcdwujwbAxPS4fJBWVLznD5g8x6anTyWewSmkdLmykgnVTxu7l+lJPpGt4fie5jR2rr07grBsPqmF1fCJIzpY7Lz/h+JweF6lwlE8xAXsFofYhm1EtsVZR4ZSculpoYY93lo0tZeJ+nUOqvRXLW02cx0eIxyXZ4EEfxsr70g8aVOIYpPgmFNHqtO8xvk/vHjf7XSYXh7cb4Kx3h6vivHWUT7E/BIBnYfzAXRCS8ibOaWGUcTfs8B9HFdnq5e37beNh206fuXoPEfErMBjwWvjGYQTGOfJvkeL28wvJuHvWaasjiogBUPeI7/darjWsiramHBcPYyoliPtJNwTbU/ZL8j46l8lfj7/8AwW+PmkvjP9XQP6cKGkqMXgxnCSw0tYzmaG+qwlHn0D3arScV4nDVUUGGxe5pIw0eBf4qgoA3PlXpfGUo4UpHmfI4vM3EPjDgE13vFLsFE/vrDEp7hVHXj2qvPhVTVj2pVcPZLP0gIRpHtRbGNumPFnLpOawblm6eyF73gBqMiizomOPlyNdlFkjYSvlo3xszFQZVq6iETUmjdVTiktdpalU/0ZxZXsClgj5j8qfJFy5FJTDLKEX0BCz0jo2ZkDey0s7BLSeYCztRFklIWhs0tMaXXXA6rmNXFtiqULY66YRdOTraIBIbaq6wIahU9u2rjBe+EmX6j4vui+tYKRmyj6aKSPYrz2d4FiNOJWG6Bo6Frn2sriRtwUzDm/pBXRjb4nJlX9FVidKGxkZdl2BU3OfZu4VvjcXsj9EHwv2a0X2WnJ8GNjX9IDxSWakqeSh2VVQ46OVjxhFbEGu8VX0DW80NKMapDStWFQGpKNZHIYMxOqPoKVkgFwjvVIuQ7spZNE4ybMvzJbO7WyElll+YrSigiySHKquppGDp1VE42TuVEdPzDEHIWpzmcNLitFSRRNpG52qjxcsFYMm11aNWTdnovo6wqGpia+Rl1d+kTBIqajiqYmWyEIT0XVcUVM1r3Bar0i1NPLw++zxey5Mr2Vx9o8+xmPnYXC8eC7guG9RlUsY9YwMAm1kRwZAIqsF70mF1FpnV8jdMP4hoHFx7PwrJSx8udzV6pUwQVDy3PrkXnHEEPq+JyM2SZJWwYuimrNCFO2+QfRQVXRTQaxhK+it7KStm9WxSOXoCrvH5Ya7DI5Q1twqTG4byp+HS8yEwOcuyH1Rw5FUmGUccNVQGHK2+VRYNI2hrfVpgMpOibSF1LPrsiMQhiqYOfG6zh1WUqdMM4Wk0FY3RxstVxN7Kz+Kysmhy6ZgrzB60VVO6mmIuNNVS4xSOhlNtuiqmR/2VuGVT6WoD29CtZUvpcSpGE2BssdLH8YKMwurdG8NJNkJL2h1vRcVOHsjizx7p1FJzYzC+wKKp5WSM+qAxWN0LxNC7z0Q+ypi/VlbidI+mnJHuyUMxxacvRaKgfFidNkdbOq7EKF1OchCpjnemCcfaIIBc6q1oMjBlIGqBpGNt9EWzNdPJJomm0wTFy6OQ22KEo3du6NxS0kXmqqjkyPLSppUWuy6llZyi3rZFYcbxKkqZHAG2ytMHdenUcq/kpidSJ6zYKSH3YUdWbsCfBrGFBrR0XsCxVoO6DijZYXRmKlrBqqxkttiU8W6C4xuyzp2xh902cRSTWLdEE2ocNrppmvqboOwpROraWnZG4tCoZJLXA6FXcsmaFw1VHNBJnNmLowt+zm+QkmqJvWHvpy26N4PkYMRDJH2BKAigkyasVzhWG7SNdkIVMjio7IwTbPRJqWE04cJB+SdFTU+QAvP5LNmunjgyFxNvNRCvqCC4NP8AmXLSK0zOGkqwbGnkH2VlR007GawvH2V/+KYbIS6STU/sf9lKK/DXjSpZ9wuvlF+yHGX4V9I1wZlLSPsuwRj/AFd2h3PRaSjrsINLZ00N/qEAamjinaynmZyyDdJr9NT/AAqazMgJ/d95E1c0ed1ngoGeQGPdZBp/hXV5/RpFRMOivK25p5LdpUbI3j4CmtBSYjtlFNsp3sePgKhka8juOTIL2g/CD2wrjoVTYWHCQXBVzfRc2Tsvj+pG/ZZqo/XHrTdrIs3Vs/S3J8PYuX0RyDsXQp7yLk0jROFYLVYlEXwjQfsroZzMrB3UTQPtKFanhevAOh/JNjwGvieCWfuQMuyzo5TzRZWckns0Bh1DUxzgytsrOQMyEKU+x1oytf8ArZQko0KMxO3rZshJdkUN6Ar9tX+EH2Sz9+2r/Bj7NbL9Q4eyytcWCrKimvUZcqu8Oi51THH4q6ruHu2JQ22ihCVMrkWjFS0Lg3NZQQwe0sVpayldEwtLdvJVUbLT7FWvRFEMdE0nuqWOi1Vth9M6QmzdkdQYa+d5swpbM1syVXS2flT6KPlyiyssYpuTVlj9CgodJQjJ2hoItHe5WaxUe0sPG60ct/V1ncRfrmt1U4FmACOwzqGWPthTvzPZ4AKO93m2wComSlFPQkbGMGurlzzcKJ7rdlTAtjA07X8EWn2BNdIaIXnyUkUTSfEDcrpJuYLMbb5k9r7AACwAStyoaMY2T8rTXQIeoLSQyP6JXuJGrjb+KSmsHlztvFIk1tlZO9INoYXVMjYx03VmXujikaHmNoFgE/hKkqK+pmpqWwl5L3AHd+mynwyjModNNn0uGX12XJkmuTT9Hbig+Kr2TcLUrWWqp2cyU9tgLdtd16RglN6vTfi0sBnk0DIh+95Ph/VVOB4bEaOGoDDljj9oX7k38FrOF3smpjFO8iQzAH/Bfb+C8z5GVzdnoYoKEUgyAyz1EtLVu1fGD9Dvp+9T0GF8qZzWNsFcVkdPPxHJUwQlkTwLfwR0UcWcNY0g6HZJF6FbJuH6Fz5g3Lqt6wihw8sh1meLC3TzWfwOHIAbWPih63iivwzFXUY4cq6iG+k4ewh/79FeCOXJynKkUWP4XS4Lw/jGNsZJA6Bj5jKwAm58L9bleZ1vplqxgEuHYXDO+rnhMM1bUWByHezBpfzWq9P3HvM4Yq+Ehhz6esqOW+bOe4zR4tbQ30XzxT6jVeh8X4sHHlI5Pl/KyJ8CyqMQkip3GIMBOnmquPEKkMcyJ3JD+/k3f9Spaz3Kr4d12RxRXSOSWacu2Fbi66jfaRczupsRtMnrRNMuB3M11FJ31JFqxRyd9c/s6vRI3u6qtqRaVWY7qrar3ipi+xPNuJE3vpJFw76bIuk5Qmje1Fuy5FTRSPbJlR0crnhTl2MvwusLk5sWQoasaY5yo8Glc2pLDsVYYq0aEbqT7LQKSojumMRjwCzuoM5g8tCZO0JLTLPD35gQeqr8XgyvzKWhe4SBG4hHzIrgLKVSDKNooYmJ8rLBKIngkWUj45SNl0WRpgjwuB0UxppT8KYKWb5UrkqDFOyF3eVtgh7YVf6pMT3Va4PA+J4c5SySTiVxp8kXdrDzT2d0pdgms7y4juF3uoKJ9qstT89iVFELVF1WDpHPki7CcZf7I28FW4A61bHdH1/tGW8kFhcJjrI/qs3/ACwRi+SH8Y/rEZVVRm0oK0vFNBzhE8NVTBh+QjyQhJcEUlF7ReYW/sBWTNIyqekPJARIqnatU5uycINExHs5EJJDmizLpJ3Bh810c14v6o2OoehtQ17KMW3WbxBj/WBcfEtNJLePKhJaVsr8yvDMorZGWFti4Rik9AxuU6KyxHiKrq6DI9xsdED6szIGpKmJraewSyyRZRYWjX8LRCqw5kUnULXYBgUQjL7bLD8MVj4MMztGrFY0nGNXTsIES5oyW0UyQk2qNxT0obiMd9iCFguP4Ww44WjYi4XScW1zpxJbTwVPimIy4hVmeXQ+C0qZscZR0yurFLTm0YUNXqxLAfZhb0U9g2MC4uxVcDZGyCUNyrQSRtkGqZyIgLZdFWOTiqJSxcnYFX5nxCRneUMU0wjynYqzMbbWtokEbB0ReXl6NDE0qspDHU09UJotLoqoE1TF2wrEsb1DV2lugTLM/wAF/wAZGbfQzG66OgkB6rROy9LJt2+SzztmWCKAKPmwgNcSrWkhdXDkgXugq0jlizkThFWKV4kOoQU32Z4l0SU+AVtJV8xjdPBH4rhk1TA12UXCml4kYRblfvQb8eadox+aPN3ZPxOqB4MFlaM1wFL+FPv3gkONv6MYonYzIejE/lkDwnS4I6Q6yhQx8MNz3Mil/Fpj8n5LvxWovvb7IeRjeKif/duLl6yoP1ZtKTE1SnFakjV5Q8k+c5n3JSuTYYxSEqPd5ksR9mFDPLePLlSRyezHZQrQ9qx1XGyUIf1VikLnBJnKCtBtDRTMXGCJSXKYc3itsOhPV40hpoflTSXDqmOc9ambTJRDD0CmitEOwhM7/Eri9/mg0w0gueRxiPaQ8DyWX6XUMjn8s6lNpy/Jl1RS0C9kbHNKa+4KQXBT390JxTmOBGqgqPfiyemP9+xYFHarrOUnVddYIwgpojv8Kluuv5LAI+Wz5F3Ki+QKUFqXS61mpEIiYNmgKQd1ycRomnS6xiPcKJ9LE83LdVKO6kJcjZmrITQwkZbKxwqpfhsJZDsfNCXcuzFHkwcUXQxubwI+678bkI1aVSZl2ZbkxfGi4qMZJt2LfZBSVXMJcg5DolBW5MPBEFTTc2UvUL6G4RoCW2i3Jm4IqPws3VhQU/JRC5FzbVMygl0GYdLyKuOU7ArdHiWglgjY8MuBYrARkZMpTfiUxmrNbidZQVGotr4IFkdAX3NlQ3S37PeTqTQnjRqY3UUV3McFouGJ6AUmrRnXmmcg7lTQ1M0fu5XD6FByYeBacaRwyYmXRWKzYieJO6j5JHSG7nXPimmxW5OgqFDJXNbES/YeKzdfM2WQOHdHXxR2KTue97Ceyzoqed7nu1/LwTwBN0Mldvrqm057Zb4hIQuju3VVrRBu5WdYOqQ3pdE8tj2OfmuQEIL3zKaAPJ5Q6oSGxtb0NiBeRZEMjOQIhlG8H2f5dU6rhfGI2hpuUkpWyuOFEUUXMfksD4JKunfDUZS3zVph+A1lVSGpDCwja/VdJhlc1vMm7eTUaKXNL2W4N+h2BSVNFI2sheY5Wah60WFVPr0kbWsHMeCQLaX6lAYdDDU08kJadNiB18Ff8MfopDmR5JH3iFhqL+C8/NJO3Wz08MHFJejV4fiAocPbDXMMjH3j84/D+KueGKOOsYauJwdy9G+Z8VHHh7cXLaSpp5o6dmRkkoFnmQA6WWWwOWakxAywyyQtL3h4ceg8vsuBRTTZ0NnrWGR9gmRw0NnKyjLWzhp0HTzWUwKuf+mRRe8ieXGN/UFH0GP0Ez2srXGncw2D37H7rRISN1QRSzPDItll/TBxPX8Hx0baSKOSqqQT7S9mAeXW6KpOO+FsHc2WTFY55HmzI4gXk/0Xn3pH4hpuK8UbNI4ESXEIHwAbMHmdV0w4pqzncZbcTzfiitxLHa6TFMQcH1VQbvIGw2FvsqKLC5h2Q34t1cTYhHHVlrxoy4sFD+KM1sF7EJ8VSPMnBydsAlwuZ7LIePBJrq3/ABRtu6k/FbbBHmweMFiwGYhR1ODPg1LlZDGnjZqHq8TfUDKWoOcgqCA4uwzVNkPbS52ndRSP1CUo9IJZqxDS0+d91KyTsJ4esnRmlJbBxS6pxpL/AERGZdzE3OQPHEE9QF8ymjpg1S5l3MKDkxuETo4hG8PCInLpGaofmG6fmKW2FKIgjao+UwyKQPTL9tZNgcUPETQcwUp2smZyuzlCxqQvJZe+VOELPlTblOBchbMkiQQs8AnCGPwCYwuTiXJQ0h/Ki8AnMY0bNUXaStzrBJymscLntKJ+eybEHkrUax7y2/eT2WUJjfdODXrAsm0+ZJEW+stTOWfmTDmjeH+C1GtmjxgtNFHdU4ezZPlxBs9OIz0Qpe1JBNLZSW3ZNzGJTIxClzfmScwJhQiWVuRdBM3J3Shy5ltUjHttpstSMEPmb0ansm/ZQmYdUokWowb6xcd1NqJSYiMqgZJ5FK+RwZ3UtUEv+Hi44ZID0VdJIRI4EdUbwtUCSCSKyHqABPI3L1SL7MPpEJldbRRmR6IYzP2WMJ+gXPjczvMt9Qm0KA1Uj8qdBK/l7lSVPu9l0GXlJ9UL7O5j7d7VJnfZK+RjRrZM9Zi+cWWS/DHZ3nxXEvSGpj+ZJ61H8wWp/hrQh5p+EppEp+Fc+tjHxKM1kfzI0/w1ofkkTeXLdRmuiHxJnr8N+8jxl+AbiOqY38vWyWCJ5jGyhqK6J8eiWnrIhGAmqVC3Gyfkk/Eu5Lr95RPr4h8SaMRjQqQeUf0KEGvfCcIbfEgxiESUYixHjMXlEL5LfmSiIeJQZxFmbLokfibAeiKhIVzj+lhyx+0u5TFX/iYPyoqkqmzFFxklZlKL0OnjGVdExoj7qdJsfBOgHYQ9B9keVvguFvAKLEHuiiuGqr9bkKMcbkrQJZFHTLsFv7KS4PgqQ1c1u6VC+ukCZYWK8yL8lpPRRPLR1aqI101lBJXTI+BirOl6NA+Rg+NqaZWZe+FmpKuoKhfU1AG6P+Ow/wCQvw00k0WQtzhQ09VEAW5wsxJVVHzKNklQRoUf8f8A2D/I30X3rlv7GT8kvrt2e7eirhKC0pLX4Up/oF65/wAJ6T1rmSttEdAjrt+Vqik9+0hbQKY3mH+6K7mv/uip7myTO4IDUyDmHN7spea75HKa7iku5YyTIecfkXGZwOrFPcn4V11jUwf1g/IkNS8juIi9uibuFgUwZlS+3cXesH5E+LLqnkI2gEPOPytSc51+6pwNE3qsHZD6wfBdznfKp8vkmZVrQCF8ztOypBI6yV4tZOB0CzMN5rvlXc16lv5JQgHZDzHpeY9TALrLWGmRCRyXM5P6pWrGpjQ967mPUw+iXT5VjUDmV6USuyqaTL8qbYfKsbY3mvTXz8uMvLrAKUD9lCYrf1chrd1kjFJVzPmkLzoD0UILiE+cOjfZzbJALqvonexl9bWupIoczw6XQeCdT08ssmWFhJWowjh6pE8bp2drLe1kJS4o0Y29lQzDM0Y7GS+uvgnQYZzKuGKKxLzuV6LR8JSzMa+rk5bfAaXWj4X4do4a0cqAWA1e8aqHNlW4mDw/BHzSOcQ23R42Vn+AZJ2zyNuWbHf9y9Do8KiyAcmM+YFlYR4DTTjlZzA47XGiSVseOStGNp4YJMPigmZbt6yMCz3G9PyYMsTrB/hpp4LeYnw7WYbMXuaRH87NR9VVV+DyYphdTTxuD6uL2kIIsCPD7qEtF4SQF6PuCoq882oleObcR8vfOLdPur/hjBqg8QNwuWEXpKl8sjyLXAOn7kP6M+KsOoJ4aSrbIySM8t4PTVes4Rgxl4wrMTbaSjnpGSkk9wm/9FzcHN77OmWV47/K0VNZiGE4RwvT4rWwh1dLeeGJ7LPkeTca/fdeP0cz6mSR7+3LPJmA2F9rq240r6/EMbidVdilpKZkdNHfYWCqPWIYSWa862/gOth4qc3ekUwx4/1IlnxispOIG1lM9nOML38snQ2NiD9bBWbK7DcZglaInwxvAvrcE7m30PksJX4hLLjBniPsI2ezD7asBsQQrDCaqKknBbfl+9Ywam3UBNLFUVXZozTbsvcRwxj2RcltyD25L2f/AN1jcRmqqOojijfYxHNHIDsbrd4UTispmy8ulEbyf2COn5rJcWyQsqY44oAY3kyMd4g2/mFX4yfKpEPkTuNoq+IomGoirIfd1cYlt8jz3x+d1WAOVnxBKI4KKmdpIyO7/K5uqvmtXoYrcUcOSlJkmTRJlKhNUxm6UVbCqUydxJ+X+0uMfmovWhZNNW0brcJA5xJ8qjkYn08rZRmSy5bodDdo6MaKUBMj7mZQyzcs2QqxukFWH2XWahWVF10kpaL9pFQYrmguzUoDVTuxAhxSDEHXypvEweaJc5R5LrBB08zpGZgklkeOhScHYXkSVlgMqYA3PqmUGeQjQo0QO5iPBg8qEy6KMlg3cr9mGF9IHgarN4xS1EMnkssX+wPMTZ2eKeHs8VSiST7p8cj8/eReIyz2y55jBu5J6xF8yranPy7goNhkLst1lhszztPovTPEOqfHPE7QFZmrdKyzg5PwiV5qMpJWeFUZZ22anoeyoo9HlSs7n2UTD7Rc50tiTyNYLlyG9fjBTsQF49FQPifnPaVscFJWQyZHF6Lw4lGAm+vxTEM7OqoZ2uDO8UygLhUN+qp4V2T80jaVFNFBh4m8rqr9djurbFO1gAI+RY2DMXhTww5RbZTLkcZUjRCRhHVSXZZCU8doQ5Txi+iHFB5MhnqWglqiir2DQ2TKyLtoMRe1DVdY4tHO8srNDh/6SQ0Num1buTWCG1lacJwxB7c1kuOU8X43GRaynxjyobyS42aPh7hz12jZMWbi6TiHh71Rtw3ceC9C4MihZg8faGwQ/F9JzyMjw0KdIPN/p5Nw4HRVM8eyDxGZ0dTJvurllL6tj8jNLPQ+L4ewzufmKjpTdnXHcDc+ijCaPEIxLNk+6Z6WMNoaGVvquS9+ir+DMQOF0RdGdgstxHxDUYxjMrJdGsUIwlLK2vRRyUYpfoFOfZrqc+z1TZ/dptMfZlq6PRL2AcQyviizMVFBVzHTMrziMXg1Wbpe+uzElwOTI3zLKSSoMWYFBmpmHxK/pKXnUBs1U8tNZxaU8WiUtMgZLNJ1cp4GTSMPbOiWjisdVZ4dEOfkLdCmYtszlXJI2QgvKYJn/OVaY/R8uovlVaIb9lMqoFktG4ySZC4o2rppYy2xNlBh8XLqWrU4hS8ygbIGpJumMtmarKZ4gzhxQscbyzvFaCSPmUBb1CqqZm7T0Wu0ZLZ0FMXR3U0VMT4o/CGsfG4ZUVFDYHyKXkaqKGeEskCirYi2ytsQjyPBy9UHi4aIAVRMVgMR/aV1gh1VBG5XGCydtLl+o2P7Iu5DoU+nPYUTz2ClpHaFq5TrZHiIvGqsst0VvUi4shuUrY3SIZOyqnNtEKdfhReJjK/yQYKuiJMyFzmaJH0ht3SjKIG2yMDP2UrlQVsojSFRPo3W7pWhMbvlUb4rrczUZOriMTsqbTSNboVc4nRmQ3CqZqKZp2VE0xTS2anWCD9dowffBIa+jA94uKmdnJB+VpQ1SMskdkP+KUf94UNU4rT3Y5lzZMoszkizuuuVUOxuLpGm/jY/u1vHIHlj+lx2l3aVOcb8I0n40fkR8cjeWJc6hLcqlOMSn4E04vN4LeKRvLEuyT1T2aMKo6bEppZADtdXkerEsouPY0ZWDw94qQlqZF33KtxiokheOWio8nQHLii1zhJdvksya2f5kz1uo+dU8TJ+ZfhqC9vzJMzPmCzIqpj8af6xNbdbxA8y/DQSuZk3CQSxgbhZx9RMd3rubL85W8JvN/o0vOh8UjquEfEs8HyW75UMj337xR8RnlaNMa2AfEpIqhkvdWSzPPUq5wTN1SyxpIMcjbot7XIAVlT4U+WMPD1XHQKwix4U9GIraqai30VlLidPh/KGr0JIGs+JNqMadJpbdCS1RLM1kyxv2I8hPzGE95TMjuLhVYmObMjqeZ+RHgL5CR/YQlYdddrJJ6g8zvITEZnSsDB90eFB8lgVY9kjzkdmskwyimrq2Kmhbd8h/IeKZLIIwWAAgrd+i/Cc9NJXvFnSnIw+DBuf9eCEnxjYO3RpOEOHaajjFQYg8s7Ed+p8VooKSKSs0aDJuX2TgRFH2G2DOywI7CqVzqcyyHI151I3euRuyyJo4hq2FnMk6n/urHBqQUzHTy2MknYZf4FCXNEMeRgZGCWWCLfJampyP7xYVhVNUQ0zzI6mZI0G2q0tJVUFQeU+iyFmpLGXCyNRpRjzmF1tJ42w8LYhWR2EhhjFx01H9E8diSLWnpqCSMsZHeIjWN4vYf0WVx/hmmosYp2wjJFUH2bx57hbnhqohGEwyyMAEFCHyE9bKPinDQJKTlOJpJTmY87xvAvp9tfstOFo0MlSo8v4w9G1PDWTYrTRmeK961kYs9n/ABWfzCKwKXF+HKOQc71/Ca20cdVGNWDwt916jPUwPNPVBwyv9jOze3T+P8VnIcPYBjNBGMlKHxyRnJox9ze31GqhkxbuJ04/kNqpdHkXpajfQTtxGNnLhnjzxjS5ttf63XkTK6rZUR1guBe48zdfR/HOGUdVTmjxmnJioshmyHeO5BePpnv9l4lxHw3UYFjlXhdmT5H5o7bPjtcPH2UoJRTbOuMudRQIQ6plie1gAkIINhvfUK2osEez2hY+Q6mFjDqfNM4Tp2CsEEr3APNwyTpp0K2tBAypyyxEhzBywB0HkuXLm4OkdkMaktmVw6vmknFBKWRgkaAZMh8/FUU/KpGTVOKzc+WCcimhHjbY+Wl1pMVopIcUc2ckygZA86EjOOqxWOyetYjWM+ETPLPLVdvxoqb0ed8qTxpFDiMs1RUunleS55uSn0keaM+KdLG7IWlPoDkIB3Oq9NKtI8xtvbAa+nc3xQcdw/dabE4Gvgzjqs7I3I8+SeMjJWGxMaWhRVcemi6mk2apqgXYnJD8L0CMl6ITD9kXL0XLP7HZj+g+LuIKt76Mj7qDrzqgux30PpBcIp0OaAqDDsrwrONjcpCcnJGbq4csiHLFaYpHkffKq/dXXRzPsssGeHWYVa1NJeLMFn6B5iqA7NotrSMbU0wd4hc+X+HZfH/Sor8FjaJchR1f7KfuplPDyasaW1RmOReyD/ujdi1Tov8AAss1O26D4lw9jo3EM1S8KVQMIaXBWGOzMMB7SC7BJHmFVFy5C0qJzHdFZYrFeVzmoOIXHmqPoWJPAzm0/wBFXvHLl1VjQGz8igxCKz8wSJ7HkvYJVw54yh8M0q7easwL0+vgq6kFq37prtASpo1LPdj6KJh9onx+6H0UQ0kXGdzG1YuFVz5Rfsq2lzFV9ZTusHK+I58xW1OrEJT6Sj6qwnjtH8yr2aSaLofRBK0bmQczh77LIU/vAtZRHmYAfosrGPbm3zKGDporme0aGnivTByjb2DlRlAL0SAnNpC0OUov+mVl9LG1eqr3FvPCOlFwDqgSz2oXVHo4pPYfT4m+mIskr8Tkkq45VC+Nul0piYZ4m9E3FXZr9G/wLi2SloGsLtLK7fxDFVUmcvJ0WMZSRtw7MG3NlbcLsZJSSMkb+5QaRTdABqjJjbXC+W+6ZxLX8mTRm4RuMRR01TE6PcvVXxfG4xtezwUKXkOiLfisHpMdtTFmbJoqignFRicsoOhKrJGzXNmlTYBmFSb7qzxqKbQnlcmkzQzn2ZTKY9gp0vcKhpzoVzro6PYPj+tMsvBpItLjh/Ri5Zdju2u3B9Dkzf8AIbfhx/MpnMPgqbEOzVuYjeE5faZM26g4kY2OtuOqWPdCTWyrjkeJcoVxTPySNeqlluaHFWUThk7yqxPYTxO3mRNewdFmwJQblq1VRllohdVbKdhv2S5LGVI1WVLJJBKHard4efWMEDTuAstPStGzXLRcPvPq5isQlm7QYqmBRC3MYVTSWjqHNV9JC9lY7smypa+Cb1y4YbIraD1JBmBP/SXMOyu44bvc0dVSYRTzCsacjrLRwSxRS9tK2M+ymxSmIGjVUYqz9EF91sat8MrNbLNY3HnjLWJ4SEkjMsNlbYM72iqjTyDtI/ByRNYp8m4mhqSNC86FLRndQk3YV1HuVyI632HMDS9EmJtuiDacr7lPNWD2c4CeJHItlbjlNc9nVVXJey12rQyzQv3IKDrDG4di2irGVaJOJJQwkRDRG8poGqHgrmRRBhLdErsSZfcJXbGH8u5SGLVSwVEcgvcJTLETo9CmBtAc8QsbDVCiG51YrKUsI76jbJD1ITbFfZ5wAnLktlQKQyy4hKE490rG4kRSrnjZJ1TE2PCclYNE4d1YdLQxLdKmlYLCcO98P8S1EPux/hWWw/3n/MtTT+5XPl7LYegZvfcqzHdwrNnvHKvxllyFsf2Qcv1KUrhqiTCoyLLpOShrBonW0St2TwRZEdIheNQlsleWpQh0ZIewaKGUaohuyglNigZhWD0gqZ+1srOji5NS5nRVuFVTYJASrKlm51SXhJPobF2HnuqnrCebkVwToVQ1crfXDcKePsrlegqOK0eYlRSTODcikfUs5dkGZGukVUmyTaC4ydEYHFsajhhu0OCKkgfyUAdlVK9xkKgeHfUqWpa6N5ukiIJCaStBi6YIY6ipnZAwEukeGsFupXufD9CzCsLipRa8EYZ9+qxvo3wplTiprZmAtphmH+PovQBqRf433/1+5cWWV6LRjTsRw7ccSuYH3hkaNMliPL/WipZHZZDKfEBWeHyAiqb4C/8ANRY4a996IH/ifyRM/wCpQnwkCD//AGxx8wUXUG+GZsw0eCsgsIqf1AO8JmLYzvc/0eVh8DH+V1jqz/7VK7ws5ayiPO4HxeE30Yx4+zx/VVgSkaPsRejyonY3teo5f4K7LG4hwRRxB/tuTGI3/wDEAuP4W+6pOH2ip4EqGEh4NDILfZWGByPiwhtM5xIjggqmHyDwT+5VW9EX3/8AsGnLA+Gpb2IKu0Ug6sk6fwt9lbwU8PqJiDNHkGS/U6glVeMhlLWTxD3FS+7P2JQf52RcU1Y8htPDHZ5MbnyP0GceA80tJM16M3xbh7a3E6KgLCKqSGelkv1GTR/0tr9V8/cTvxKmrIxU08INHH6sSdDoTuvqCXAY58To8Tr6yaaaN5ZJbRgfYsFh0Gv8FkOMeBKbEvxKSOlEkr4ZCwm+jwLj+Flz5cTa0dnx/kRg9nhdHNHNVxOhlYJWPBebbX0/mpn19RQYiZhKY2x+zyW0Dxv/ADVHhmKYdFy+XCY5o5CySM6A+I81HjOJsqWTuqJvbh/M5Y+PzPguNfGblTR6MvlR42mW2OY7HiWFNr5ckdR0j8SNv3rz2jqHkSF5JN+3fxTqyqmqpHFzTG0aBngqp80kL5TmvcWK9T4+BYlR5fyM/lp/hZVtTCwG7tSoaeS8mbMs7UTPlfclGYZUkENK6eBzcrNffm0hafBZurbaUhXFNVNbHqqutOac2SoZA0RyPRbzeNCOjde6mGbIqJgmtheHoqTuoOgRk2y5p/Y6Mf0Hw91B4gEXFoFBWjTVKux29EeGF18oV3TanKqGkPLk3VnBVsY8OuqE5bExmHsatVEzvLQVtQyojIzC6pXw2k7ypB0tkJRdjNiHBa3hSsaWcl5WchpmlupRFI51LIHsOqGRKUaDC4uzYV8e0rLabps8ompshcL2WffjDj2T1UTK999O6VKEWlspkabtFxhdX6rOWZtFZV9X6yzR19FlWF0sgddXNH2YxnKf2Bu0NfTtMZJ3VUQ2OoLOhV7U1MYjIzBUM7ojPmujdiKJOyK0gcFJiDGiPMV0VXThg7SGxCuhLLBwS+x21QKJhYszISMfpdwmPnYCXCydTzNfUBO1oCezQxn2YUQPtE+I+zChvaRch1kry0WTKgh8WW2qbUPszMqqXE2xvLSq442RyugmpjdyCqkxPz91FSYqx7C1C+vsVuLIxkkbPBA44NIOtll3xvbUydn41bYNirW0hZ0TX1NJnJNtVzwk4NnRKCmk7DKKQikI62VZURTGUkXsiY8Sgj7NxZPOK0oHdCVWnaQeKapsH5UnK1Qvq0j/AISjX4tTeSQYtTDwVFOX4S8MP0SOgmlAGqkOHyRTx36KRmNQjayhq8dBeHHdbnk/A+PGl2eg4NhkVRh4zO1V9QYZTU0OjxqvK6fiupjZljfYJX8WV4/ttFNxyP0aofpr+MYWRyxPidsVBWUwqqaO/gsfLxFNVTxtlfn1V1iOMeqUEb89lJwnyReDgossafhgTRZmNWarMLfh+IuBGitsL40p44C18uoVRX49FideXN1BTxWVN30K3jdUPkPYKjp3bpzz2CoKc9soLoozsRDXwaqh5UIPRX1ex0kRAVIKB73HVdGLo5s2mE0VbFSPuF1fWw1UmcuVdX0b4o73Kq2Z76lyuoJ7IOTLszRA3FkVhlXD6wOZlsqNkbiO8UkkZGoJQoNaPQJ6+gEAAcy6DZiFCw6OYsNUF9h2z+agLn/MUygibbTN1PidGT3gApoMepIAMhC8/e823Kb2urkeCByZv5eIqU63F0NJjtKX5jusaI3EZk4RussoJGbN5T8RUbGbgFVNbjjZKkvjebLNCM2uljDi+y3BBUmaIYu4s3KEmxPOdb2QsTdMqhnjcHIKKGbYW+uBZ3U7Cpb1KrXhFYMbVSMoqmaMnyRquiSkPbN0ztFqWm75XH6Ov2S1hc2AkLNyVsokIutDWn2DvosjUG8p+qtgRz5n0G+tynqnesv+ZVokspg+47y6KJWFesPf8SdzH+KjpGcw5US6md0Q6N2OZUytFs6U1Uo+JN5B81xp32HZWtAFNVL86jNQ87PsoagGPdQiRvzLBKoBPsmsT+qk+zogtDGDVc/4krN1z90UZpURSJvVSzjZRN3To5pdk47qXokHdSnuojibbqN3eT3hNWAwig761NP7ofRZaj0etPS+6H0UMpfE9Ed/auQGK9Cjf7coPEsul0Mf2Qcn1KqUuvoozc7oslmqCkk7ZXUcouyUDRNBupW91AZEZCcFz+6nN7qzCh7dkPKLlEsY47NJTZYZh2jC/wDJADBW5rq2wc9tVzNH66FWOGaSJZ9DY/sXBOiz+IaVRV+ToqTEI2mc6KeLspl6BXvcR3kyL3gHmpuWLaBMALXZgFcia3DovYNvkVrJGwQfBsqLC6xgibduoVnPiUXq9g1l7JGKUOKRXlLrqvjblei62fM8oIy+0DVkP/s9U9HWWPApnjeSa37lqP7c9nQD+Kz3B1P6tgFIw7v9oVfRntuJ8gvPl9mdSWiKXtsb5vurLC9ahzDbtxj+BCrCfd/dGUEmSrhPiy35H/ulYUWdO/mYZKNuwD+9FHtYVLboAUJQC8c7PAPCPoBzMOlZ4xlZACZBnwiob/w7rV8KObU8N4xANXPpS4fTQ/yWVw/2tLk+eEj9y0foydzJmw/DLA+Ij7EKkOyclpmj9G55uDRRg6PjfGQforKCZx4ANcGgVEFKaY/QGypvRnK2ON0LtHQVJC0FMM+CY7h2Wzo3zgD69sfxV49EJdjMZhyYvKwvJinZzowfgkABP9fzRsQvJy72bOwsv4PGo/15KHGAwyZpP7OEO/dZLBmlj5QIEsjBLGegeP8AQ/NEX0ESyGQNebCOf2U4+SQaX/l+Sfh2cyubI67tnnx80LJKyUh9rQ1YySDrHKP/AIt9QE/CnvNQ9snvLZX+ZHX7rGPj/wBNNJFw36R8Uw4MZG0zc1ht8D9Vh/XYXSOJdd/Ve5f7ZvDPtMJ4qiZv+iVJHjuw/wAV82nTqqQiqCm2aCTEoDEbEA+aqamZr7oElJfRPxGsif3ipaQ+0y+KhcnwPySB37SZEizkqHR2BSCq1U8VOKm3ilqKHli6DSHTlRAan9lRvqj8qbaxSPAK3FGtllhcmZWL+6qrCe8rR65si/o6cTuJJH3U2oiMg0SxE2RdO3MEsdMaf1M5UiWIlQiSS/eVjjcbmvKqog8/EupI5bZYQR1BAt1Uz6SpLM6IwcteBE7vBaIUuelNt0rdBVmSibUAd5NqDIOqt542xvLMu+yqqkalVglInOTiwUCVx0ciGRzWHaKbB2SrWnyvAdlWlGgRnYFA6aM6XRUtTUtHUI6kjZzRmYDqrispIZqPO1gBsoudFUrMjK+pkZmzlMFPM+IvJKJlk5Tywt2VjTRtlpiGt3F0OQzx6syckkschBcU453NzXU2KwmOdLFlMYVW9CJWDxR9vVGRxtbIHBREWOilB7bUknoK7L6nN4g1N/tF1MfYByq5MZphUFmR5YD3wuWMW26O1ySSssqkeyKydd+sFaM4hRzRnJMAT0OizuI+/NtVfCmns587T6IfgXG2Rd8CS/YXTRzI1PDdKKmkceoCosUD4quRgJsCtFwXJ+jyA+CosfFsRkXNj/5JI6Mn/HGivfI/Ttlcb2HaKa/NbupSdAuimc9nPvp2l13C3aSv7oTX9EaZh/NeCLFdPI91ruTHdF0mtlqNYr5Xho7ZSyyvLB2z+aieLgJ7weWEKZrJ8PlcKiO7r6rUcUe0waN3gFkqQPEjT5rW4oebgA8bLnypqcWdGLcJIyVMbhH4GSKxA0bbq0wuK1RdPN6YmPtGkJ0P0UMGkhTwex9lDGfaLirR3MKDM5siKahvfsqKjsZQr2kDQdeoTwdEMr2UWK4bemccvRYWpj5VQWL2CriZJEW+S8u4lp3RV5s1dWF3o5p/olAzmMU9RT3jJUGDya2KuTFmjLVLI+MjqxLlAz1RF7JV5GivquG0bmqjc0glWxStHPmjQ13RSMbezQmsa7qiqaPPIFRkSeCECLVdygiyLDKoiLdpIjSYJO2zLBdTx+O6ffmSW6I3DqbmyjTQLSY0ELHBy4s7kBUP7atsTkDfZBU05aStEf0MfsiMKNqjMhzlOiKwy3PF00uhV2XvrbLJaeePmHWyjraZgp840KqSHgaErmjBNHQ5tGgqHxSRmzws/LQEyFwKj5tQDoSuNTK3cqkIuPROUlISSgeEnqrwFMKw21UctZZqe2JSCKMOi7SNEuqqYsQYOyUSK6G2bKkdjUiyZJcJpLvmQLcQiakdikaBqQ+ridKhhSHxTn4izpZRHEGeCZNi0VMfVTncqMC0hUhOpSs6oKkRt7y6fvhc3vrp9XhaIsuhtTs1QhTVOpH0ULd1U5p/Zkt0o1TU9qwUdZyjd3lKU0alYLH0fvFqKQ+yCzFP31paP3DVHKUxDf7coLFw4sFkYdJyhsTzZAlh9kPk+pUGN9icyEPeR0hflOhQhjdftaLp7OV6GsuXho1K0nD/AAviuMVDaeGJkLn6N5psT9lUUtUKW3JYAR8dtVbYfxA+GQPkYXkG7TfZanQnJro9S4e9A9RUSRtxbFWQAkX5bL2XruAegHgCKNrnST1crBqc4Gv0XnfBnpJieaaJk4I09lM/T7eC9zwDGqPEI89M/kzs1Md9R5/RcM55ov8ArotF456XZAfRTwZS0Mphw32jIyQSevisThfAmF4xi4ponsY4MPs8gIJHivWqvGGPwepEzskojP3+iy/oviEuN1dZplihyg/Uqflk5KmOsUVBtrf/APR4LxjwlhGFcYyYVxDg7PV3vAZLT9h7Lj96THfQbXw0jcZ4Tro8Uw2Rmex0ezyK9G4xpafijikgxnmvqrAjcC9v4LaYRTP4Sx2GjpXmekkj9vHfp9E6yturGlHhFM+QMTw+vwyf1evpZqeTwkZa6pqtjc5u5fY3HOFYPHXmmxqhhr8FrBngJHbjvvkO4Xh3pT9DVZRB2K8HTnFMOIz8o+9j/qqY5q9iufJHj0kjGdVA+VvRRzwyxyujmY9kjDZzHCxBSwxtLwutIi9kgmeB2S5cambq4o404EYQtQ0BFoKiDmV5CkwqJ1VilPT/AN5IG/vTSNEdwoB/vJRX25gSSdKw1tHs9IxrBGxugYzRFj3Ejh4lRUkXMBI6ABPjdlYWkb3XmnWRZ75fop6c2liPg+35hBSdiRngpw6wzdAQf3rGNBh5tWys+d/8QjsEPYLD5sKrqYtFbG7xYD+SOww8qsnZ+3cIGYVghsAD8D7K34Km9TxjJm91UkfY6qlojy6+oj/bzBFUxMWOTWJGdjJB9U8RZfhtMAyU3E+MUJ0vJzGLTUD3HH8TheLNnjjl+twR/JZGY5eN6SpBs2spgfqbWWmjmfFiuGuI97DJDJ55NR/P810I55kmK1Dm4f6y7/yzAfz1TMHndVYW18NjPTuzR+dtCPuFFxW90WA1DD15lvzuFTcL1zoYHPY0kWz28R1H5I+6FrRqJOVLZwvyKwfdkg/np+YS4fI8VcbpNJL8qT6+KhzMkjLBL7Oo7bHjo/e4/j9iuikdJlnPYc/syDweP9H9ywCq9NfDf+9Po6xjCo2XqhDz6bzezUfzH3XwTKwxvLHCxBsfqv0mLxLEx9rm2ceY2IXw1/tB8KN4U9JuI0kEWSjqz61TeGR+th9DdUxutGXZ5wUg1KcUjBqrBaYyUWKjCmqBqoUGKXWDy2tdyvhG2eNZOgksDbdX+EVdxY7pZr2NCloDxOldE/NlQNtFqcQpxNBcLMVEZjkIKMXaMwvDO8rR57CqcN76tZD2dFDJ2dOLoWAo+gLblV0ZRdGfaJF2Gf1BcfYLqmpjlJ2V5jg9mCs292V5XUjlLSnn5VSHBy01HiAyC7t1iBK691bUVRcJZRGTLSvkD3lwVdUBt83QoiR9wHIao1jPinxumTmrRDcCzuoVlhdpLsGvUKjMvX80Rg9byatuY6XsrTi6IRkkzSnLFlLh5FWOGVLZIzGUJiMTZaTO36qtwipdHUgF3WxXE1aOtP0LjlLkq84boVYYM9jIspGoUuOQ8ynzhV+ES+1yX3SspZX8URZJC4NVXSOuzKtBxKxr4M+5WXp32eQqp3En0ywijzJr9JAFNRm4SPilnrYoKeIySyEMYwbklJ7C/wBNr6MOHGcU8QQUFTII6JntKp5Nrj5B5len8Q+gXhevBlwerq8NedgPax/kdf3q24P4YZwpwrQ0JANZNeWrkHV+mg+iv46yra0D1iYE/wDEOgVIric2TK5ytHz9xH6CuMcPLzhz6TFmjpFJkk/yP/kV5xjeBY3gs5hxfC62hd4TQll/zX2WKqpNj6zNc/8AEKZUudPTuhqpTLE7vNlOZp+t01irI0fG3DdC/GMcpsPL+XE83ml/uogLvefowE/ZBHIHubGbtvoT1C9t4wjwaOtqRg2FUVK2qZy3mCEMDor31A+Y6/RrfErKfhNH/wDx1N/0W/0TRf6M5MxeH4o6jGVjb3Q9ZV+sSmV+5W8GEUZ//b6X/ot/onfg9J//AB9N/wBJv9E6cU7A5SejzoygpgkC9IGC0f8A/H0v/Rb/AEXDBKP/AMhS/wDRb/RHnEWmedGRp+FMzfsr0n8FpBvQUv8A0m/0S/gtGf8AwNN/0m/0Q5oNM83L00vXpX4HR/8AkaX/AKLf6JfwSi/8jS/9Fv8ARDmhkmeZ8wrjK5emDA6I/wDgab/ot/ouGB0P/kKX/ot/ol5oNM83iqcpvlVmzFOdTcgtIW3GA0B/8BTf9Fv9ETS8N0Djm9Rphb/gt/og5RfYycvR57RwtjOqNpyBOF6jh/CtBI8B1LT/AE5YVnV8H4XDDzG0lPcDpGFyzyRsvC6PMmHRQs94ty/DqRjsvq0Oh/uwohh1Hm/Vof8AphIol3lT9GYoj7cLQQCxa5GNoqVhzCmhFv2AlJiDrcmOw/ZCaKI5J2xhF1huM6bJOXhq9AjewkDlM/yhRV9HSzNvJTwu+rAVSD4sk9o8moLtlWkptWDwIV3i1JQUlKXMpKcSP7LbRtuPE/68lRSTxQNu5+XwA3Qyrm7RbDm8apkWIRWYbLN1Ebg82atJT4uGylphjfG/S8rQ7KfHVOmYx7y5zGX8mgfwRx3DsXLkU+jMZHW2RlBFYZi1XHJi+Rv5KeGNmwACpKdkUU8gudih6mSzcqu8SiaKfMzQtIJ+myzzpHucbyOOvispCtbHQR36K/poxSUec7kKjie5puHH81YwVjiWiW7238f5INlFKgCuc6V7nqrkkcwm69AZS0E4u2OJx6gsF0JUUVK2oc11JTuaTcXibstGVBlKzDMl1RmHSWqA662MFBhjzZ1FTg//ANQP8lYQ4Rh1wW0lMfpG1M5KhE9marai9MqX1nXxXp5wqifFY0lOf/xhBS4FRA6UdN/0m/0U4NJbKylZ57z1DJICvQJMDpBtSU//AEwh5MHpwdKWD/phUUkJZhuYmyPuFtXYRAP/AAkH/SCidhlO3ejg/wCmEeSByMTdOYVsTQUo/wDBwf8ATCVlFSA/qkA//GFrBzMablJZy1nq1KXEimht09mFNHR0n/lYP+mELG5mNs5Icy3sNBRHQ0VMR48pv9EQMOw+36jTf9Jv9ETczA5bnMkf1Tr3v4FNOqlR2OSoazvhJUi0jU6MPvo0p0rHvlHZ1smSJSmqIKrvBQt3ViaYu3UZpcnaLk9nNKSvsF6qVgdZGR00WhKKApo2a2SuRSKsqnRvOwKkZSyEd1GPqqdr9LJs2JADsha2/QXXsBjGWXKVpKI+wCzIk5k5JWkw85qdqTKPiFPvyoa97GNu7ZSv/WCgMb9wFOK2PLog58Zvboq18l3kkrRcPcN1OIUjqvI/khhN/Eqsq8MfDUOjLX6Gy6ItXSOaabVsr84UjCiX4c+18pH01Q0sL4d0/IRxLKkkLIGkO1XofB/pBxLA5KeFz3yQRne/bYvNaSQOjDNirhgu0eCPFSWyUrs+r38T0OOcHT1NNMzncsE5Dv8ARWPosxTl8FYvXSSN5ouBfS9h/Ur5RwjiKuwVsgilPJk0I8F7tgeNsl9FENTTPAlfP22X03v+Wi8zLheKXJdHfjyLJjUX2bj0aYb67i8uJytcOX4+NlnuK8fmpPSjO/OeXEQyx2XoHozawcLx1DO9O8uf9V4z6TJOX6RK7zI/gkgv5seX34/h6h6SaX8V9H0slA3OGe2Fj7vxC8qw/jpuBUEcUs1yBowdVuPRvxPH+HSYPVvDxICxjD1BXz36YMOqOHOM62CTPyS/mR36sO1lXHFTdMk7gbPG+HMM9J0lRUUFPHQ44ITLHk0ZOR0Pn5rxOsw6twzFJaGvgfBURHK+N4sQt96KuKZaHiCnq+ZqzsWPgtTxvJR+kJ5qeVBSYnBoyQac0eBV45HjfF9AUOS5HkpHsgq+rYr7E6Cpw2odSVkD4Zo92PCqqrKuhvQpX5UVw/duP0Th/fBR3CJwa343Ru/4zP4pG9DUeyYXVNYOSe8T1VlVwsNOAN/FU0ETJM0TtDe4P2RUE01MG868kJ2PULzpI6EyCoLgADuNlJB7Sw8QQn1nKlIfE4EbqCkk7ZbsQdlvRmi8o5M0dPL9QfurSI2xFp/vI/3hUtFpSSNH9m+4/NWj32fSzZtn2P3SjFgexirXf3sf70ROeXiNFN0eDEShqzR9NN8kmQ/dTYjrRF43ikEidCM0+Ny5aHCcRj3ppOWT5f6K1E8rjRQVzdHUk8cp82P7D/4rKRtbXcPVlPuQwSs+3/ytHwpI3EcAjjc738BhJ8CuiJCRYcXQ8zD5CdQHg28iLfyWSwLPSYj6s92vejPithWSS1XDkNS0Ay8scxh6kHUfxVDidOzkQ1tM7tRWlZ5s6hOyaeqDKY5Yp6DNYwESQHwYdR+R0VhSSc1mcac0bHo8f/H7lXVJa2spalvdkaYX/Q6s/f8AxRdNu4D4+0PJ43/kgBl9RS3pLj+zOb7dV4p/tecMw1/DWHY+xntqKb1d5HWN+o/evXsMld6yW9D/ADWZ9NtM2q9E2OMk1McF/ux4WAnTPiV+Hsuk/D2dFLL6xn0cuYKo7FWotyYJiFDy6fOFTlaGoiqZIi0uuFQShzHkFFCT2S0Zs5G08xinzDZVsRs9Hsbc3T+hImoo6pskeXMqzGYW3zAIajkfGdXaIipnY+PKXKXT0Up0CYcbSWVs86Kpox7fQqzJuFPI9lsXQ6M6oyiPtAg4mPJ0aiYmvYQ7VL7HatC44ByDbosrUjtLWzxuqGZShxg7ZN7KqyRRB4pGcYbsReHvcCFdnCIYh4prKKNp0at5UHxsjGrFHle/4UcIm3RNNE247KR5aCsVmalw6rMh5bNClgwisPbPZK2JjbbuBIA35U6+ZJroV/DimQ4cS2gEMpJcBuq00r46gvGmqtSFFKNFJ5WyywpImFVmpOUd1XRwubJmHZ1UzW2UgZqk5BUCGpj50eVyBGERA5sytSxOLex3UObQfGvZXRUjIzovTPQXwmytxg8SVcWaCkJbSgjvydT9li8CwqpxrGKfCqTSWd9i+3cZ1K+meH8MpsKwunoKSIMhp2CNg8fNXxJvZyfIkl/KJcbb2af/AJr/ALlWF1zt5Kzx4FkdOB1zfyVWwEnVVZyFxgPDeOY3FPPhdBJVMh77mkAA+AuRc+QWdxWnxfFZhgGB4dVVtbK280cLCXNZt2ujbnS5sLXK9Z9EVdxRDg+I0+A0NFWQtkD7Ty5C2Qtt9wQ0fkp/QbU1FR6LMc4gwaGnrOJquoqZJmvcAHTtHs4yejQC2wuBqTpe6VseMb2fPmPeiP0j4fBJiFfwpVGPvOMD45yB4lsbnEfksE6MBxBaQRuCF7e30temTDK2sw/Fm2qHsfGGVeHsidA4iwe3KG3tuL5gfNaH0IehzEYcfpOJeKqLDcUw2rpDMI6gNnzGRoc1zmuB113SFr/T5ziia7Zt7JHMAday+mfSV6KK2PGsZxnB8IwylwdkfObHEWxBrGRDNZgFhqHHzWE4W9GGJ8YsdNhuFhlMHZXVMruXHfwB3P2BsjxYOS/DyNsbT0C4xheucYehPiHh6jdWyRMlpmd+WnfzAz6iwIHnayx2FcCcSYxirMNwfDn100mvYIDWjxcTYNHmSlakMpRMsIxbZXXC3BnEfFRqf93sJnxD1XLz+WWjJmvlvcjfK78l6BiHoA9IdLQGqZT4fVPAuYIKq8n/AKgAfsVuv9jmmqKOq4xpaqGSCeJ1IySORpa5jgZwQQdisrujOj5qfA6N7o3tLXNJBHgQpY8Pq5qd9RDSTyQxmz5GxktboTqRoNAT9AVseFuBOJONcdxCDAaHmthkeZZpHZImdo2BcdLnw3S4xhPEfo9xo0BrKFlcO3Iyne2bl3Y9ln3FtWyP7J6HUbIWw0jE8l0czo5WOY9hLXNcLEEbghStha7oja41NTWVFfWyZ555XSyvPxOcbk/mVAyogA0eEvIZRIHwAbKai1fkA0G/1UVXVRNjJDxc7JuF1MIdYOCDbYaSNFh59qFY4k/2FvJVNHO0PDtwpMSrGuisL3spSWx46RSTj2p+qit2lMbyAutY7FN5ZuqIAw90oV47SOdCbKB0DidtU0WLJEcQ7QUs5AZc6BPjpngZnaAaknos7xHXyvhkEVxE3/1H+iNpispeJ8XE1Vyacgti7Obpfrb/AF0Wde4ucXOJJPUoiSJxJJuSdyVGYk9oQhJ0R2HVPNa6E9+Ow+o6IUxjxQcc3q+ICZuoa6xHiOqIDQi6ngvdOh5EsTZGOu1wuFM0RjZLyGogq28yCRtieybDz6LMzxljyfhOxWvDWk6BUUsIEz4wLgOI1+qKYGiuYjaOMySA/CDqVNHRxk3yIyKmIFgLBawUPiuCHBxBHUIl8zXNYZSAQbZrb/VNjpip/UnviLQNSNEOSDRJTNZcG6taVjLhVmGQvBDT3f4LU4fhMj7apZSSGUWxYQzl3Pgh53RB2ui09NgJMJLiUNU4JE297lS8iKcXRmXGN3dIKHfYHZX0+E07TfYrqbCM3akPs7aX3KbyIHBszbjdQuab6rXPwimUTsJpgj5UDxsynKB3AT207D8K0wwymG6kZh9Lvot5UbxsxUOHmS1mEA9SEZHhTANCSei17KGmGwCmZQ03gFvMDxmM/D5x3Wmy4007RrGVumUMHQFTtoYC33Wb6hH/ACA+E+fjDG3oku0DusCq31Mz93lRlzzuSulKiUrb7LKSZgtd4+yhkqI+aCC4iyBXIiKIca0AdhihkqpHJtIzmSZU90Xt3M8AjQ3BEPNkPxFcXk7lylgYCyQ+CiasMcweK5y664lqBjoe+tJhxvThZuLvrRYZ+rtU8vRXESv9+h8RiMzI4h8ZAUz/AH4QGKVZiqI2RnVjrlJFbKSaS2es4JJRUHD0UHNYwCO1rrzLFZ4TiU2twX3TH4hXSU0fti1pGw0VBKXmQ5ybp8eNx2yU5p6RfCoheMp7/QhLJGJDZ9ibbhUAc4HR1kRT1b4yM+oT0Jyss6nCJIqaOphaS062UlPUnJkc4XWhwipgnw+NhA22RPEnDjZacVdL1YCljlp0wyxWrRk8RJ9WK2no94iliwinwiVxI54e0HXsdQFg6yR7YHwytIcNNVNhdWaI0dSzeKa/2TzSkmicbi0fcPCcvqdBBy3AwGFm22268W9LcjIOPK2QvzNNnX+y3XA2MMfh0TJJgaSRgkheTtfovKP9oCSSh4vDh7uphDl50YOMuB1Kayf2iswPiSWmx+Osjd1yAHoFsvTph9PxZwvBiWHtElZQR+2tuWeC8Ylr2QxZ2O16Bb30XcR/+HqXh8UgySMO77qzg4/0jSaejx2inlpakODiCCvbfR1Fh82DVeNyTMMtM+/LO1t7rFek3g19DjpnwyFz6WVvN7A0Z4rJxYrX0VPPQQ1DxBKe2Ad1eS5xTRCNxZ7NxPxPgXpBgbhQpmR4nADyKwaZ/wBg+S8jxGmfDUOhlaWSMNiCtF6MsKe7Gaesmvyg8GwXpnp84AjmwSLjHh6G4jYBWxM//wB/6pIzUZcV0UaVW+zwQsspsLeBitIfCZn8UG95IS4ZnOKUrRvzmfxVWhT3ajDJA822t/BK9jjSBv7vuhsOltFL2tUdPls1o20Xns6l0V0hfGRk0J3SCVvNDjZjtna7rsQktMLbaqoqA4vLtc1/5rJWY12HG8j2f3jP+38lYxnm4YXDdjQ/8lRYVM60Lzvsf9fZX1BbPLD0JI+xSvsK6LKU83DHOG4AkCLp/b0jgR7yOyAwd+amELul4yisHcWU5Ye9G+yK7FZe8F1IyRc3ugGGQeWyvOCHeqVuIYW/SSKTnR/RZPDPZYpLTh1hJaRn1WilqPVcfw3FzpHOOTN9dv6fmrQJTVmy5IlpMTomOLWvvNHbweNf33Xn1BiU0VNNDK4+yhy6+K38czYquCZxs0Xhf9DqP3/xWH4lpfVaysYWdl7y5h8QqyJwfotJ5XGgcwbxRxuH1Av/ACVmyRofnHas8P8AsdCqJj7yTNO3Lsf3Kypnu9TDv/8AFH8FgNFxT+zrx/rz/ks1/tCV7ML9E+PPkNuZkiHnnLP+600faq4/H/sV4h/tkcRs9Sw7hiKX2kkhq5wOgHYZ/NFK2JR84SYmC/uqeDE2hmXIq6ONpKnZExWbSHSCTibrn2dwqarfnnJtlVsIWWQOJw5HgjqspJma0Bs7yOgk7AsgVPTP7YvsmEWmF8yVNe56JZk8E+KF1RIGRtU7RTZHhUU01QAxpJLui9SqPRtjNDwtHj04hfC+1o2Pu/XyU/oSwGlk4jz1LGPEEeexHVe8CKKOSGIgCEe0LDt5KM5KeyiuGj5fFMYXlr4ixw6EJTC+QhkbC8nSwC+ieO8H4ZxiOCJ9KPWGHO6SIWuPAp+D8LUxwqWqw+hpY4qYi9mjP9bqDjvsqsyraPAZOHMbpYxNPhVXHHvcxlCBmV1tbr7J4WoG4pw1LXzTWew5BHkBYfqvNOM+CcE4lNWzD4o6HGqe92M0ZKqODFj8hN0/R4BO26H5eqsK+kno6uWkqYzHNE8teD0KG5bsympUWavZEyLVExNyFcyM/KpQxxSykNGKOJaml7QnCNyR8aCaQasi63TXjOp+VcLuStyNQMyPVPDfiRDIb/CVKKckd0rczcaA8t+i6QNDLl2gRopXnZhV7wHw4cc4gDKhn6HSWlnPiejE2P8AuVITI1CLkzcehrhf8Pww4xVMtWVo0u3WOPoPvuvS4Gaj8ghaRgjga0adnZH0/YNz16L0EklSPGcnJ2wDiL/ww8M38lWWFlZcRN1p3H9rb7LMcQV76SkbFTketVByQ+R6uPkBr9bDqgY9s/2bqxlVTcQRxC7KeoijLuhflcXD7aBeL+j3GMV4IqZKzA6uRols2eOQZopbbBw8fMWO+upW59A/GXDnBeE4hR4rUTRmaRjo8kRkLrAgkkdSSpfRzx/whT8K/wC7HFOBRsps2YzMi5jJXH4njvBw8RfytZJaLVWjb8F8WYN6T6WpwDHcGibVxQGU27TS24aXsJ1YQXD891nfRhV41h/pdqOFKnGa6qoaCOWKKOSZxZkaBk7OwsLfRFQcc+jDg6jqZuDaB9TW1DbWbHKAT0Dny6ht+jb/AEXmPCvFtbhfHzOLKmP1mWSZ8lSwG2cPuHAeG+n0CzZjRembiXHKfj7GsLhxnEIqLsMNOyocI8rom5hlvaxufzXofpVxOr4K4DwjDeHH+rRPIg9YYNWta2+h+Zx1vvus5x5i3ot4mw2vxePmsx+an9lmjma4vDbNzAdjoBe6l4T9IGAYhwvFw5xzSGaKFrWNnLC9rmtFml1u0HDa43WNosvQRxPjWOVGIYTjE8lfTsh5jZJu0W3Niwk7gg7HwKvOEKOl4X4S4krcKjZNNDV1WW+thES1jT5C1/uVnqjjvgrhTBqik4Hoc1RMNJDG8MB1sXOk7brXNhtvqFkPR36UqfhmoqKHFmTV1BVyGSUxgOdE8951j3gdLj7+RKYKKnGuOuP8ErZMdoMeqKprmuEtNU+0h1G7WbNtuLW26i4Wn/2RKuvxGu4xxLEp5aipqX0j5JpTdz3e3uStA3jT0P4bIcUoqczVepETKWW4PkH2Y37LPeizj3hfA8d4krqqkGEU2IyQupqWnjc9rA3mX227wPQamwAQdWFXVM23pCbiPCHoxMXo4w+mjidd0lTG7M6Jjhd0wHxuPzE6b7DT5Umw7GhI+V953vcXPeX5nOJNySTuV7N6MPSVJw5XS4dihkqsDnkcWgDM6nJJN2jq09W/cdQaT0hO4Umxb1/hKqkbBOSZaV8LmCJ3iwn4T4dOmmySpoeMmjx3GY65kJElPKPHQrNulymxBBHQ6L2JgMoIIDh57LG8b4bW1EXLZTwMb3vZtGa3md0saQ3NswctQJH3voNksMtnXa4g+SHnpZqd1ntIHimsuNirqCEeRmioMUkhAz9pqtG4jT1DLAgO8Fko5CBYpTLrcEgqcsY8chqo5AyXplOhRVvJZGKvlj0JzDzWgwnE4KqPK82kbpr1UnBoopWWGltgmh1joApjGCNLH6IDF5fVqYhvvH6N8vEpaGsAxzEi8mlhPYB7ZHU+CyWO1Jc5sI1A7R+v+v4q1kIYxznaAC5WaqJHSSOkdu43VIonJg73EqB2YqdxUTnJiZC5rlVSjNI4g3BJsrdxCqCUyAy64ZqBn9TldYOPs7nY+C08dMOqwEUjo5GyMcQ5puCCtvg9eKykbID2xo6/j4pZpjRLKKnYqrFqcR4g43FntDh/D+StI3+aBxzUQyC2l2k/w/mkXYzB4WNRkTGquikA6omOUeKLAizia1H0wZpoqeOUI2nmGmqVoYOgYxlQ4WG9xZanA5mtsw2t08lk3SNzMfmt0OquMNq4WFuZ4N0klY6ZuhMG05tZU2IVO+yV2I0wphc3Kr3VsGbORc9B4Kaix2xA0udnlboNmnr9UktQ4pkle0mzWhQOqSddAjTBY9z3uOl0yzyozVDq4JBWRjdwRpg0SiN5vdykjgJ6lQNr4R1ClZiEfRbYdBcVMOpKLhpmg+KCirmnZo+6LirL9B+aV2HQfDCB0CLDGhmoAQMNUDuQppKpoZq4JWE+UFy5OXqnGNXLlyxgnDv1gKeUfpkn0UGHG1S1F1H6/J/hTLoyA4PdyqFTw+6lULUrCIuSpCggHR95aLC/1cLPM3V/hZ/R0mToriJKhzYyXnYC6zsjjLOZH9TdW2Ny5IxF1f8AwVQjjjqxcr3Rf03LZSNyWvY67lUtZ+sGytqQ/ojcjvKyq6+/rBLt1etHOnsh6JLeCXouCDQ1hlFVzUpFnG3gvSOG+I6epp4qad+V2QWuvOmRtfFGD10Rc1PLDlMLr5Nc4uCpzxKRSOWjWcd4FFLRurqZoBYL6LCRPcKQxP0LH3WtwzHzNhk1BXd/IQwkqnGGeu4fVTR+8i1t5JINw0ykkpK0epei/F/WuGp8Kkf7SAXjI3sf6Kl9M+IzVtXhkVTYughMYk6vF+qy/AmMSYfidPIHZNeXJ9Crv0whskdLUC1s5GiaUE3ZyRbx5Dz6tlcZNOis+G8UNJVxuzkaqizeOqQFwdcORpVRfluz6JosQ/E+G6sNiZITHkH0HgvDsRFNFjBfGPZg6haX0bcTCkmFNUmwOxQHpOwKowHH+cWONJXs58DsthruPspwioumO5Xst+FMZ/DKgXOaJ69+9G3F8GJRy4dUxMfA9uR8Z1BBXyphFSJmcqR9izu38FvuBOIm0M+aMXkYLA3spZYfg6don9Ovo2fwjiv4rhzC/Bax5MZH9k/5D/Jef8PQiXHaRg6Pz/lqvpqDE4eKMDlwLG/bwVDLW8D0I818/YFhbaHjfEKRsomjojIxr/HWwRhkuLTBVM3tBrHNbe39FYSuuA7rdV+HWyTDyH8lYVEeQZht/wDC5mdEQKp7co+6GqWtDPMvH8VNO68v/Kh5JM5aP2if3LIzDaMuYSzyBH1Cv6SS8sbwdHs/eFmedy380fOFeUb7RC39lIPyP+ggwJl5REsq5mdD2gjIsseIuaNBLr/r96Ac/JLDIHb9g/6+6NqNGRTBusZQQ1BlWXRGCrDtYnWP0WilDMSwuWmDu1bmx/Xr/ryVCQ2SAs/vBcK04WqOXAJHi7qc5D9FWHZKXRpeGJhiGFRvnN3EGGQHxCh4tDanAKOe15BIIpD4HYoLA5RRY5VUBdaKo9rD9f8AVlf1MDamCto8vvWc6P8Ax9f3hX7RB6kZQS+zqHjc2YPv/oK6piCxzOnYiH8/3LM0cjjJDHl29q8fw/l+S0VNmis07gbftn+gSFJIu4J44TJVzPDIYGGSR52AAXxF6SOJpuLON8UxuQnlzzEQA/BGNGD8l9Jf7QnEZ4d9F8tJC4+t4u/1ZltxHu8/y+6+SGFtyF0Y4+yDJYx1TgXF+SNtyoZKho7IbouppYgS7Vjk/HewtlpBC/lkudYjoh8ViPq+bdJ6+0AXd9bJlXWNkjN2kNW4oCbKgrmGxSyNs7yKloqWatqG09Owvkf0CLdGLGga+pLGR6krW4ZhzKaPMdXKz4a4SdQ0jXSi8x1Pkr0YN+yvNzfJi3SZ6GL47Stov/QpSsdX4hUOfk5bGL1OOhq8UllmMzIacaF5Oq899GlO2gqauJ2gkYCtVXCpqXuihfkgt2yX5Ix9SdFoT5ITLBqQVjOF/obvw6R8h2Mnj9F3o5xiposRlwmvYWRVDDHrpr0KVklNSYX/APe6C8Y0iZITf6aWWdqcdimlPMZe3cewWP5oSnGOzQwylpI9egxBuA8BPaSOa+Z9rnXdeRy4nNHiv4lBK7mMfe46+Kkq+J5saMNNXysjgiFgBpn+qf8Ahjpr+pmN7d7XF7JZZ1NpDQ+JLEnJ+w/iTgXBuLamPHhWPgkqIxzGRgb+KAxX0XcMYbhE1fUVldlgjzvyWJP2WmwSL1CjEz4RG3lix+daEMZUU2SVgfHIyxYdiCuqMYy7RzSnKPT0eRcOejjA+JcLFfguOzAXs+OWMZ4z4GyE4g9FeK4VCZ4pmVsY/uxqPspMYpcQ9E3F7cYw9sk3Dte+0kfSPyP8ivZqLE6PFOHziVDMJqeWEuBH0S+KMk10y+VzxOM4O4P/AP1M+cG4C/rdSx8Pl3ZsVpTXMu60PVSRV3/CAXjvLM9JQRQR8N690qdnDjfkV0MQ16LpcSYBfO1L5Jh4xKuPAGD4Anfg0TLXYETLi8YHfCr6rHadt257opzB/J1bRsp2ezi5kshEcMY3e87BekcIYBDg2Cx0bwJJpPaVL7d953+3RZb0d4W/GZTxBVNeIIiWUI2u/rJ/IfdegYX6zJEXVUXLkBtbxXs/DwvHDk+2eL83PznxXSCcPp4aaLKGmw7gLroiBji/MW31XRi51RUIsxdVnEUvFL2xxQvc4NY3OSSdBa1156HS4hVPxF7XBjxkgBHdYDofqTqfsOitvShiuWRuCsmE0kbebUWFuy7usPnca+Q81kIOIayGzZYI3tGmlwpzmlotjxt7L0Qm2tx9lK2FxIsQtX6HcNwvjCbEa3FJnUWF4RAJ6517dk3IAPQWa658lsIv/wBJ8UE1NHhdfhTSxxirec+S5G125nb+FvySrYWqPKmQEA3FgiY4RbUajyW5wL0eYtjGFtxOhqqE0ZmdFnmeWFobftuGUgDTxJ1QNJwjidXiOLUtJU4U2nwl+SrxGepyUsb7A5c5F7666adelyDszIiaxpceyBqSTZCT4nBFdsDec46abD7q54r4NxnC6ekrquso8RoK05aapoJxLC92vZBsNdFosN9D/EEL6SeplwtshLZTQyVHtnNBuRltY6dLrGo80nmqak2lcQ35G6BIyIN0DLr3fFuHqQemHEKPC+HsDmgbhGcU1QzlQtPZu8BrD2tfDqdQqPhjgDC6/wBGVbic+IYPHiT5YzDVyVj2spWksvHKBoHHXSx7w1WoJ5SGkna3l4qeOnPedoFr28E1pwrFsVp67DKmmwuTlyyRT35mxuzTUa9beSpKGiqa6shpIYy+WZ7Y42DdzibAfmkboZIAbGNmtuVPHTAG7zfyW+l9GONwtmZHiGCz1MDM8lJFWXmaLX1BAA/NS1+HUz/Q9g9XSYdDLiE+KOi5scQMrx7SzcwFyNBp9FqbDowbiI4i42a0C6pZZBLM4taZHOOoHT6leh1Xo5xebF6DBKzFcJp6+sjMopDM/M2wvleWsIB36m9lVcO8I12KcVVXDNK+lgrKMSGcyktYwMNiSQCbXItp1TLHfYrn+GMbglPKHGqhiIJvlA2WH4o4c9VxGT1QWae0GeAPgvoHBPR7jOL4LT4zRVOGGimkkZzZZ3RhgY4tzOuzYkabnUaDW2R9JPA2P4PxDhuHT0sNVUYkAKR1I8vZMbgWBIBvqNx1CeT4rQsIuT/o8HmjfEcj2lpHQqG5z7r3/FPQbxDUCalFfw9U4rFFzXYbDiANW0W+Qi377LB8K+iLiLiWmxDEYa3CcJw3D5OVUVmLVJp42P6tJykgi4vcdQmU70zONdHn8lmsBvukhl5coeDp1+i9t4G9F9dwz6ZeDqHieHBMZwrFJJDE+GVlVTVAbG+4yuGtjY6tttZLxf8A7PnGNfxHxHX4N/u/Cz1yqqKTCGVQZU8jmuMYbGG5Wgty2BI3A0Qoazy+jxGeEgtfnb5oWvxdlZUkuu0N7LfBX/o09H/EnGdBiNVROoMOw3DhapxHEqjkU8LvlLrE31vtp1tcXbxj6KeJeGfwiomqsJxHDcXnbT0eJYdVc+lfI46NzWB89tgbXsUnEfkY3GJrQiMO1cbm3gFSSL2Djj/Z/wCOOFcIxjGsYxfhyGkwyLmAeuSZ6luVp9k0xgu1dl1trcea8b57XaO0K1ULdjJAoH3RLgCNDdQuCJgWc+yf/hKrSrOs0gdZVtkUAaCVbYLUPprPBJY49oDqFVqxpBlgaCPNZmRqo3OcAQbg7EJmIxvko3HtEtIcFFg8kjqQZibB1m38Ec9pkicy9szSLpBikjuiI8ygjCJYEQErC7xRMJeepUEbdUXA36oBCmRl8e97aozDmZnjfyUMQ0DQDd2itcMgawgFpJQYUg5xEbWgi5t1UEshGwsnV7mjYbKJrmyxhwH1SDkMssniR9ELJJKep/NEyAId4siqAwdzpDfUpva63/NSk26pLhEAjC4HZTMkeNhZR57bBPD79FjWExzSeNkTFUSeNkCwkqZlytxNyD46iS+ryny1JAtmJKFiHikmC3FG5M8IXLly6iY1cuXLGJqM2qGoyozGtd9FXxPyPD/BSSzPkkz9UU6MPi91J2tVAuu5cgzCtSFL8KRAzFZur3CjenVCzvK5opOVRSPPQJZ7RXGAYnLzayQjYaBDLjqS4rvBUSpEW7dlvheXlE5STt9EJiotOL2Vnw/RzVNOe2I4/i8SmY/RxU84AzvJ6koeRXRljdWUg7qVTyQsEZLdx3gh4xneGpwONFtR6mIEXt4o4SP7WZuoPVAQPykEHVTxyOc/L032RRJsSviu3OPeW6J3C+JNp5aimm2ljLAfNSSlvLLiqSKMyVPYNiknFSK45NF5h1I6rZK+H30etvFXmK1X4rwXMyV36VSEXvvYLOcLYh6jiZZM7snsarQY5SXikrKQ3jkFpmDqPFTUqdMpkjyXJGCSFOkGV5aehSKhMMwT/wC4RP6MeCV7/j82DcYei6WhqGA1lFHmpZL9tkltvoV890wkiHODTZX/AAxjDIsRhdWOeYMwuwGwso5Mbk016LQkqplHTQkThhuJCbfRWcVS/CcRjc5tyDfyKixGI0PEVUxvu2SEsv1YdR+5SVs1PWxiOX2cvwP6fdO9gWj0/hfFqlxFdHLyYY43yODNtBdZXgbPUyYliUmrp59/3ojhrn03BWL85pZy4CLfXRT8DU3J4ehcRq8PlKjOkmPDbRoKA25p8gf4K8DmyBv+v9bKjohYSj/hj+SsmPLcv3XKzoiRVcTfWNNrIKeJomiA63R0sl5ChQc9TfwCCdBdA0kEoy2vYvVzhUjnXilba4LCh2Nzywt6DtIwgMtKNwme0L7LmnPNotd2a/cbqzjPNjA+dn71T4dKBI4HUP7X2O6sKM5HuiO7CpjdlhQSOfE1vWMoynm9VrXW93UMt91WxHlVYd8MiOqI70/7ceoVIsRouTmfh8Va3Wqo3gkeLFsYpmzU0VfFsLOH+A7rHcJF9diLpcvsCzLIFe4dXQYVST0NQbmKS0bOr2FXi7VkJrZX1uGsw/G6p9rxyPEjPpbb87o3C4ZKmpzO6XJTa2rknpudNCGCMDsP3eFb4Gab1R1VCbx26733KKSbA5Og2Wkw2spG01XQwVHL3M0YIZ+a80439DfAGOvmlpqZ9DVyG5mpjYf5NluzV8wFpJY09Dsmhoft3R4dUybXRPjs8A41/wBnZ8WDir4RxKauqIxeSmqGhpd9CsLw76E+NsVrJKespGYQyP46o9/6Abr65JdGMwe8IeV7uZmL7uPUpvJIZQ2fLfFPoK41wMRepQwYzFINX0p1YfAgrP8A/wClfpAqqyOlbw5VMJ+J1gz87r7HjqZI3hzHx38EJUTgy+0aA09en5rLIw8X0fI+JeiD0iUDuTLw5UTAa56ciQD8luOAuA34PTNlmop5K1+/szp5L6AY8RvztL7DzUWL4hWSSZf7G1mhnRQzXkjV0VwvxyurMdwZwo3GqmZlU99FHHpcs1JUz+EXR1k8L6uExxmzHxtuX/0Wop3viZ7M5NL+aGje9pLb7m6518bHSTOj/IyXd6A6LBqGhty4c7+r3m5/JUPpArGU0tFQZ8jSx8r2D8h/NarnNB7X5ry7jiQ4hxRVVLZGAU5EUeuhAGv77ppJRjSGw3PJbIpMUibHlFiD1WfxHiRsMvLkiNzsQN1D+C10kRJxWFlyTYMJstBwBw9hr8XjdjVGcY3AilPLj2301UlGHtnZKU0rijHVONV8k4lphkYPE7rQYJinEz6d1TS0sk7Y9X8p4JA+m60Vb6OMBqp5ZaDE62ijfqyIN5oZ5XNistWUGL8FYpFN6yXwE+zqWCwJ8COhTyimtCYs1vejbYNxvDitJHQ1Ez4alnYGc2B8ipKviKpoJ+TM+rgI21Nj9EJU0/DvFuBCuZTCnxaIh0kkPZzjqhJad88UMMs804iFmAm9kkJUDPjhfWw3FOKIsSwyfDa6pmnp52ZHskZdZTgXjCv4Nr6jAZKjnYbVgiEv2BOx8lqIsArG0k1SaN7IomZiXi2n3VDjeGYXjVG6mLwJw28b2MJIP2TOcgYeMbi1aZFV4hUxPLDYFCvxOpt31Bg+GcQSURpsSwurZLBpDUGM2kHhdDztmi97DIy3iyyioLoplTi9PRO/EZz8ZUL62oczvlCGenDu3NGPqUvrVGwa1cIH+MJ+C/CDl/sUzTHsl6K4fwWs4ixyDDKdxAf2pn/JGNz/ACVf67QE9ishNtbB4Wh9DXHmDYXjNXQYtGKQ1kgENYTpYbMPh9V04cXKW0c/yMrjD+ez3jB6SKjoIKaKEQxRMEbIx0AR0ZuVFFIxwGRwIPUIqOO5Xc2eQSRx591XcR49SYLg1XiMpz8g8tkQ0Mkh0DB9SriMbN6rxT0s47+N4y6hong0WHl8LHj+0l2kf9tWDzz+SnOagrZXFjc5KKMNHxFWYhjOIzS2nJkDnyfO83zEfsjYeQR8eIwv0e1zD9LhNwXDIYmy6DW3T6qw9SpuoBXMpxkrO6UHB0j07/Z+xzA30vEvBuMYiyhg4ipBBDUuIDWSAPaASepz6X07NuqvsA9FOPcMuqqririPB8OwCCJz/WjNnzG3ZytNtPvfoLrxB1HTDZgv4pjsLNQ4NiBJPTdPGUScotns/EOLvqf9lp1Q2ozwz4+YsxaWh8YcS3Tp3WmysPQljFPjvocrOEsHpuGq7iCmrDUDD8XF4aqMkHOACLkbeRAvuCvn2fCnNeWkOuNDdD/g56aJ04iVKqPo3jPGuJODMGwCi4mwvgjCcPfjMFVLh2DteKiNsb2PMgbnLbGxabeXjpc8WcI8QY16S4eOMI4iwyThqeSnqRVuqwBCxgbcAdT2SRbx1svlsYdUN0bM4DwuniirALmSN31AWfF+zb/D7LbWg/7QuMURA7PD+e/3Ysr6NKV/Enorx/AcPmgFfNVRysjfIBdoLDf/ANJXzCymqWkX5Y+hIVxgVdilBUAwNEzTcOiLtD97aJXLYeB7WeCsTp8Lxerkmo2Nwubl1DHTdp58W6WO4teypuH6pkXEFA5mJU1BIKhjmVM7rRxEG4J8v9FZOqxDEqikaYYGQvLRcPfcDTwG/wByqA0GIvqmTVMhlLTcXdoPoOiW0amfV9RhjsTqa08a8M4HDQCFz3Y5SVYjMhA0IaDm23ubdNVU8IcR03DfohwfFaqhbWPGIyMgFsuQlz7u12OQOH1K+eubPH/ZnTwXCuqGE2aVRSVi8T2X0h4Y3DOIKLj/AAWd9TRVsramGd7i4xy75HX1A02+o6LX8aV2DYRwninGmHOayp4lp4YGEGxBLSHW8Dlvfzavnjh/HYcPxmGsxTCm4rSx5s9I+UxtkuCBdwB2vf7Kw9I3HlRxUzD6KlwyLB8Lw6Msp6OKYvAJ3cTYXOg6ePijySBTZ6FxFWsi9AfDzmutHJiMoIGxs6VH4hjmH4PP6H8YxOQR0bIatr5DswOZGwE+QLgfsvnx07x3iVBIbm51QcrHUD6kqsM4npuKqniDDcE9HENAJH1MWNyxOEmRwJzOcJL5iDqdjcrHejOXiTFcO4llw+HhTiKKuxSSorcBqDbM9xJMkRfplJDbXuLN3BBXhJOm90t7pXIPE+iJOFOF8L9K/AGIUmFUuB8QyzTGtwykqebFEzlvsdNG6noADc72usR6Jo6tv+2Fi1RO+V5lrsSbnc8m7RzMrfoABYdLDwXmDdtCU2RrXsLHtDmnQgi6PkB47PbvR1iNLjXo64m4JwOh4XruIqXHaipbhmOtLoKuMy3zhocLkbDoCBe1wVn/AEmVnGnDXC/D3DOPYT6PMEpsRx2nk/DMFZI2piLZGO5tuYW2Ni0kA9PHTwviHCAHtfSm2hJYT/ArLV1O8DK5rg9vQjVVUkybi0etf7bFRLL6esQjlkc5sFFTRxgnutMYdYfdzj914g5SPCidotQExuZzdjZLzhs4fdMJTXIUESuN4eydCbFAFqmqyQGgdTdQh/isYTKrWmjc5sbAO0QBbzVcLHYrT4JAXTOmLbhosD5n/sszIsqeFkUbWNGjRYIhjQua3yKka3RIOU1REI6qRtgBmuAPA6qSNo8FNiMWWpDgD2m6nxP+rJsTURSWNo8EbSxF7g1o1UNLA+V1mDbcnYK0EYggDG95258UBkPpWtDyW69LlWtLZpzeSrqRh0VkOxCSN0rCmB4hJugKao5bnAns31Utc86qsY7tvHkjRmy2lcUPIVHTT528sntNGn0TnnVY1jDfqkXE/ZKEQCgKRoTWhTMHigYcwBExjzUUbfJEsaiYljumS2T9mqGV3igY8JXJWRPdsFKKZ3xOsuixaYOuRFqeM66qKcsL+w2wRA1Qi5NTljHLkgSoMxy4pUhCxjm99GySZcPDA7vlBAaoh49nG4rUMuiFjL77KUMAsAErGOkcAzUov1ZkcYLzc+SIKpF9wlcQOs258hfql4soqjmCSRltt9Fd+jfIIpNASev3RPpBhY4NfcdL+a5r/wDYX/6Hnnq5EZ7Q/NJQRsknJc0GwViQOXktYHT6pKTD5o4i9rbgldEnSJxVjBQ3IMR+yhkIz3DreSuMLjf6yGvaRYX1ROIU8JsXxM/ypY5mtM08Ke0UlQXeqZ+nmqqjP6WFq8Ro6c4PLNEzIWC+iyVEQ2pa5+gVIz5Ik4OGiSNnMr3N81b4fidRSPySduPbVV8UMj6iWop2Z2gpksz5NDpZBpPTGjaH49DCZ/W6X3cmpHgUHFBpmdv0CljkcCb6gixCkL2d4XWWjOrI2TOjYWHZQv3zN2Uk+uqGBdGUTFlUV4qoYua280YyZvEdEDJJnlFtgoibnMF2U5c9tPFA1nsHA9KzEPR/jgqZBZlKSw+Y2CKwSDk4Vyx8ELI1UejoTQ8M1kMziaepjylnn0Who2fogd/eSX+wXJle2i+NaHBuWSVu3sx/JFHUt+p/gmSx3kmcOgt+5PGzfK65yy0RmO73NCigFnyE9TZExe8kckp2N0ady5YwkQcamRw+AABT3dc3dsFFRAPDpfnkJRk4DKeQ9bAKhNjsPlsGv+Q/uKuQ/LJHL9nf6/1sqYR8jlX1bks9WdEeZAYnOu4af0UpKmUjVFpI3PFpuNQpX1Ln07XDvbPCFpJbxZT3mfwUkTOXKHn3Z3WTMWWCVM+HPfy32jlFj/VWcUsUfMlq3Am3ff4eCAkYxkGR2ul2FU9RVvq546d7zyo9/NUjKkJVl/TYnLik8DJHvggZ7PP/AHhWmoK2KcGgoXe0AAkcNgsNic0k0TaOEljRb2g3Ws4QNNh+BSSQtLzHrJ4nzVYyt0TnGkWNfLLQEZmh4toRpdRxVdLIwZ2vjPVZjEMVfXVhfzgYwbgFHV9dTS4dHNI8NdHpZiPLYOLLw8qU5oqyT76oWQyc0ujrGH/GEPwuGSslr6pkYyM7gd0/qoqippq6rD4mvjA0+qwF3RLJ632nB9PJ+5VbK6rpXlkrI3t8not8lNnLNrd7QpklFhxYZZrWI63CUdOiMVtHMLwvMcnVl7KV80kbC6OQPaej1BR4fhcud7owGja9ymCOCOQiJ5DfDOSl2MS/ickRPNhBFvmVdUY+yO55QH3Rc4pjIC9rPO10lTSYc0OdyWPBGl2f90KZrRnKjiJhcX3YPM3Kx+I0mJ4jis82FxGeKU5nEm1id169SUuHCgyerxg//wBYN0RSUrIoHOiaWNHRlgtwvseObg7R4Gym4ikrH0MOFVM0gNvZsNj91dYPhnGmGYjDNNhFXGAdA8aH7r1uomBexgdJmvrcqbGKj1qKOMOtbfWyPCP4N/k5H7MjgmB8QYniZe+SCiiJuWR6kKy4gwOh5nqEtZUVsMgtNHIxgH8Fax1PqnL5EtiN7IDE5XT1fNFy89EJUl0STk32SYZg/D2B00ZwzDmMlIsb3f8AxKf6xyz+jU8NP/gYAU8RPNOM7tVDkYNe8UGFtvsR7fWWSMleX8xhYdehXnGGU8lJiMkZveOQj969HGYFYzFWy0XGEjxblyWk1HioZVo6vjNqVFxUY+I4gyZvLNrAoGPGDzLia4PQ6qzxymwfF8PjcQOZ8TNtfELLScMxMJFJiVRCTsD2wlUUy10XFW/CsQkbFXYZSVUMmjwYxf7FeD8U0NNhHE+IUlM3mUsE742MebmwJsvYTgOKUGGVtbPiUckkFM+WCPJbOQL7rwt8801TJJUEvle8l53uepC7fixe/wAOL5bjqux0tOAObHrERfzCHyctmSTtxHZ/glyPBLm6t8OhCmjjdHEJB24ToR4eS7Fo4+z0X0VelCs4WfFhWOPkq8HOkcm8lP8A1Z5L6YwSvo8SoIa2hqY6inlZmZJGbghfEE8PKZnZ7SnP/o/7LVejT0gYtwNXt5N63CJX3noyf3s8Cs0SlD2j6b9J/ET8CwIU1FJkxPEbxUxG8TPjl+w28yF4z6lJGxscekbBkA8lpY5qvi3EZ+JKuGRjJwI6SnI1igG33O5RP4Y8Myvhf5Gy8n5WblLiukel8PDwjcu2ZyhpZWl2Z4sbW/eivVHE94K9o8LfNJkADPF79AFcxcN0rmDm4rCw+QukxznVJFMkYXbZjoqHUFz1aUUccA0tfxVvPw9SsJ5eKh5H/BKGfgcoGldAB+3cKilk/CTjja+xUYnTxyvL72J3VVLC1htnH5q9nweq1tNA8f40BPgteLkMY9viHo8p/gFCH6VeVt7cxv8AmUsUTSe8231RYwSvIzcsfmFIzB66xs1m3V9tUecvwPCH6RR0zPFv5omBrInXblv4o6twDm4TM3C4K44gWexmlq2coP8ANnLvb7qrHDfFVPhzaisq8KZMH2ILyBbxuqOEkrtElKN1sN9aLdCR+aQ1jb6uH5oL8Kx2SnMsLKGrcPghn1P0uFTRYjKZZIKukqKSojNjFMzIf+6ncvSKcIdWagVbDpmB+67nRnW7VnfWm38E4VN9nJfIxvAv0vzJEerfzUUskFtS381RSVT/AJlBJUOIy5tUfIzeJfpY1E8OcgSMH/MFFzI/71n+YKqeTnN1xDkfKw+BfpacyO2krP8AMFwkivrKy/8AiCqrkdE4b3W8rN4V+ls18d9JGf5kueLYyMv9VWg6J4I3S+Z/gywL9H4i0Oe0t7Qy9NVWVdHFUMyyxXNtDbX7FWOa3/ymF/7P2RWZiy+Ov0xGMYLUUz3PhjfJEBckN1b9VQPmgvbnR3/xBequf+ys/wAQcNYdijTIGinqj/aMG/1C6IfI/wDohL434zCOlh/vY/8AMEwyxD+1Z/mCZjOB1+FP/SYrxdJWasKrV0Jpq0R8dBtTIxzgA5p+hUYjedmuP2QykilfGeydPBZ/6CoL2ERRSCRt2O3F9Fq8Mq2U8DI5Cw9SQQDdZunrGP7JdkKLD7qLm/aLRwRfTNlRvZVfq55h8G6kfZFtp5hvDIP+UrD075BIHQ5+Z0Ld1r8DxHHhZlTSvmi+d/YeEnkYfAv0fiVJK+Nj2wyFwNrBp2P/AMKGmoZ3uF4nsb1Lm2WjuXfGBfdI6P8AbQ8wPAgSCFsTAxosP4qNwc+XMQQBoLhFvib86Y+NvVxW8rN4USUxY213tH1KJmmiLLNkadOjlXkMFtV12MQ8jGWAGrGyOvlY530CAZDPzHHkybfKVcczTRdzb/VDzP8AA+BfpTGOoY8PbDJcG/dKNGZ7A4sc0kbEbIy+iikW8z/DP46/QYsPgfySgKUkJuceCbysXwL9OZbxUzHNGhc0fdRXZ4JhP7LbIeRm8K/Q5j4/nb+aIjkiFrysH/MFUXs7uhcHfRHys3hRdumh2Esf+YIaSSI7SMP3VY7zcm57dboeRg8K/Tyd07+mgUZeTu5IuAXfRyttiFInEJLaLGETlwCfZYxGAnWT2McTo1TNp3nyQYUmDWXBhOzUYIWN3cnmSGMLBcf0ALXAi6PfC4wN6DxTaUNqqwdnss1KNr+zHEwb72Wb3QV0DRMaHi2nmppXZ4smXLY7pImaFxsnhoEZeXaX6ImZsvR0e8NdiDfqj/SCxxo2ka6dPqqr0eSZ5y4O6ndXPHY/+nttoSDquWX/AClV9DAbMbfNe97q8gyerxWsNAqGMezIJurmjzSUTe7porzJxNRwtSR1UU7pos4AyglMx/AckeeKYWOwKP4a9hQRsLbE9oovHdYhroudvZVGVq8JrBgU7+w8BlzY6rz+2un/AMr2SUsj4eqi/YQk/uXlMtNCyMvBtZUxT7sElYNBUmlkbIDY+HiFFiErJqy8OjX6oqB9HDTSCpjL6qXuPJ0YFW2dHK5ua52VqVkW9UWUuWGLJGAOwLm2pQsgzxqTNMaZ0r7lo0uhny2B8U5P2MummMm7mdE26kie4PFljEKsqSWERZHtBbZVzt0l0tDJ0en8F41QTYFJhcUUjKthD/EED/vZbKKIR+rxeDLrzP0W0xlrZ32+Rv8AP+QXqM5yTuf8gsPsFxZvto6cXVjbZo5Xj47/AMUumfJ11KYyVjYgD9T9lNh8LnxS1EmhfoAfBRLUMjYW0zpCNwSo35mRl/yMJVjXMbyCxm2jFDUwgxlg+MhqKARUkZjgjHWwKJLc5iZ4m5T2R6F1jYIujpsr+dLp4DwCcmRvidUERN0Lze6ZQyZJO1p8L0Z61DE/2QzyP7AsgpzeXnfC/Q/VLKLoaLLUkxvEgH1VnTvYafpboVTUcnMjLHbs0PmETBI6I5DrGVKx+wiWZ/usxAGxUlHThl3v3PVdZv1HipGB8YGTbwTWBoSVnL7p/orfhyvZTxyxzCzZARfoqd8jCfkd4FT0czY7h7bjyRi6dglG1RJUQ8qVziwGO+hChZEyadrdQ0HUDqpZwxw9lIWDwT44ZG2Mco/cnbtgDK8sYyNkV2aW8ENHGR2mSkH6pkgqXbuBXMFX4MT3YpI0SvefbG5TqjnkCPnX+qi/Sx8DLp49b35bHH6rWaicesRx5BKLeBULGTB+a7PySvfVneAfmkvU/wByPzRAOMU7zq5n5JksdQCLvFvJPZ658kY+6cfWfljQaMNkFmCzz+ZU1PK3unMoMtSTryx9khjqAR7UBZJmC2QsMufMSfqnyQ+0zMb+5BxaOu95KLZJDbKQUyafYBJGtaLut90M8tL97jyCNyU77WYLpj2xA5RkCDiGxj5y9gaGaKIZztoPyUsr2jTOPso7stpcpWjCMFiO1+So+MsPbNLRVYcWGxjOqvBqev5qLiGn5uBSvY0F0RDxb8ikcdFMcqmjKT0kr4AyGr5BHUi6fh2Fl0ntMYfm8eSLfxQElXiRfljoTYdS8J9HNXesBj6OS5+QgqaTOtltjbmUGESz1dayekZ7GcABj7P06rwh+C4fG8u/HKdgvcai/wDFfRMfC7auknpsbpo56WWx5J1vbqVHT8EcH0pzM4bw7Tu54Af4rrwxcVs4PkTTlS2fO8tBg5ZyvxeF+t/ZtF/zuhiMDhBZ+JyEdQDuvq7DKDC6R4FPh1JTx+EcLB/ALyjiHgPg6m4sqJ5JeZSSP5vIiFyCdxfwVZT4K5EoLyOomA4TwYY9WerYRT1FRGD25DcMZ9SV6rwx6NcGwuo9crGCuqNwJB7OP6Dr9SrDDsbwDCqNtLhuGzQws2jjhsFJLxlSAHJhVW+/jZckvk3pMusLXaLySv5LOTTWuNBbuBDmollJdJKT5eCoH8ZuHusBk+7wFE/jjEB7rA2D6yJFkQXjkaUZ3sFhf813LlOpa+3UrJScbcQHu4VTgebyoX8ZcTnahoh9bplMHBmyeaq3soZN9SRqmsp6wkOfGfuVizxdxb0p6Ef8hTRxTxkTqyiA8mH+q3IHBm6ZSTAZ8lz0YXJ0dLWSe9czKOiwf+8PGclvaUjPpGljxTjOQnPWwj5QI1uT/QcTdvoJi/MHMHkiKaia1+eVwe7wCxFH/vnUyBprxbyAWvwLDMSDM+I1Rkd4DZZt/pqouA+2kdnu/cEBjFDXV8XJoIqeSo/vqpmdkf0CvKKhe+3Z0Vj6sxkeTtgH4Gbn7pTHmUlJiWCVMba/HKeeR+4ZHYLW0lRHU4fmqYKeqLNQSwPuFZVPDzZg58eG0EZPxywh7/zKqammZgzPbTURcf7OI5NPolcWnaKclLTCjS4TJSc6bDaFgP8AwWf0WOxkYXFUu9Uw2nm8tP4AlY/iv04YZBUup8L4fdUtjcWZ6iawuD0t0WSr/TZxPOxzKOioKFhFrxsJePuVZYZvsn5Ej1anoqKssybhqcE/HCXj+IRzODsFkj5tRFW0g37cw0/NeE1PpQ4hq8OdTmrkE79Obzngj7XsslPiOIzyXqq2onP7cxKovi2L536Pc+M6TAsFqIm4fjUdW2TeIvYXx/UjT+apJK+gb3qqEfWQLyqOW8gUmJm0QaEH8VXVlY/Iajs9OirqOU5Y6mGQ+AkBRIlHRgIXjN33FrtVlh2O4vQkCOpe9vySahCXxH/1YY/KXtHrLJf2E50jTsAsbh/F5IHrdL94z/JX+H4th1cQ2mqAZLdw6Fcs8Uo9o6Y5Yy6ZZmX9kBN5rerfyTBqEx4IGZIhmSGTw1+oCTmgbhQ3SkqhMkkkjkjcx8THte2xYRoUBLg+DSjtYXT/AGYB/BElIXLJtdGqypl4ZwF//gLfR5H80LJwjgj+6ydn0k/qr/Mml6fnL9F4RM1JwRQH3VVUD62P8k+mwD8K7clL6/F1IOo/5FoxIniR1wm8kn2zcEugbC6jD5o7UjI4yN2WsQjh9FX1tDT1L+Z7mYbSR6FRsqq6kGSpZzoxtKzf7hJV9Gv9LXP5a/VJzLfChIqlkwzxvBHkncx2jVghBl8SVE999kwlqYc3ezLIwpc7ukpB5JLu6rmnw0WZh413C6yQF3VL/FKOdcpM2qddMeG9EUAQ67plvBKQ4JL+KIo0ghJcp93BNOU+SItCJClt91xLeqwRpFkhT+yls2ywGjyS1lycInnZqlFP85XpnnNpAz0mU22RRawDRlz5pWRSyxOkjYS2PcgbLCuSIo4HHfRPZGBJlOyjNRc7WCssKqaMUVUyoizzHuHwWCmwUzQx7WUclW491qFf3zZd0QofkxXyPduUi5Op4+ZOyLxNlrF7LfB4uXSGUt1kNvskrPaVJtfTRWUoiiEbB2WsGipamqbzX2uTfRLHbKPSCYiwb2JG90ks0TYjdwAGzAqySoe86uURLinFcjVcMY56jIOW3W6n4nx6pq6bV5y9LLPYHTTVNSGQwvkd4BW2KYDiUNBzp4eS3XvnVI1HlfsKcqM+Kl4PeK0fCkxqmOpsxLs4sqZmFvI98y/grXhhhwvFGzODZ2kdwBNPaBHTPR4vZZWaWGijxSqDssd7lV78dp8mY0cl/M6LPVPEb+e59NSRxnYF+q5uLZZGrxiR44Xqt9WZPzXntfDLE2Jj7Wee1r0T8RxrE6uQQzVjzFcExjQfkkx2Z1ou92IzqnhFpo0naZRVknNqHOG2wSFj+Xn8E2JmZ6vYKVsVMXSMvn6K90QSsCiifLQRsjcczyTbxCrnscHlp3Cu8OdfFWsDMjAw2Cq60D1iVwGXtlYDBiNV1ylIXLAY1cuXLAPTvRFTWpHTu0Gcu/L/AOFq5akMiybues3wfnpuHKemhBdLPYadBuVpqeOGkDZJQZ6uQdiPyXDkdyZ2QVRQXh1Dch9RpfV9/DwRFRUxuIhp7vsdcgvZDRRzzM5tfILX0ij2FvHxRHrcNPTtIYB/MqY7CYqWd5bntYHO+/REeqs0fI/UagIL8QfEMrtb7MCr6jEKyoppJWAxjZgG5PRFJsDotquvpqUABvc2A6qCinqMUGc52QvNh0uqGDlU5LJnvknfp4lXmH1cMMAMlowBZgvsqRSQpex0rPWByWARU7Mgt1J3U7MJNXIaYtNo4zIbeP8A8lVLOKMNpI2xulG+YjxS0nGoNRI+KmkLpNyRbrdU0I7I4xNTVBikBEsRs4HqFZwPZKwP6H9yGq5KnGJPXIaYgRC1+sgG/wCSip5XR+0Zt1C5MkOLLwlyLeMSxdpmo8ERFKxwy3sfAoSiqopBYPyu+QosxxPHbb90qGY97WP7zVD6tvypbFTMp7DsSH+KXlTD5D9kQA/Kqx4FOD6pgymP/wBSmJmH9l+RTDJL3hE9MYYJpx/4d/5pzJ5tPYSJr6ioH9jMoZK2rG1PMVhaDBNMbewkUwln09hIqg4hXt2ppvuVBPjlZEfaMAHnME9g4s0gkmO9O9SsfMR7grHs4xiZIGSyxlx6MeSVbR47MWDl0dQ//wDGf5qi2K2XntutP+9Labvcn96z78Vxd7vZYe8fU2UL5+J5e56vD9TdPxYlmntOP7ID7riJj/dj7rL+p8SSn2uMshH/AA4Qf4qemwqrYfb49XzHyyMH8EaNZfcqXrIxRSMsdZ0NDRMAymSom/xyFEsogdqYHzKXiHkDy1EMW85P/MuZiFKN3EnyCsGYY8gOyRsH0UkdDCw9t9/oEeIvIrfXoTazHlSCpYdoSfsSrURUzdor/VSiRwGWNgH0ahxDyKgSPL7CmkufCMo1+eWglgfDJaRhGyLY+Q21Kfl8XlMkhebPNafDcamnyjDp2C/fk0C1nC2A1FLWiuxAseWdyNmq0LGN3TMRxCjwjDpsSxCXl0lOM7z4+Q80qhFPoo/kSqgqRjyy4bYeJWd4txqj4cwebFa/aPRjOr39AF4fx3xxxXxnitqaqOFYbG/9Gp4d7eJPitjWsZiXD+Ey8UV5qqikgty7Wzk7EjxtZUnkUUSjjlN7MlHx/iOK4mfxTEfw2i7whYCzmDzK0tFjuAygZcQov84WcxD1aprxL6rCIgMjWW0spBh2BTD2lBB/kXBmnGbt2d+LG4KkbEV2GyDs1NKfo8IWrxPCaY2mnjB8Abn9yyc/DvDzzpTNZ/gJCqsT4Tox26KadnnzFKEcbe2x5c16NPWcZ8M01RyZZpGO392V0XGHC8u2JRj/ABiy83xDhiR05caqQm270G/hqpA7FSD9QulYcLXZzuWVej2CLHcBm91idKf+cIyKpw+X3dZTP+hC8JkwCvZexjKiOF4lEdI/yKP+ND1IXyz9xPoICnfs+N30Kfki/Y/NZD0S4RgVdgsrsdZMyrgeSX894uPzXoZpeE6SOJ2jWv7h5hKhLGourD5X+FazJfRn70XSOhzjmMfbyVhh1Vw5UucyJjAWfOLXV3T0FA5gfHBGR9EqX+wPKl2gCmxChiAGYg/4CtZg1I+pY2d/uTqPNVLKGkGop2IplZLEAwTEAbJ1om8l9GnZGxjTdwjaFmOKPSFwzw3BJerjmmZuxjwqnjClqcdwaSiixOallOz432XnFH6OKCKsy1lYZ5z8b+2rwqXRNziu3Q3ij0w47i75IcGppGR30Nsg/PdYStg4tx6dprsUexl75GXC9bpOE8NpyA+xsrB9Dh9NF7OFmnWyk/k8fqjrWBNbPGhwnSsYI+TnO23VSS+jaWSmdNEzJp2Qeq9R5lGx45bGA+KirMUp4ospOvglXyJ/pTxR/DwHFeGKyjkLHREWVPJTVER1bcL2TGZW1c5eWhU1ThFJUsN4hfxC6IfJfslL48X0eZiZ8b9ND5oo4gZGBsjBcLT1nCzCdDb7Kvfwm/PpUW+yus8H2QeCa6K1lTHIyzQL/RRk3OtlcM4RmH/jPyCmj4RZf2lXJ9gn82P9B4sj9FMyYMFswXCtc2QPbKGOGxCvxwjSg9uWY/dTR8KYcDqx5+rkvnxhWHIQcN8QznEI4ZJZpzJpa+n1W55niqTBsFpKScPp4WMPiVekNHRceecZNcUdWGEor+mNPkk7XRSDwSPCkOQnvJhUiY7ZawjUoeOqaR4OSEW3amASXC4b2UbP2XJ4PwrGY/4dEt1G3vaJ17rABZ6MF5lhdyZfFmx+yiFTNTnLVM0/vGbI7UJCAW2LRbzRv9MRMlZIwPYQQlPkh56NoJfTP5bvDoVD6w+I5allv2hsiCwz6rgP2rqISB40dcJ4KDGombcBPu1DguT7lKFD9kl/FNukv4oozHJpXHuphLuqwGKfFNd3tV17rj5o0KdZLob3SD6phKyMLkvsu7QKbmsudIiY8wfMwbm58lE+pNsrW2Q65emeXxRIJnh97qww/FH02Hz0gsBKbuVakKIy0KdSVw02XLkrMcAuXLrrGOspqJ7YquJ52BUN1PRNYZC+XusF/qsZBeK1fNqDy3dkBVxDnPNgStDhmGU0kQnlu++tuiDqDDFK5rAGNudUE10h3FsDioXn3nYCIFJFGwdT5pH1ccYyA57KB9dIb2aNUwNG09HxZFV5nODGDqSrjjSupqqnFLTPM0hBGSPtkrI8J8PYlib+dIXw0/zO3P0C9Jo8Mo8MoJjTRjNkJMlrkrmyNKVlYW1R5ayOaO7HsyEb3te3+v5LZ8OYbQx4ZT100IMss1iT4LLSi9RK8ucddltow2n4GglDbFlnD81Ru0gceLobjtJRxU0soiANrDU7lYd9JFzC4Xc0LW8U17ZY4oI9bgSH7rM1GlI45e+lgjNlTPHEHdcxKZi73SHTtdmybUOcH5syiildNJky+CtWxW9E2HUsheLsP5K4nNjrswXsrzAqVkNBnlFy8Kvxihh/s35G2u8eASeTYVCkUtFK2KWWqk0uCAqq/OlkIGhJKkxOqbKckTbR+ATMPfYlVsl2yMRv/wDlMkbYoupPtDbqhZA4hALWhqUNzvDR1SKxoKJ2k8ujGdq3ig3QEmz1Ph50VBhQmdkzWEcd/wDX+rKb8dwuhkmJm50zzqRrp5eSwNZPUSYWZJqknOAxkY0Fz/8ACZzhFHbKXOsOwwXUlgvbKPNWkbWTid8jjHDSTHfyVdUYzXl7XimfZhswEqkgq5re0ZIL+ev0ASS3dECxkg+qpHDFeicssmXEmOYzCfZMj11JJvb7qH8cxZ4ERlhY0eH/AMqmfDUPYM1PJb6bod8FWD2IXgebbKqxRJvJItJ8UxG12vhDj1Gh/igamuxDRxlzgftn+qHfTVN+3G+/+FMME17Bj/yTrEhfKwyTEq2l5b43R5/G5NvzRf8AvlilLJHzGQTNAvYaKjfC8vsSAfPRMkpSQbZCUfBF9oCzyRvsO9I+OCnY6ChjJIsO3oBsi+HvSHDNWS0+MwikcT2Hg6fdedYFmhe9ztO2Ovhqur5BUzuqJWAyPAv+Sk/jQmmmU/yJQaaPbJMXw2ZgMVXCb7Fj7FJFjraf3eI6DoXgrwknls0Jv5FQQTltRmLjlOhuVyP4cV0zrXyW+0e81HG0NMCZK6HT6IbDPSLVYjijcOw1kcjiCcz9AF4nI2z8u4V/6PqptDxLBMdjcFJPAopsrHJbSPaBjXE/UUg+xT/xfiY/21O3/kRsTWTQtlZax8Evq7PBcHlOvxorZMQ4geNa+Nn0YgZ5sad7zGJB9AFfvhjA6KExQ+SKyMHBGXnhq5HgS4rVm5t37LZYRwHw+6Ns2KYlXVBIuWAkBVcuG08vb7ZcNQVAcHrpX3GMV0d+jJFWGTeyc4N6iegYVgXB2GgOoaYQk/Ha5P3Rsowq5Ecj9F5zT4XXQj/7zXvPm8KwjirI4yz1+d9+ptdV86IeCRtBT0jyLVMYv4qQUVERrWx/ZYWOGsjfn/Eag/UhSA1YGlY9Hzo3hZuxSYazvVYP3SgYVHZwew/dedVdTX9sR1kwktpogy7Gc8Tm4i+w30CR/LgnTHXxJvZ6gamhb3HR6JDXw6DmsAP7S8tY3GLVAfiU3tNtNlH6riJgiY7EJyWOv9Uv+bAZfBmepmugvY1DL/VM9forF5qY7Dc32XnB9a9cE5nfcC1uih5TxTTQc1+WU3ek/wA6P4Mvgy/T0t+J0DOXepjHMPY13SsxXDnyyRCpZmjF3jwXmksLpBTB7j7DueSkZG8TySgnNI3tnxQfz1+DL4Dfs9DfxDhMdO2oNZHyybAhSP4hwiOoigNS28my82FNEIOSB7MG9k4x3eCW6jZK/n/iGX/j1+nozOI8LkmnjjmBMW/mvM/StxBV8Rz0+GUEEgw+DUn+8f4ooRC5dl3TgwDYNSP58vSHj/4+EXdmUwDCJIq0c+ns1mv1ROJwYrXTyz8sMudB4BaQHXup3XuqD+VNnRH40EZZmA173i5YAp4uHqwA3nYPBaQHwC7tJPNkY3igUI4fm7Oeq1G6kGAs5hc+d5CvLftaod4eCbOOvVDyT/Q8I/hVf7u0pjyvleTfe6eMBw1hDiCbeamqWSA6OeVAJJo+o/O6a5v2LUV6JhgeFgG1O0g+KcMJoBb9Gj0UlPNcauKIZlf2gl5S/RqiDspaaK/LhYy+9gl5cYFgwWHREEJmS/woWw0iMBvQNRcdXUsjyRVEjB5FQZSlAd8qKk10LKEZqmiDEMUxCljMktXMYwNSqaXjCEj9dkefC60nKEjCyRgeD0Kp63h+mkJfFBGPLIvQwfIxPWRHkfI+Bku8ctFdHxbC+UB9TMB43WswPiDBsSnho6eqdJUAdf6rJyYOyPsmnYLeSIw6kENW17GNFuoXasuKKuKOH/DySdSl/wDwbarqC2rc0G9nbquxmtdFRya6nRQGURguLlRYxXOlOS/ZXnv+metBVFIGNXJfvFRTyvkGrlGm7JqCduNU3YrjmS2uETD2APTZYWO+HVLHonv8kPY3ohEbRomctql3SddUUxR8bGEZS3VPEbR8KRieDcJGx0lRwFtmpQbfRJskusmZ6JOneSk6Jia//EqEhXhqgfp9FJzFHIUBiO99inX8Ux48El/FOgDtOi67g5N3S3tusAeH6p+a+6g3XXWMTApeyVECnLGHEEBRSWcCC1PzWUTzuihWgV9K5j89O/J5dF0dS5ptMyx8UQTZIQHdl7QiZKh8bmvFwU66GNMWdqI/ZKyVw0kbZK1+DJk922S2umgi2iUGyAw+xTD1uF2ZMJv8SIgp02TbuSE26pt9EaAKSkv4pHJhzImsU5U0kgJDmXXWFPLElkq5emeeckKVIUEYVcuXLGOXJWrljUIpI+790xSxj2Zd4FZBDYcQqaen5cRGU+I2VZI57yS5xJRjB2Mp2SGFoGd1wD+9GkFoFY0khoGpWp4cwugpyKnELTS7si6D6rPxuaJRlHVXD3zPja7mGyEkBGwPFEcIAjiYANhbRDz8XPdTSsbYXYdLLJlj5X9x5b4KR9LM6nkIo5tATcMU/HBFOUgOTE381zyAbm61DOJi/hf1N0d7R72WHkhmLzaJ/wCSuDQ1v4FzjTS8rJvkKdpaFblbLBlR6zHHLe9x1KFxSW0TWNd0uUFhVU2KmcyXQg6KGpqxI8nNusomvQNOeybq64HpBV4qAWgi/VUckjXXstL6N3WxSTXotN1Fs0VbR6fiGGUMlHpFyyBa8eiwPGhhw3BzCwh89W+wvuyMf1K3lTOwQHmPyRMBe8+DBuvGOJ8Ufi2MTVZPs75Yx4MGwXPhTbspldKirKKw7KJDduZDKSnflfrsuo50WFZI18Ys0C3ggSU9777KDqiM2FUEbb5y36I+te5tI2NnekNggcPvJUNYO6NSjZSPxtvM93Gy4/JT7kN1EmqGCSpho3yER07A8+JJA0/KytKZ7IYhkp9OpeQP3alUtVKWYxPUsc4Me8G43senkrGsndFhcGZ2QmRgZk6Aak/mqpeiT0XIe+xaGwtJ0Js/T9ygkkPNhjEwFtdIzb6m6F5dIc8ntngnORnsLoKrkjE8VOYiyM2vZ3nbw2utpPZknJaLKUsvI6SuAJOt4xp/60E+ZnMdkq5D/wDg/wD+0TJS03KvHKCQ8scOYTsUPOyFsD5Q8nbS58bJ4tCSTI6l/MlLWVDxoLnkkfzQ4bMydzzMfC74yrKJlMGSPyAhjnjODJqANDv1TcUmZEyL1a9yBnJL9P3plJLsTjJlVEQKqwqWG3V7HptS/d/P1HRkf9UXiMjuXC4PHMIIeNTt11+qAIe85jY/ZU5JqxeLujoI5BSGXWzwbXNrqBgaS67yPDXRT0bBLBNCGB749QL2NvJQMjIvbY7hQ5N9l6oWo2Aj+4Qkcd5Q07It+gUMf6x9kGqCiZ+pReD5hXtUDGXARFH7Oojf0uueXs6o+j1fhPH3RRNpKl/Z6EraQtFQwPbNnB8F4/SG8YWgwPHavD3gB5fF4FeXkhT0ejDaPQjTM+q4RtHRB4XjdFXsFpAyTwKsgGv21CmYg6p17KUsaF2RttkUAiOay5mfqpgWlQVcro9tkyFZzz+0o3yNG5AVXXVUo+LRASVL3jV6olYpZz1cXr4i8BurIBpjDgsBiFVJTYjFKH+zOi2GF1Ylgb2t2rkz4/Z14ZrphpyhRP8A3KUj9pRPDVyUdJES26aSMyccqYcqJh92pAWqIlOD0EYkGqdlaFGJG9UvNYETEjWZuyEvLI3UJqLbJPWUKCTgJHsPRQc/4kgnumoARZdZqgErb5inGVtkRSbp3tV1ndVBzbruY5Yx0zTqOiDfS9u+6Mz7Jjw4vuEU2ZoClGQZb5PoE+jlIOS6kqKbmHME+Cnawa3W5KhadhLHg/Fqn/VCBrgcwKkD39UvYwSC1duh89viXc39sLUYKzJ4k8kCZmdXj80x9VEz+1CNMwfLypAWuaLqqrYnw9uJtwnmtgG8qacTprZc11aHNEZxi9lTUVzzdrrhASv5iua+GGogM0bLKkvYrpic7QwH4U8A/ZcQnM13TAoTKktZTgXCUMS2GmRAJ5yp1vJNeEAjCPBNt4qWyQtCYBzNE5I1Of5JQpikXCaU4FI/XZFGkcwprykuuJunJkbwm36FOJ+EppWMxpCRPC6zSmAMt4JR3U7ZKQsYYcuVJbVce8kusajkt1y5GgCX0UZN04lRlENnXSg3GqauQYCZhSvYH95qjYVJdKOQmIs907TwSCW3Zc2xU6bIGuGUtWTsV6GbpL2UZjezuruZ46JqNY46lIUv0TCdUQNCHzXX8Ut0n1WBQ5NI8F3aS6rGo8qXLly9M805cVy7osY4JUje6uWMKnJt1yFmQ5E0A5hyeJQnxKwwDKavKd1m6GXYc/DvVsr5NQdh4JlW1skBYbabeS0Qo31XswzO4jSwVbW4dJTTmB4u+1zbopci1UQYBgbKnEIWynPGSNBovTIsBwuNjbUcbiNtF5nhWNVFNUtdDFGMgNr6qzqOLMZfJbnCMWvZrBdaUZyYqcUegGkgaOxDGPo1CYoBFhk/ZFsltl59JjmLPJ5lfPc9L7IGtxCvlpncyrmI63kKRYX+jc0FC3buSTc9L38v9fzXokbIv9yA1ozD1a+9yvFnyS31kf8AmrqSrqW4aGNmkty9e2bbKrx2kifO22LjEDDRyzRjtMIJI8Nv6KhR9HW1HLlhc8vjkZYh2qifG23csqJCvYGtBwNUiDFzmIALOqpXxDJcJaPMKhpDreKElaoEdNM3HGeN8+jFBSOeTK/2jx8g6fn/AAWIrIHRPzZbNOy2WAYMMUtC5rWODC65duFdP4Ro+W5kvbcRuEicYLiNKLk7PK1yMxmhOH4nNR5w/lndBqidkhQnxNc56iCnhNiXFYZbLbC4WNcLeCmqcjKwTRsY+W2Xti4HmhaTmluYus3z2CJy3kbymv5g1v1/7JYwd2UlNcaFex745ZZndqTtkW1Pn5BSVsrazBBDFEAYDzLjw66rpY2syuNn63yMGh+vj91YkTNpgwhkLZHvbHF9Rrfy1VSF2QxR2pgzvOLPzU0WD1NZPG6FwYM5N8g7mmqWaGLDBAZKnmS2NyNhZhSVHEDIiTHc9hjBb7odvQVpBhwqqpqDk/iGTtl4sdbdUJPDo6KSsneDrYaKvnxCoIDhsmSTVGl85v4BOnRNqwi0kceUTTFvUE6JH09Ppdh2tq8oT1qpYNYbD9s2SPrZchuxl7dDdByGUCXEy3ljlxMBB01v0/7KknMpJzP/ACRc8+chjnWsNlBz2NIc2FhPi8XQTGa/CXCWugL61+jGMIZf4yRZQSS3tbfqmz1MkxzSPLvAeCjRVIFivLjumMOSUEp2qUREjXRbjYLLKANLApbaaKup5SG5Ce4p2zaFpv8AYpHjvZZZeKo0WD1rRaGU2PQq7YAfiWGY/NHlLj9bq8wbEwAIZ5MxGzyuL5HxZfaJ1/H+VH6yNDGXsfcOsrnD8brqW3tM7fNUcbmvs4OuEUACF5krR6aSkjXU3E8UlucyxVlHjNNKOw8Lz8McnMc4HRxCXkweNM9AGIMB0QtXXcwFqycdVM3ZyIjxCW2UrcxXiH4jVvFxmVHNiTwS1WVa7nXcFSYhTPGoaSurHNPsjKDRHU1Tqgi7tRstHwvXksEbztssYS6N+rSrTDpskocHW7V0ckbQYHpEcz3aJe3bMUzh/LU04cDfRW3qjvBcDxO9I6Vkj7Kt4cmZXXVx6g4p/wCGeLwj4Zh8sSjMblxjer4Ycz5wnMoIRvKEfBIHmiUHLeEhjf0WgNHTAe9YkMVA3vzM/NbwSD51+Gf5Ul+6l9XfZXkkmFsv7Zn5oV9fhcZ98wo+B/pvN/orRC66dyXXRUmL4UD3woZMaw8Xtf8AJHwL2weV/hHyh5p2W24KjfjtH8MJP/KoX47CdoCj4YfpvJk/AgC3wpCX/IUFJjb+6yBQnF6p20LU3ixg55GWV3/In55PBVH4jXl2kdvsu9axB/S32R8eIXlkLMumvso5JJgFWmTEX7uITJIq5wzGQ/mtxx/hrn+hUk1SdnWUZkqD/aj80GaSp+Ob96X1N99Zk6eNehf6/wDoIL5LazhMe8dZ7fdR+oNtrIuFDD1eUecfwFP9OMkfWdRumpuspUvqVOPiJ+6T1Sn6gn7o+YHBA76mlHiVEa+lZ2hEXIz1Wm/ugUrIYB/Ys/JbzMHBEkWKNlozG2OzVXEX7QVnI2H1fK1oCr8qXk2FoYA5PY1y63gnjuoWAVgUgCYC0J6DMOAaopO8n3TD5rIzY29lw1SEapoOqYDJLa5kt0jClI+JAZCJE7qmvNtVgSGXsU1y4m6b1VEIdukXE2K66JhCFwNkt2pqPYGSbrtkg0SnVYAx4umWT+qQjqsYTbdISnOTHjVYJxy5VGRZOcmO7yKAxh0ShJcLkQEjFJfxUTD1Uo1SsZDh3khC7ou6JQtCEaKKSNr1KT4JicUhLC3ZNzfCp3bKMgHdEUau6JpDgdEoPisZDvouObouBXbLDUeVLly5emeWcuSWSrGOXJAlQMcuS2TlgjR3kZgWuKRN8SheoToJHU1XHIOhutWgdM9ZjkhpKMCmF5HjUp+GULH3mls9z97qkwmuZLE05rq/p6pkURLnANAubrklaOpKzEz4DNHj9VTxRktYbsPkdlaxcMVUtnFgAPkrDBsYjr+IJG6AlmUfZasGwHgqPLJCPGjCM4Sq+90P7kHj/DklHhnOdbey9HvfZUPHRthYvqLoLLJsMYRs8ujoHvk06ut5rYYxwpLBg8s4foANOqqsO5frkEWS7nyAbX6r0DjGTl8OSu8SB4dVWU2mkifFbZ5bh+FyvqAwfGCqyr50NTJDJe7HkWK2GCZjjEPZt9VQcYwOix2Y20ks5Py3QslSRWGa8drLqZwD9XKKymghc4ZraIi2aSix+WgxgVEJ7JpmRnTyH9ERifFtfy3CIkSH9yzU7mCCLUZmXaQhxM8u1sUOKG5NDJ5XzSulleXyPNyT1TERyeYC9hA0vZDoiM5E00bbB7/sEM3vKzhBBa7dxH5IpGQXEPd8w8sbef8A2Rsb4BzYY9DG6z1Xy08kkkbcwsCCb+CMiiccQqpCbh7wR5ghFAYfTCKGnkqCwGXQsB+qfxA94Y50sIkEVSCLad9n9QhxrIGb3bZEYnI+ejLwT26UOPk9jxqlap2FU+wdkcWKANEz43RAgxiMvPgo5aCnjdyZM9wdS8hmwv0RVHRQ4fV5aqokm5jNcnYH5qCo5LC5j4WZSN9SR900bYHREyaFgFgyw8GZ+vmueZpGWbFJtY535Au5xbHljcMv0so3yO1u66NM1jJIZrkHkx638fshX0wIsZXv/doijJk31QctS0Gw38kUmBsikghB6/moJImAaXUj3zSfBlHnooXh5O4+yIBuQJOz4JCxw30SWWs1DuZbZIHuTdPmXdlC2GhzDaRO5mqiH71wOqMOgSCQ/VECSyCBS3TiF1RYxUUxDc12eBWjw/HaWZoa53Ld5rCAndPzlc2X4mPL2jpxfKyYuno9OglY4dl4N1NoV5vR4lU0xHLmfbzV1RcSSAZahl/ovNy/+OnH6uz0sX/kIS+2jX5LLj9FV0mOUcwHbsSrKKeKUZmvBXBPHOH2R3wyRn9WSR6pzxcagEJttU8BylexyGWlhkGrFEKBg7vZRtnWHglA1TKcl7A4RYTh2Kz4bFkiYT9kQeKMTO0R/JADQ7KZqyytAcEGMx/GJdmkfZSCtxyX+2f+YQLHuB0cpo6mYbPR8rBwC+XjMm9Q/wDzpwo8SO9Sf86iZVzeKIFTMRo5HyAaYz1Cq+KrP5pDhbz36lycZZid0hkmyo8kD+howqP46grvwymDtZCmGaQfCUPJVSC92lG2LbCvUqMHvE/dd6vRj4FWyVb/ADUZqnpqZuRb5KRvwMSxmAbMYqM1LynsmejTYtly+aEbNCZ60zyVTJMT1UfMPitxBZbvq2qL11vRVjy5IC5akayzfV67pfWbhVfVEReS1I1hL5bndcH/ALSHObMnDMjQGSGWyZzviSOTMq1IxJzSUwyOSMFkoF1tIwvNckLj9k0ixXdpYwuc2XEApALJRlusAa5rgmqW7brjYo2YY1OH+JNPgkuiBIkSHRNY7ouOZYxxZp3ky1k8Fy7crGOYE/8AZTQpGrBQ2yaVKdVC/RYBDIo3KV4uoyE4gn1Tbpzkh7yYwgOieDoo05iwGO2Tr6Jdwo3lYw4+Sb8SQHxSomOOqSy52bokKxhLKOTyUijeigMiuuBXFcPNEA9qemNTrpWOSA3Ka/ySBcgY4FK5IuOZMBiFRPKkL1ESiIJdISuJSLAOvZLmTSmoo1nmK5cuXos845cuXLWY4JVzBol7KzDRwCkDPiKjebFIZHFEOkPlNnC3ROfGTFzRsoCNMytcLDZ4OT9ig3QFthPC9W4Sco9FoMbxDlYZyg7V+ix5z0GInLsNvorCsq/XXwsa0mw2HipyhbsrCVKg7heOodjED6bUjU9NOq9PBdlDis1wxQx4VQc+bR5GZ58Fe4fVRVdBHNFq0nRSm7egrXYUz+KzPH73CmhbrfVaYFuYWWR9IEzRJDF1slgrY6KDhyMvx2jabG0wOq23H5tgzWB1iZhs6yynB8bjxDT28Cd/JXXpIlcIqGI3sXkq0vuia+rKfh+I/jMAdYkX2QnpBgyVkEwboQWlG8JR8zHIyXm4Y/dGekCkc/DxOPgeCin/AGCXSMGI2uyjJmt5LT0WGU5wwZ22us9SAunAyki62EhbDhQ8cl0+T0CC9mGrYW+tubG64Qz4XsGa2iMeOZUSOv1TnnsZXtTiVYJTz8vNmFweigUxiueyNfBQkWeQUAMfTsc+QNCt6aFxIYHa+J6Iegi9n2G69T4KwGWxjDezub7kpktA6Hvc2SM8u4Gn3PinwC0ru1/Ys2+4/koXnLHkHWxP0UsXZn1sPZ2AH1KIruiaB3txqjav9QjaGm3tYyR5gqt7QkGUalXEkM3qzY8oA59rk+ISyDHYHPJzaCkldrI+EbIYxPezK9up1CNpxbBqRxaLhlkHUVIaATYW80VYGRBrmMyn9yiqHtHZLbnw6rg983u2FkZ+M9U9gETtrnz3KIOwY00sxzSHlt8BumSthpRp16o+UjJlKrKyaMHKW53DYJrANc90nfuL7MG5ToI38zlRt7X7mfVE0lKWx82U+1f+4IinjbfTu3/NBvQURR0jGDNIOY7xKlEDLatAHgAiD1aEjG6dtCxgR2HUkn9lr5FMkwqkA7zx9CjSWjbS6WNnU7oGKs4Q0g8t5H+NQyYTVjbIfoVfu7qbbVGzNGcfQVTN4T9tVC+KZveiePqFqQbdUpfca7I8gcTKMLu6n3WjIjPfhYR5hRmlpXHWmYjyBxKAG2qfzD8LVcyYfRnZhb9Con4bT2yh72LckDiyq5ltzqj8PrqhrLslIsUhwuG+lQ/8kopHMFmvH5KeVco0WxNwlZcU3EFXEbP1CtKbiaEnLI2yyRik8QoyyQdFwT+JCXo74/KlH2ej0+LUco0kRkc0TtWvBXlfNlj+cIqDE6mK2SYrmn8D/wCWdEfm32entk1UodcLzuk4mqY+9qrek4pjNua1c0viZI+i8fkwfs14ylOAVDTY/Ry/HZWUGIUkndlGqjLHKPaLKcX0yxYHKdma3dQcUrHnSQI6M/tAqbGHszfMpRt0UYepBYhLYaQmZp3aEnLifuE0x6p4a4IgRHJSxn4VBJQw+V0Z2rWKa5FTkvYOMfwr34ewppobbI55SfCm8skDxxKySkcCmGmIVlIdO8oXJ1mkL4kVxp33XcpwRjymF/7KbzP8N4UC5XKVmYWsnF/7KXM1Hyi+JiX8U69lGZGqOSdjDrZMp2L42Sk21Sg3CG9aYXKUSj7IuSBwZIlCi5o6pvOYspIHBkxKYXJnPZ8ybzGHtXTWgcWS5vhXHXZRcxniFwlaNnogpjjcFdmTXPb46prnt6LWCmSEpLpgN+qUFvzLWamPung6KLMluiaiS65vkmAp4/csA5OBSDxSXQGJbqOQrrpDqFkDsieU0nROeE1uydCURlNupCNEwhNYBVwXJPoiYeCkfsuGVIUQIS+q4HVNK4rGHlJZID+a67VgCHuqN6cSoif2kUAQhJ1SkpOyETDm91PTAQn5m9XJRkKT+S4iy4PaF3MZ8yyM+hUwlLzGdVG+RqYU55UT058jL95RmVq1CM4lddNMjPJNMoCajdEib1TDKz5knNZ8yyRjzdclDXFL9F6BwUxAFy4lJdY1pHA6Lly5FIDZy5cuWFJI25o9EbgUnLrMpdo8WUNG3sfXRRxnlVLfJ6z2P1sseIQM0cg3Oin4UfBT1bZqq3lfooTS1OJ+2jYTHGbWCBqGTMeRIx7GjdKkmqGd3ZsuIMc9bYKelNoRu/bP+9E8N4xNT4eYiwPDHndYrC5M04p3SANJ3K1U8UNGyCFsjfaMv9bFTmklxKRd7Zo48deTrHHbx1WT4wxWSprY3hjAWC2iPp5L6Bwss9xHlNaf5JYpWMtB/B2ITR4vzA0WEZFvyRfHGKTTVdK5zGDIDbRVHCR/T5SdAI9yL9Qn8WyMfWRNzXIZuPqnr+xF9Q/g/EXsxMvMUdwwjwWh4gxBlVhU8L6ci7N/BY/hQ2q3HPk7C0VTkdE5mYof9jS6MfhAc+pa23VaTH5eVRZM3SyosCkjjrS51xYndT8T1bJAGxvunluQsdRKaAXuQ1SSDsAn9ySkDQzUp87/AGfj0VBUQR99nTzQcvvn/wCJGxjtx20uUDJ7x3+JAWRaUb3GnAG2bXzRIcG6lB0Tmtg1/JTxhzzp9/JOhWiemEsrzqB0L/JSA6wBjAyzyProP6JYwGWs0W8El3Rvie7XtvDfAX/0UF2Z9BLCyGQSTO1GoCixDHnS81kTCzOQ4E9CF2Ttgudc/wAEyLDxV1ZmfpDt90aXsVN+gajxCpeySnyl+pLRbQIiOjeXiWpeJJPDoE6Vk1BI60WwHOZb/wBY8kZdklMJ4Xh7Shf4MyCSRoYLt18goDfPnJ+lk57b9t3joFBWTcuNzAPadUyJkFbN2+TC7Metk/DqHlkTS2LzsCuw6lAZndudVYAZ9S23yrMZHctxPdKcwZQBZP8APwXHtjQoBQy/ZNgn2sA47pouLWCf2r6oBODba7+CdlyDM/dNBdfOdgkzGQhx2WCOF9015vftJSW97YKInNs5Y1i7eBSZtNdEhfooi+yxiUvXAuIzdFGzRmeU2HghqiqdI+0eyxgiSYM23UQkJ66KEC2+pS3tusEk5jQEhkd0US46BYw4v0TbqO56OTrrGHEuUb8h3ATlxDUKCmQvjb5hM1HW6lITSEOKGUmhgkcPiIRMVXMzuSkfdDEJpbbZTljTKRytF1TYxWR7SFWdNxPWM3N1k45HBTRyarnngi+0dMM0l0zdU/Fzx7xpVth/E8VRIGZdV5uHq1wDMatt/FQ/w8cvRSXy5wR6oJnCASPb2UwYhTXsX6qR8efBGfRYnEM7JzZ5C5l8OMumUXzGu0bgVULho8JBKwnR7ViIpqhsRcHlVtRjVZA/R5Q/wJPpj/5sfaPSTqks1ea0/FlUJQ03VtBxO+2qnP4mSBaHyIS6Ng8NzKF48CqBvEjHjUqZmOwm17KTwzXoqskX7LMs1SFiCGK05+JOGIQn4gl4y/BuS/SaRqblcozVRH4lwqGF3eC1MNo4t8FW4hmF1YmVtu8gqgNkKpjdO2TmrQDT3LxdWQZ2ENFFlKKD9E02mxYKkRkOsou0FM96iJbqshxhL/FR5n9Cnk6qM5UwBDM/5k01Dx1TX2THbJhGP9ZlPVd608BQuSO7qYQn9beu9dehk0opAC/X3pxr3hAO3SFGgB34k9L+JlVxXFNQCy/FHLvxRyqiUi3FALf8UPzFL+K/tKlJXIqJi5OKphxVt+8qkpiKihWy6/FmppxRqpik6JuIGy5/E/Nd+J6bqlXLUhS6/FPNJ+J6d5UiRGkYu/xRNOJqmSO2RSQLLn8T80n4p5qlTU3FC2XBxT9pNOJqnSXW4oDkW/4k7xTTibvmVSU0puKBZb/iZHVJ+KO+ZVKatxRrZbnEz8yY7FH/ADKrXI0gWyzdib/FN/EX/Mq0pNUaFtlga9/zJPX3/MgCVyPENhvr70hrnoK6ajQAz1x/iu9bf4oNcCskCyqdIOiju4pqcus4WxqXokTlgDU5NTlkY5cmpyASwoho1qGxFvLqC0KwoGdnRC4k3mVGm40Q9jtaLjDsYp6PBCyNp59v3oeCoilpg+Z1y8dr6qOmwad9PzDoMl1BlbFSBwN39RlQSXoZN9MCn9lPmj2vorSsr/W4Kd3xRiyrKh2Zmyigc5h0TJbsm3Wi4py+Qj2z26bAoHEXkzntk/VyWObINHiyhqJObISBZNSAmyfCyRI+19fArsVeHVAd+x43Q9PM+InJ1Uz431cpezJ9Lo6F3Y7D8wu4F40+BGGrq4re2kGmxN0IIpaZmaRlxtcaptRI2TtC6aKXsSbd6DqLth0p6nVVuIyZ5y3NonxTyxRuDHaeaEe9z5LlSapl1K4k8crwA2+iV9QbWLVCH/tJCblYwbBI0va7TsAnVVxU40ZIfKyHQYJB1HmdYK0ga0Cw6Ktw49kqwj02TrYGTguP0Uc8TuRMdzo8D6a/1S3XPOcxuPQrAJSRUAcvRpCLppnRRmLLeIixCEGWntGQ7lE9h3h5FS6jZbsVaLHltdCxriSL+zm6s8iqqspKiikL6YWJNzEO4/zZ/RGUtSYRqAQdx0KmJYY5MntIT3ozuz6Jeh7TK2nmjqIy8O7Q3Z4IUxGWTM3tG6MrKCNwFTHLy5D8Y1v9QhH+sxMMfsMx+MP/AJbqiYjQTThgAab2H70TPlsGt+yroJJKYB1SzsnaQG7FPBUxSHOJGaaC63+wdE4bk+JPDmHs90qN8oPZ73nbRcbZbs28boDWSPFrbrmG+g1F1Fdx0N0jpXdwDXxWo1kpsTpoPonGwGt/sog7lR69slRSOc8h2wWoJK83d5JpFttUwP3dufJPDw8dptgFqMRdokWaUkhZFdz3a9EstUzuRNCH5T36yarGI3vlqH5jslDGsHiVKBfshqWSMAC9lmEgzuKbdwTnm+g2UZ31agEdfRN/ckBcmk/tLGHpwbdMCeNsyxjhm23SkLiWgrr3KxhLJikGU69VzddCsYiITXhPPgn2DGXO6xrA5BZcwkbpz+0UxLJWikZUwlkmiveHDeoa7zWcjKv+Gz7Vv1UUUm7R6/vw9pvkWClLpMzjvdeh0bGycOBv7CwdXTmGRzT4rlx9sf0Rxj2BWdxRtiVpovcG6zuKjUrpgJMoQLTj6q0Zsq06ThWTNmpPkLaK/H6Ht7qk6DVNHdTraBcx0jg542cUrJZQe+U0d1y4LBJhUzD4ypBWzA7qBNtqhxQ1v9DW4hMN1wr3k9UGBqnWQ4I3NlgzECDqpRX6auVZ4JyV4ojqciyFcD8QTvWmqq6J/RDxIPkZYGcJpmaUCO8o7uW8aN5GWBlCYXNKCBPmlY433WWMHkCiWlJmQxcV2c3W4G5BJKY51lEC6y4ly3A3JEt00m6jJSJuAGyS6bfRMOa4XEuRoFjj3U3dd2kmq1GbFISWQb6kiQt8F3rXmn4Mn5IhRSOQhqvNMfUuto5FQkB5EGrlV/iFnLvxH9pN45C+SLLRNVb+IN+Zd6+3xQ8cjeRFldqYSFXGvHQpPXW+KPjYOaLHMkL1XevBIa1qbxsHkQfdJdA+uNTfXAjwYOaDy/RNJQPrV1NTSc6TIFuLQFKya6QlSmF3yruQ5ANMhuuupeS5IYSsBpkV111JyCmmJNZtjCV10/lWScpxWsFMYkJUgiSGOxRs2yO6QlSctdy1rARrrqTlpDGjaNRRJyanLqRwDU5NTlkYanJqcsjHJG7pErd0A9F3hh9mPIIO95y7zU1I+0Ug62UEer2/VBLZb0a955eDu7Woj/ksqzWOy0uIOvhUlvkWQlc4XZn0CWCtAm6ZDOdbJIxoU126lHc0sqIk3ZGVwXbrljHfROje4PGqQBx2T8jRssajVYRQU01OOY55kJ110Cq8Yw98NUANiU7AsQfDMAXX/mFsavDGzYWZt5CL/QKVtPZak46PPKwCNgYEKrKshBdJHsWKsIsbFVZFirk1OQAcS7l2PUqNSSaODU1BmCKB9pLFWjDoqSN+V4crWCRrmhyZBDBlSEujIcxND069xlTAGMe91QW5c4eLFhNtPD+ifFMYfYym4+B/iE2MEz26H966eVpgcws1BuzS1jtdawBgc6w6lPYXZ8w0K6ENABLV0gvt2ljCTysMl5LPkHyaJGB00gMsj2Em97XTfV7PzdUvZB+X6oUvQLaJpy4CQlly8WBjP8QhDDSOHbijDvG2Q/uU2cjUG6Qy3Fr3HgVtjWiE0jGWML6iMv8AAh4SiKeIECaMgfOCwqWMx+BB8QU4hxGUSvsTch4uts2iESVLGH9HJv1Y7OmMqWRszSF7HH52WRJv2L8t4vc9CVCwyZwAyawubB91rNRAahsp74+ylYdLfuTi2O0bZGi9tc8aHkjpzIWxODQOoeQjZqJs7I2Zi7XohZJZJjpoEnIY+MyHmaEADP8A9k400jDlD3/cX/gtaBQ+CMRjMdVK05+yhCZBoWg+IBsf3rpKhzB2mPYfNqwQt5bGzWyEkkMniAomyNkf70FSve1o81jCWsmn6rgSdlzh4oDCEknKmkJ/ZCS7RusYVgta+y4yNA0KjfLfuId5N9UQBQk66JQ9pKDu7oni+x0WNYSS2+YLrknTVMDcm7kvNaOyN1jEvcF9yopDdTQWf3lFUaSabLUEhK4hc9L0DkAjI9FfcOH2o+qz7t1dcOOtOFFrZVu0e3YNmOAD6LH42LSla/htzX4B9lkcdHtXLij9mV9AlPrGVnsV77loKbuFUOL+8cumHYkzPye+RzNggp/eIuM9gIZ1dFcDCG91SfCLqKNSu2C5TpHDupG91L8KRvdWCP8ABK3dclHeWCIwJy4aFcsEVveSkWC5KdisYaPqnJLaJ/QXWMNSJ31TG95Ywn/Nqual6pVjCO7y4C6eRsVw0OixjhoNU126cEttVjDCEnVPKb1WMNIs4Lk5/RJ9VgM62l0oCeNikCwSjqdJ3fVRXT602q5Pqhsy60tI432SEpbqLMuD0RbG1MWftDdBKwB1UFRHfttTRYkl7B+qRcuTCWcuXLlgHLly5Yxy5cuWMOarDB9Kv7Kvaj8E/XR9FOfRXH9kX6bbVSOSeC5jtI3DxTCNFI7vJpRFIikfsOypEx3dRFYxya3u6JzlyIvYwDVMf3lIO8mPOqxhq5ISkvusYV2ya5I8qMlFdmKXqu6JE5dqPNGpyanLGOXLlyxjkjd0iVu6AUGse7kZw62ijjkfzW/VM5jmR26FMjfaQHL1W9lOWjRV9bN6hIDYC3QLOvN3I6srDJT8sMsq8H81oqhZyvoT40r3XSBF0VOJpA1G6AkCsBPZDVIG+Ku5cNERzNvdVMsLo5SzKfJKmmNxojPkljjc45Qp4qa5ynfwUrA1j7ZtgiE6naKchwuZP+y2/DeJCpo+S7cf6ssZJl5ebKFJhVW+CobluAShKNoydMM4novV6syxt7Lys7VD2l/FbLGctTQPf5XusVO+8i0XoExiVg1SJw0BcmRMa/Urly5L2Y5T003L0OygXImLhklwnCR11UxTPj2OngjKepYTrunswex/KDnlpy2+qSIZuVCS8i+o8Lan96ilktFy82j3DZPocplJDth/FYxYl/7S5h8QoTJ4pM/g5AxOT4bJpOo7SiMvRIXjoiAmu0HRq4v/AGQoRICEmfzWAEA/spOZf4VA6dij57bGzrFGmYKcfFNfVsiGXKC5B8zmbldzIWd5zPzQo1hD6mom27ATGNtq+xUD6+Fg0ddQSYgCUdG2WV4u9IxhtrokL2E5os8bh5qofXeAKjNW/oELQ2yzYHxh3tGPJ+dI97gHHIR2dMj1VmpeUoqpAg2jBvsiz2gF77Fn80wwstnYXsubCxuhRVPG+qc2oY86ssVrQQrO+Mlt2EjxBBTeY/5PyKjzOFyM+qjfM/XQ6+IWCPkc/wCQj7KIucTukYXEnREsbezXsIuUbAQC52TxH5ouOFmQu5b7JOWwuPK1AQs1EMcbvlT3lkeqjfM7r+5QPLnFEBJJLm7KfTx5npsDboyJmW1ljCv0aEPKbuU0hQpPbKwUc7vJR7sphOqkjF2FZhsjf3lZ8Pm1Qqt/eVhgZtUJJDro9w4U7WBn6LM4979y0HBT74O5uboqHH/fleevuy6+pXUvdKo8X945XlL1VNi4HMcujH2LPoztR7xExnsBDVPfzKaLuBbN0PgYS1SKCMqbwXKzrJOic1MvonN7qAUSDquYVw1XBYw5vVcuHdXNWCO+ieTpompzVgjAntTPi8k8d1Awg1Pkm21SpeqJhE3quOl1xWMSDuFMCewJlrFYxIzupHb+SUFcRqELMcRom9U7pokI1RMI8baJpT3Jjt1jD1zBdc1K3LdYxnMXOSvkQefVFY7piDvogLrtgv5Rwzf9MlzLrqK6VNQhKHp4KhBTgUKNZHPHY5hsokWVBI230RQrRGuXLkRTly5cmMcuXLkphzUdg5tWtQAR2EG1bGkn0Vx/ZGjPeSAJbarlynZY14THJ7yo3d1EDGpjzonkpkmyIrGlRkpXlNuihWdfUqN51TrqN51WMcTqmXSEpt0yQBXlMe6ya8phTpUK5Gg/3Uw7++qv8zf/AGp7OEqB7wxklW5zjYAOaST/AJVeKWmnmpqiKppppIZ4nh8ckbi1zHA3DgRqCDrddB5tldU+jOupql1NUYTjsM7KY1bo5KdzXCAAkykFl8gse1tpulwT0aV2ONmdguFY7iYhsZTSU7puXfbNlYbfde78Q8YcNOoovxPG8RkxPEuD6DD319DFHXPiJe99SyUPmZZ7rMBuSQC7a63lLxJwszifiKbDsfwPEmy8WR1r2YliUdHFDG1gvPA9rzztbjUkHKOx4iwnyzh/oe4jxGiZXYfwvxVV0r82WeCgkfG6xINnCOxsQQfMFdWehviaipTV1nCnFdNTgtBllw+RjBmIA1MdtSQB5kL1N2O0GB4dxvxFhuPCuxSvxabDsKJmAmjgkc98tWGAjKXNs0ODRYvdZQSYoyg4Q4X4XwvianpazGJmYjjGIipc71UiQtp4nPZdzOWGmRzbXDnA6WRNZ5ifQ9xEK+KgPDHFIrJY3SxweoScx7G2BcG5LkC4ufMJ7vQ3xIyuZQv4W4qbVvjMjIDh8gkcwGxcG8u5AJAv5r27ip9DiHD3BfDNbxPgtHWDF5GVcmHYwKiHkPDA+rlle45Hmx7Jda3wjZWHDHGmH4vjPGjPW8JFGIaaiwXC8SxEUdLJTRSmx5t2kPAAfYOGYvde/QWE+eaL0W4riFXU0VBgnENXVUZtUwwUrnvhOvfaGXbsd/BB0vo+kqBVvp6LF5m0Dc9WWRZhTtBteSzewL6a2X1jBxPgEnEXFEtJjmA4rJNj1DVCHEsVbSU7Y44W3lhlbl5pY/My1zdrQSHE6jUtV6PMUoa3C5MVwWtwmu4hrqvHaqtxV1HVOGcmGSKNpbzhlNwAC3NfsgnQ2A+TpOF8PcNZqr/M3+ixccbpH6DZeq1TYvWnsp3OdEHHI5wsS2+hI6FYKjpWwxZjuQs2NBWUrxkJUlNKY5Q4OypKj3jl1Pl5gusN0y0GJzAdq/8AmXCpim7+/ig3sb8yY9l9ghxQ9ssX2JtHv49VBPIA8s1aQgnuewghxSSTPc/OTrZZIDkqLLlyOGYNFkwxPBzNYq0vJ3ckTC8i4nrpH0fIN7+SqMml0rZLC2i4uuhRm7GWSvYQwX6qenbmO112IlvPDGbMCxq0DLly5YU5cuXLGOXLlyxh4keLanRSRVUsZJFioFyNhDhiD7atS/iHixA2SrWzUG+v+Saa53S6DsusjYOIQat/Rd63JZD2Srcmah7pnn4k0yv+ZNslQ5M1I4yPO7yuXLkAnLly5YJy5cuWMNXJyasBnLly5YBJFM+M+IRkFQxw6X8FXrkbMXDTEd2BOu22irYpngC+qnZUtC1jUGAvGxUUmT5sjj1HVQ+tgaZE+oP6OH5bXRB0QyaEZxp4hRjQ5h2gmZ9VPT2O+x/cUTEse2ZPD7nKFDGHCQjopX9grAGzvcOyoXbBSX5hKZJosERmpU0XyoYaKaMrBIpt0ZhTrThCzqbDj7VCRke0+j6XPhbgq3iO3Pd9VL6OZP0RzVFxJ71y85r/ANjOqP1KqmO7VVYuO25WdL3lX4wLSOV4diy6M3V6FOiOgTaxdGewE2XobF2ERqVveUEZ1UzVyNHSiRqkYowdE8HUJRx41KcE1u5TlhhW91cMqTpuubusYkSpEqwRAnjuptvNKMuixhXdEnVK5MdusY5652y52yQdxYxICkK4LisYVmXxSu7yaxLJ0WMLfRd1C4d1cDqFjHSHQBNOZOk0aPqmlYwvwpRuEnQLmbrGM5xB+v8A2Vej+Jswrxb5FV9td2P6o87K6m0SpVF2/Fd2z1VKJ8iVPCHDH+K7I/xWoPK/QSTokOU7qDI/xK7lu+ZbibkxxFimlK1v7SQiyxhFy5csA5ckSoUaxQjMLNq2L6oMIvDNKyL6qc+imPtGoTT4pCUwlcp2nPTHpXlRkoijSU150XOTH91EVsR5TEpKYSiA66Y8pbpju8ijDSUhS9UhTikb0xyeUxyYVhv+9eI/3NL/AJXf+5d/vXiP9zS/5Xf+5UC5XOGi/wD968R/uaX/ACu/9yX/AHrxH+5pf8rv/cqAC6dZoQsPEvf96sRv7mlt/gd/7k7/AHrxH+5pf8rv/cs+9KsGkX/+9eI/3NL/AJXf+5d/vXiP9zS/5Xf+5UCaSsakXx4sxD+5pf8AK7/3JzOKsTcezT0v+V3/ALlQMZmNlc4HFFkkY8e080boCigqHirEGuBdDS3Gvdd/VDT1LBB2HbhAYjF6tOWbg7ITmOIy5tFqGTSOJuXOTqcXeE1SUw7ZsVgIJ69CkJdfKBouYLv6Xtdd9FhyGXdRnUFTVGgCiWAxi5IdCu6IkxFycmoGJoJXRvDlHK4ySF53K5g1TVgt+jlymY2E05c55El9rdFCsA5cuXLGOXLlyxjly5csYcuTVywRbpU1csEcuTVyxhy5NTljHLk1OWMcuXJqxhy5cmrAFKRcuWNZy5cnAeKwKEYCTonvZkCdH0SSd5LZRRqNjRsE9nfCYO6lZ3wiZdkxY1xAU9a9tgwbBMZo8Jr2ufUFp2TQBkI443OKNgpnkFobbwKeGMp485Qkc0k1Y2zyBfRMIGPa0WmjYbdbqCWTPsUTVlkchaO3zBcAdCq06SEIILJozbZJUd1SQM1TKw9sWRADsU8Q1UF1NTm5WMJPuWqTDvfJlRvmS0B9uFn0FHrXo4PYLVJxQLTuKF9HjrE/RGcS+9cvNl/yHVB/yUNMfaILGT2yiad1pUNjO66I9ivoztWNVE3uKWr1OqiHdTZOg4nsmYdVKH2KHYdVKwrmaOpMJBSgqEGw1UgKRoYnYfzS3vdRgtXA6pRkybomt7yT4VzCsYlTlHdLdYax65hTLpWHRY1jidEhOoXDKmvOqxrHFIDquJSDRYw8FydfTVRsP7SU6jRYyY8d5K86KMHXvJXnQLGsezZdfVMBsuusax7z2AkPeTXnsJL6rGHJQUw+S5h1WNZQ8SfrjPoqpXHEI/SG/RVVl34vojz8v3YxO1SgJbKhMQFddPsm2WMJcrrp9k3KsYS646pcqWzljEZTVOYyR5qEhAzESdUq5YAqJoDarj+qGCnpf1iP/EkktFI9mnJTb+KQnRMBXIdjY550TL/CuedO8mXRBZzlE86LnlMedERWISmJSUiIDrpj9066aSiYRNOicmFMgDCmuTimphD/2Q==;" parent="1" vertex="1">
          <mxGeometry x="530" y="120" width="293.34" height="220" as="geometry" />
        </mxCell>
      </root>
    </mxGraphModel>
  </diagram>
  <diagram id="iZyWcLnmT-U_1-EsWlDw" name="Page-2">
    <mxGraphModel dx="1363" dy="846" grid="1" gridSize="10" guides="1" tooltips="1" connect="1" arrows="1" fold="1" page="1" pageScale="1" pageWidth="850" pageHeight="1100" math="0" shadow="0">
      <root>
        <mxCell id="0" />
        <mxCell id="1" parent="0" />
        <mxCell id="RuumYP2mvlx921ZHkeVh-3" value="" style="rounded=0;whiteSpace=wrap;html=1;" vertex="1" parent="1">
          <mxGeometry x="100" y="100" width="460" height="40" as="geometry" />
        </mxCell>
        <mxCell id="RuumYP2mvlx921ZHkeVh-5" value="Title" style="text;strokeColor=none;fillColor=none;html=1;fontSize=24;fontStyle=1;verticalAlign=middle;align=center;" vertex="1" parent="1">
          <mxGeometry x="100" y="100" width="100" height="40" as="geometry" />
        </mxCell>
        <mxCell id="RuumYP2mvlx921ZHkeVh-7" value="" style="rounded=0;whiteSpace=wrap;html=1;" vertex="1" parent="1">
          <mxGeometry x="100" y="160" width="460" height="210" as="geometry" />
        </mxCell>
        <mxCell id="RuumYP2mvlx921ZHkeVh-8" value="Write pages" style="text;html=1;align=center;verticalAlign=middle;whiteSpace=wrap;rounded=0;" vertex="1" parent="1">
          <mxGeometry x="110" y="170" width="90" height="20" as="geometry" />
        </mxCell>
        <mxCell id="RuumYP2mvlx921ZHkeVh-9" value="Publish" style="html=1;shadow=0;dashed=0;shape=mxgraph.bootstrap.rrect;rSize=5;strokeColor=none;strokeWidth=1;fillColor=#33A64C;fontColor=#FFFFFF;whiteSpace=wrap;align=center;verticalAlign=middle;spacingLeft=0;fontStyle=0;fontSize=16;spacing=5;" vertex="1" parent="1">
          <mxGeometry x="100" y="390" width="90" height="40" as="geometry" />
        </mxCell>
        <mxCell id="RuumYP2mvlx921ZHkeVh-10" value="cancel" style="html=1;shadow=0;dashed=0;shape=mxgraph.bootstrap.rrect;rSize=5;strokeColor=none;strokeWidth=1;fillColor=#DB2843;fontColor=#FFFFFF;whiteSpace=wrap;align=center;verticalAlign=middle;spacingLeft=0;fontStyle=0;fontSize=16;spacing=5;" vertex="1" parent="1">
          <mxGeometry x="200" y="390" width="80" height="40" as="geometry" />
        </mxCell>
        <mxCell id="RuumYP2mvlx921ZHkeVh-11" value="&lt;h1 style=&quot;margin-top: 0px;&quot;&gt;Heading&amp;nbsp; &amp;nbsp; &amp;nbsp; &amp;nbsp; &amp;nbsp; &amp;nbsp; &amp;nbsp; &amp;nbsp; &amp;nbsp; &amp;nbsp; &amp;nbsp; &amp;nbsp; &amp;nbsp; &amp;nbsp; &amp;nbsp; &amp;nbsp; &amp;nbsp; &amp;nbsp; &amp;nbsp; &amp;nbsp; &amp;nbsp; &amp;nbsp;&lt;/h1&gt;&lt;p&gt;Lorem ipsum dolor sit amet, consectetur adipisicing elit, sed do eiusmod tempor incididunt ut labore et dolore magna aliqua.&lt;/p&gt;" style="text;html=1;whiteSpace=wrap;overflow=hidden;rounded=0;" vertex="1" parent="1">
          <mxGeometry x="95" y="510" width="460" height="120" as="geometry" />
        </mxCell>
        <mxCell id="RuumYP2mvlx921ZHkeVh-13" value="" style="line;strokeWidth=2;html=1;" vertex="1" parent="1">
          <mxGeometry x="90" y="480" width="490" height="10" as="geometry" />
        </mxCell>
        <mxCell id="RuumYP2mvlx921ZHkeVh-15" value="02-02-2024" style="text;html=1;align=center;verticalAlign=middle;whiteSpace=wrap;rounded=0;" vertex="1" parent="1">
          <mxGeometry x="480" y="510" width="75" height="30" as="geometry" />
        </mxCell>
        <mxCell id="RuumYP2mvlx921ZHkeVh-18" value="&lt;h1 style=&quot;margin-top: 0px;&quot;&gt;Heading&amp;nbsp; &amp;nbsp; &amp;nbsp; &amp;nbsp; &amp;nbsp; &amp;nbsp; &amp;nbsp; &amp;nbsp; &amp;nbsp; &amp;nbsp; &amp;nbsp; &amp;nbsp; &amp;nbsp; &amp;nbsp; &amp;nbsp; &amp;nbsp; &amp;nbsp; &amp;nbsp; &amp;nbsp; &amp;nbsp; &amp;nbsp; &amp;nbsp;&lt;/h1&gt;&lt;p&gt;Lorem ipsum dolor sit amet, consectetur adipisicing elit, sed do eiusmod tempor incididunt ut labore et dolore magna aliqua.&lt;/p&gt;" style="text;html=1;whiteSpace=wrap;overflow=hidden;rounded=0;" vertex="1" parent="1">
          <mxGeometry x="100" y="620" width="460" height="120" as="geometry" />
        </mxCell>
        <mxCell id="RuumYP2mvlx921ZHkeVh-19" value="02-02-2024" style="text;html=1;align=center;verticalAlign=middle;whiteSpace=wrap;rounded=0;" vertex="1" parent="1">
          <mxGeometry x="485" y="620" width="75" height="30" as="geometry" />
        </mxCell>
        <mxCell id="RuumYP2mvlx921ZHkeVh-20" value="&lt;h1 style=&quot;margin-top: 0px;&quot;&gt;Heading&amp;nbsp; &amp;nbsp; &amp;nbsp; &amp;nbsp; &amp;nbsp; &amp;nbsp; &amp;nbsp; &amp;nbsp; &amp;nbsp; &amp;nbsp; &amp;nbsp; &amp;nbsp; &amp;nbsp; &amp;nbsp; &amp;nbsp; &amp;nbsp; &amp;nbsp; &amp;nbsp; &amp;nbsp; &amp;nbsp; &amp;nbsp; &amp;nbsp;&lt;/h1&gt;&lt;p&gt;Lorem ipsum dolor sit amet, consectetur adipisicing elit, sed do eiusmod tempor incididunt ut labore et dolore magna aliqua.&lt;/p&gt;" style="text;html=1;whiteSpace=wrap;overflow=hidden;rounded=0;" vertex="1" parent="1">
          <mxGeometry x="100" y="740" width="460" height="120" as="geometry" />
        </mxCell>
        <mxCell id="RuumYP2mvlx921ZHkeVh-21" value="02-02-2024" style="text;html=1;align=center;verticalAlign=middle;whiteSpace=wrap;rounded=0;" vertex="1" parent="1">
          <mxGeometry x="485" y="740" width="75" height="30" as="geometry" />
        </mxCell>
      </root>
    </mxGraphModel>
  </diagram>
</mxfile>
